<svg
	xmlns="http://www.w3.org/2000/svg"
	xmlns:xlink="http://www.w3.org/1999/xlink" version="1.1" preserveAspectRatio="xMidYMid meet" viewBox="0 0 700 1080" width="700" height="1080">
	<defs>
		<path d="M485.43 212.79L486.9 212.91L488.36 213.08L489.82 213.32L491.28 213.61L492.73 213.97L494.17 214.38L495.61 214.85L497.03 215.39L498.44 215.98L499.84 216.64L501.22 217.36L711.33 332.4L712.68 333.17L713.99 333.99L715.25 334.86L716.47 335.77L717.64 336.72L718.76 337.72L719.84 338.75L720.88 339.82L721.86 340.92L722.8 342.06L723.69 343.23L724.53 344.43L725.32 345.65L726.06 346.91L726.75 348.19L727.39 349.5L727.98 350.82L728.52 352.17L729.01 353.54L729.44 354.92L729.82 356.32L730.15 357.73L730.42 359.16L730.64 360.59L730.8 362.04L730.91 363.49L730.96 364.95L730.96 366.41L730.89 367.87L730.77 369.34L730.6 370.8L730.36 372.26L730.07 373.72L729.71 375.17L729.3 376.61L728.83 378.04L728.29 379.47L727.7 380.88L727.04 382.27L726.32 383.65L531.69 739.16L530.91 740.51L530.09 741.81L529.22 743.08L528.31 744.29L527.36 745.46L526.37 746.59L525.33 747.67L524.27 748.7L523.16 749.69L522.02 750.63L520.85 751.51L519.65 752.36L518.43 753.15L517.17 753.89L515.89 754.58L514.58 755.22L513.26 755.81L511.91 756.35L510.54 756.83L509.16 757.27L507.76 757.65L506.35 757.97L504.92 758.25L503.49 758.47L502.04 758.63L500.59 758.74L499.14 758.79L497.67 758.78L496.21 758.72L494.75 758.6L493.28 758.42L491.82 758.19L490.37 757.89L488.91 757.54L487.47 757.13L486.04 756.65L484.61 756.12L483.2 755.52L481.81 754.87L480.43 754.15L270.31 639.11L268.96 638.34L267.66 637.51L266.4 636.65L265.18 635.74L264.01 634.78L262.88 633.79L261.8 632.76L260.77 631.69L259.78 630.59L258.85 629.45L257.96 628.28L257.12 627.08L256.32 625.85L255.58 624.6L254.89 623.32L254.25 622.01L253.66 620.68L253.12 619.34L252.64 617.97L252.2 616.59L251.82 615.19L251.5 613.78L251.22 612.35L251.01 610.91L250.84 609.47L250.74 608.02L250.68 606.56L250.69 605.1L250.75 603.64L250.87 602.17L251.05 600.71L251.28 599.25L251.58 597.79L251.93 596.34L252.34 594.9L252.82 593.46L253.35 592.04L253.95 590.63L254.61 589.23L255.32 587.85L449.96 232.35L450.73 231L451.56 229.69L452.42 228.43L453.33 227.21L454.29 226.04L455.28 224.92L456.31 223.84L457.38 222.8L458.48 221.82L459.62 220.88L460.79 219.99L461.99 219.15L463.22 218.36L464.47 217.62L465.75 216.93L467.06 216.29L468.39 215.7L469.73 215.16L471.1 214.67L472.48 214.24L473.88 213.86L475.29 213.53L476.72 213.26L478.15 213.04L479.6 212.88L481.05 212.77L482.51 212.72L483.97 212.72L485.43 212.79ZM482.54 244.88L482.18 244.92L481.83 244.97L481.48 245.04L481.13 245.12L480.78 245.21L480.44 245.32L480.1 245.44L479.77 245.57L479.44 245.72L479.12 245.88L478.8 246.05L478.49 246.23L478.19 246.43L477.89 246.64L477.6 246.86L477.32 247.09L477.05 247.33L476.78 247.59L476.53 247.85L476.28 248.13L476.05 248.42L475.82 248.72L475.61 249.03L475.4 249.36L475.21 249.69L303.93 562.54L303.75 562.89L303.59 563.23L303.44 563.58L303.31 563.93L303.19 564.29L303.09 564.64L303 565L302.93 565.36L302.87 565.72L302.83 566.08L302.8 566.45L302.78 566.81L302.78 567.17L302.8 567.53L302.82 567.89L302.86 568.25L302.92 568.6L302.98 568.95L303.06 569.3L303.16 569.65L303.27 569.99L303.39 570.33L303.52 570.66L303.66 570.99L303.82 571.31L303.99 571.63L304.18 571.94L304.37 572.24L304.58 572.54L304.8 572.83L305.03 573.11L305.28 573.38L305.53 573.65L305.8 573.9L306.08 574.15L306.37 574.38L306.67 574.61L306.98 574.82L307.3 575.02L307.64 575.22L514.15 688.28L514.49 688.46L514.84 688.62L515.18 688.77L515.54 688.9L515.89 689.02L516.25 689.12L516.61 689.21L516.97 689.28L517.33 689.34L517.69 689.38L518.05 689.41L518.41 689.43L518.77 689.43L519.13 689.41L519.49 689.39L519.85 689.35L520.21 689.29L520.56 689.23L520.91 689.15L521.25 689.05L521.59 688.94L521.93 688.82L522.27 688.69L522.59 688.54L522.92 688.39L523.23 688.22L523.54 688.03L523.85 687.84L524.14 687.63L524.43 687.41L524.71 687.18L524.99 686.93L525.25 686.68L525.51 686.41L525.75 686.13L525.99 685.84L526.21 685.54L526.43 685.23L526.63 684.91L526.82 684.57L698.1 371.72L698.28 371.38L698.44 371.03L698.59 370.69L698.72 370.33L698.84 369.98L698.94 369.62L699.03 369.26L699.1 368.9L699.16 368.54L699.2 368.18L699.23 367.82L699.25 367.46L699.25 367.1L699.24 366.74L699.21 366.38L699.17 366.02L699.12 365.67L699.05 365.31L698.97 364.96L698.87 364.62L698.77 364.28L698.65 363.94L698.51 363.6L698.37 363.28L698.21 362.95L698.04 362.64L697.86 362.33L697.66 362.02L697.45 361.73L697.23 361.44L697 361.16L696.76 360.88L696.5 360.62L696.24 360.36L695.96 360.12L695.67 359.88L695.37 359.66L695.05 359.44L694.73 359.24L694.4 359.05L487.88 245.99L487.54 245.81L487.2 245.65L486.85 245.5L486.5 245.37L486.14 245.25L485.79 245.15L485.43 245.06L485.07 244.99L484.71 244.93L484.34 244.88L483.98 244.86L483.62 244.84L483.26 244.84L482.9 244.85L482.54 244.88Z" id="dbxHH4lC9"/>
		<path d="M413.45 673.63C407.53 684.46 393.93 688.44 383.1 682.51C372.28 676.58 368.3 662.98 374.23 652.16C380.15 641.33 393.75 637.35 404.58 643.28C415.4 649.21 419.38 662.81 413.45 673.63Z" id="j2jxQeZi93"/>
		<path d="M725.57 -226L727.04 -225.88L728.5 -225.71L729.96 -225.47L731.42 -225.18L732.87 -224.82L734.31 -224.41L735.74 -223.93L737.17 -223.4L738.58 -222.8L739.97 -222.15L741.35 -221.43L951.47 -106.39L952.82 -105.62L954.12 -104.8L955.39 -103.93L956.6 -103.02L957.78 -102.06L958.9 -101.07L959.98 -100.04L961.01 -98.97L962 -97.87L962.94 -96.73L963.83 -95.56L964.67 -94.36L965.46 -93.13L966.2 -91.88L966.89 -90.6L967.53 -89.29L968.12 -87.96L968.66 -86.62L969.15 -85.25L969.58 -83.87L969.96 -82.47L970.29 -81.06L970.56 -79.63L970.78 -78.2L970.94 -76.75L971.05 -75.3L971.1 -73.84L971.09 -72.38L971.03 -70.92L970.91 -69.45L970.74 -67.99L970.5 -66.53L970.21 -65.07L969.85 -63.62L969.44 -62.18L968.97 -60.74L968.43 -59.32L967.83 -57.91L967.18 -56.51L966.46 -55.13L771.82 300.37L771.05 301.72L770.23 303.03L769.36 304.29L768.45 305.5L767.5 306.68L766.5 307.8L765.47 308.88L764.4 309.91L763.3 310.9L762.16 311.84L760.99 312.73L759.79 313.57L758.56 314.36L757.31 315.1L756.03 315.79L754.72 316.43L753.4 317.02L752.05 317.56L750.68 318.05L749.3 318.48L747.9 318.86L746.49 319.19L745.06 319.46L743.63 319.68L742.18 319.84L740.73 319.95L739.27 320L737.81 320L736.35 319.93L734.88 319.81L733.42 319.64L731.96 319.4L730.5 319.11L729.05 318.75L727.61 318.34L726.18 317.87L724.75 317.33L723.34 316.74L721.95 316.08L720.57 315.36L510.45 200.32L509.1 199.55L507.8 198.73L506.53 197.86L505.32 196.95L504.15 196L503.02 195L501.94 193.97L500.91 192.9L499.92 191.8L498.98 190.66L498.09 189.49L497.25 188.29L496.46 187.06L495.72 185.81L495.03 184.53L494.39 183.22L493.8 181.9L493.26 180.55L492.78 179.18L492.34 177.8L491.96 176.4L491.64 174.99L491.36 173.56L491.14 172.13L490.98 170.68L490.87 169.23L490.82 167.77L490.83 166.31L490.89 164.85L491.01 163.38L491.18 161.92L491.42 160.46L491.71 159L492.07 157.55L492.48 156.11L492.96 154.68L493.49 153.25L494.09 151.84L494.74 150.45L495.46 149.07L690.1 -206.44L690.87 -207.79L691.69 -209.09L692.56 -210.36L693.47 -211.57L694.42 -212.74L695.42 -213.87L696.45 -214.95L697.52 -215.98L698.62 -216.97L699.76 -217.91L700.93 -218.8L702.13 -219.64L703.36 -220.43L704.61 -221.17L705.89 -221.86L707.2 -222.5L708.52 -223.09L709.87 -223.63L711.24 -224.11L712.62 -224.55L714.02 -224.93L715.43 -225.25L716.86 -225.53L718.29 -225.75L719.74 -225.91L721.19 -226.02L722.65 -226.07L724.11 -226.06L725.57 -226ZM722.68 -193.91L722.32 -193.87L721.97 -193.82L721.61 -193.75L721.26 -193.67L720.92 -193.57L720.58 -193.47L720.24 -193.35L719.91 -193.21L719.58 -193.07L719.26 -192.91L718.94 -192.74L718.63 -192.55L718.32 -192.36L718.03 -192.15L717.74 -191.93L717.46 -191.7L717.19 -191.46L716.92 -191.2L716.67 -190.93L716.42 -190.66L716.18 -190.37L715.96 -190.06L715.75 -189.75L715.54 -189.43L715.35 -189.1L544.07 123.76L543.89 124.1L543.73 124.44L543.58 124.79L543.45 125.14L543.33 125.5L543.23 125.85L543.14 126.21L543.07 126.57L543.01 126.93L542.97 127.3L542.94 127.66L542.92 128.02L542.92 128.38L542.93 128.74L542.96 129.1L543 129.46L543.05 129.81L543.12 130.17L543.2 130.51L543.3 130.86L543.4 131.2L543.52 131.54L543.66 131.87L543.8 132.2L543.96 132.52L544.13 132.84L544.32 133.15L544.51 133.45L544.72 133.75L544.94 134.04L545.17 134.32L545.41 134.59L545.67 134.86L545.94 135.11L546.21 135.36L546.5 135.59L546.81 135.82L547.12 136.03L547.44 136.24L547.77 136.43L754.29 249.49L754.63 249.67L754.97 249.83L755.32 249.98L755.67 250.11L756.03 250.23L756.39 250.33L756.74 250.42L757.1 250.49L757.47 250.55L757.83 250.59L758.19 250.62L758.55 250.64L758.91 250.64L759.27 250.63L759.63 250.6L759.99 250.56L760.34 250.51L760.7 250.44L761.05 250.36L761.39 250.26L761.73 250.16L762.07 250.04L762.4 249.9L762.73 249.76L763.05 249.6L763.37 249.43L763.68 249.24L763.99 249.05L764.28 248.84L764.57 248.62L764.85 248.39L765.12 248.15L765.39 247.89L765.64 247.62L765.89 247.35L766.13 247.06L766.35 246.76L766.56 246.44L766.77 246.12L766.96 245.79L938.24 -67.07L938.42 -67.41L938.58 -67.75L938.73 -68.1L938.86 -68.45L938.98 -68.81L939.08 -69.16L939.17 -69.52L939.24 -69.88L939.3 -70.24L939.34 -70.61L939.37 -70.97L939.39 -71.33L939.39 -71.69L939.38 -72.05L939.35 -72.41L939.31 -72.77L939.26 -73.12L939.19 -73.47L939.11 -73.82L939.01 -74.17L938.91 -74.51L938.79 -74.85L938.65 -75.18L938.51 -75.51L938.35 -75.83L938.18 -76.15L937.99 -76.46L937.8 -76.76L937.59 -77.06L937.37 -77.35L937.14 -77.63L936.9 -77.9L936.64 -78.17L936.37 -78.42L936.1 -78.67L935.81 -78.9L935.5 -79.13L935.19 -79.34L934.87 -79.55L934.54 -79.74L728.02 -192.8L727.68 -192.98L727.34 -193.14L726.99 -193.29L726.64 -193.42L726.28 -193.54L725.92 -193.64L725.57 -193.73L725.21 -193.8L724.84 -193.86L724.48 -193.9L724.12 -193.93L723.76 -193.95L723.4 -193.95L723.04 -193.94L722.68 -193.91Z" id="a8yRYYQ0d"/>
		<path d="M653.59 234.84C647.67 245.67 634.07 249.65 623.24 243.72C612.41 237.79 608.44 224.19 614.36 213.37C620.29 202.54 633.89 198.56 644.72 204.49C655.54 210.42 659.52 224.02 653.59 234.84Z" id="buMJ1OmTm"/>
		<path d="M46.12 317.31L47.58 317.43L49.05 317.6L50.51 317.84L51.96 318.13L53.41 318.49L54.86 318.9L56.29 319.37L57.71 319.91L59.12 320.5L60.52 321.16L61.9 321.88L272.01 436.92L273.37 437.69L274.67 438.51L275.93 439.38L277.15 440.29L278.32 441.24L279.45 442.24L280.53 443.27L281.56 444.34L282.55 445.44L283.48 446.58L284.37 447.75L285.21 448.95L286 450.18L286.75 451.43L287.44 452.71L288.08 454.02L288.67 455.34L289.21 456.69L289.69 458.06L290.13 459.44L290.51 460.84L290.83 462.25L291.1 463.68L291.32 465.11L291.49 466.56L291.59 468.01L291.65 469.47L291.64 470.93L291.58 472.39L291.46 473.86L291.28 475.32L291.05 476.78L290.75 478.24L290.4 479.69L289.99 481.13L289.51 482.56L288.98 483.99L288.38 485.4L287.72 486.79L287 488.17L92.37 843.68L91.6 845.03L90.77 846.33L89.91 847.6L89 848.81L88.04 849.98L87.05 851.11L86.02 852.19L84.95 853.22L83.85 854.21L82.71 855.15L81.54 856.03L80.34 856.88L79.11 857.67L77.86 858.41L76.57 859.1L75.27 859.74L73.94 860.33L72.6 860.87L71.23 861.35L69.85 861.79L68.45 862.17L67.03 862.49L65.61 862.77L64.17 862.99L62.73 863.15L61.28 863.26L59.82 863.31L58.36 863.3L56.9 863.24L55.43 863.12L53.97 862.95L52.51 862.71L51.05 862.42L49.6 862.06L48.16 861.65L46.72 861.17L45.3 860.64L43.89 860.04L42.49 859.39L41.11 858.67L-169 743.63L-170.35 742.86L-171.66 742.04L-172.92 741.17L-174.14 740.26L-175.31 739.3L-176.43 738.31L-177.51 737.28L-178.55 736.21L-179.53 735.11L-180.47 733.97L-181.36 732.8L-182.2 731.6L-182.99 730.37L-183.73 729.12L-184.42 727.84L-185.06 726.53L-185.65 725.2L-186.19 723.86L-186.68 722.49L-187.11 721.11L-187.49 719.71L-187.82 718.3L-188.09 716.87L-188.31 715.44L-188.47 713.99L-188.58 712.54L-188.63 711.08L-188.63 709.62L-188.57 708.16L-188.45 706.69L-188.27 705.23L-188.03 703.77L-187.74 702.31L-187.39 700.86L-186.97 699.42L-186.5 697.98L-185.96 696.56L-185.37 695.15L-184.71 693.75L-183.99 692.37L10.64 336.87L11.42 335.52L12.24 334.21L13.11 332.95L14.02 331.73L14.97 330.56L15.96 329.44L16.99 328.36L18.06 327.33L19.17 326.34L20.3 325.4L21.47 324.51L22.67 323.67L23.9 322.88L25.16 322.14L26.44 321.45L27.74 320.81L29.07 320.22L30.42 319.68L31.78 319.19L33.17 318.76L34.57 318.38L35.98 318.05L37.4 317.78L38.84 317.56L40.28 317.4L41.74 317.29L43.19 317.24L44.65 317.24L46.12 317.31ZM43.22 349.4L42.87 349.44L42.51 349.49L42.16 349.56L41.81 349.64L41.47 349.73L41.12 349.84L40.79 349.96L40.45 350.1L40.12 350.24L39.8 350.4L39.49 350.57L39.17 350.75L38.87 350.95L38.57 351.16L38.29 351.38L38 351.61L37.73 351.85L37.47 352.11L37.21 352.37L36.97 352.65L36.73 352.94L36.51 353.24L36.29 353.56L36.09 353.88L35.9 354.21L-135.39 667.06L-135.56 667.41L-135.73 667.75L-135.87 668.1L-136.01 668.45L-136.12 668.81L-136.22 669.16L-136.31 669.52L-136.38 669.88L-136.44 670.24L-136.49 670.6L-136.52 670.97L-136.53 671.33L-136.53 671.69L-136.52 672.05L-136.49 672.41L-136.45 672.77L-136.4 673.12L-136.33 673.47L-136.25 673.82L-136.16 674.17L-136.05 674.51L-135.93 674.85L-135.8 675.18L-135.65 675.51L-135.49 675.83L-135.32 676.15L-135.14 676.46L-134.94 676.76L-134.73 677.06L-134.51 677.35L-134.28 677.63L-134.04 677.9L-133.78 678.17L-133.52 678.42L-133.24 678.67L-132.95 678.9L-132.65 679.13L-132.34 679.34L-132.01 679.55L-131.68 679.74L74.83 792.8L75.18 792.98L75.52 793.14L75.87 793.29L76.22 793.42L76.58 793.54L76.93 793.64L77.29 793.73L77.65 793.8L78.01 793.86L78.37 793.9L78.74 793.93L79.1 793.95L79.46 793.95L79.82 793.93L80.18 793.91L80.54 793.87L80.89 793.81L81.24 793.75L81.59 793.67L81.94 793.57L82.28 793.46L82.62 793.34L82.95 793.21L83.28 793.07L83.6 792.91L83.92 792.74L84.23 792.55L84.53 792.36L84.83 792.15L85.12 791.93L85.4 791.7L85.67 791.45L85.94 791.2L86.19 790.93L86.44 790.65L86.67 790.36L86.9 790.06L87.11 789.75L87.31 789.43L87.51 789.09L258.79 476.24L258.97 475.9L259.13 475.56L259.28 475.21L259.41 474.85L259.53 474.5L259.63 474.14L259.71 473.78L259.79 473.42L259.85 473.06L259.89 472.7L259.92 472.34L259.93 471.98L259.94 471.62L259.92 471.26L259.9 470.9L259.86 470.54L259.8 470.19L259.73 469.83L259.65 469.48L259.56 469.14L259.45 468.8L259.33 468.46L259.2 468.13L259.05 467.8L258.9 467.47L258.72 467.16L258.54 466.85L258.35 466.54L258.14 466.25L257.92 465.96L257.69 465.68L257.44 465.4L257.19 465.14L256.92 464.89L256.64 464.64L256.35 464.4L256.05 464.18L255.74 463.96L255.42 463.76L255.08 463.57L48.57 350.51L48.23 350.33L47.88 350.17L47.53 350.02L47.18 349.89L46.83 349.77L46.47 349.67L46.11 349.58L45.75 349.51L45.39 349.45L45.03 349.41L44.67 349.38L44.31 349.36L43.94 349.36L43.58 349.37L43.22 349.4Z" id="d3jWpLrxqm"/>
		<path d="M-25.86 778.15C-31.79 788.98 -45.39 792.96 -56.21 787.03C-67.04 781.1 -71.02 767.5 -65.09 756.68C-59.16 745.85 -45.56 741.87 -34.74 747.8C-23.91 753.73 -19.93 767.33 -25.86 778.15Z" id="a11KntD6uB"/>
		<path d="M286.26 -121.48L287.72 -121.36L289.18 -121.18L290.65 -120.95L292.1 -120.65L293.55 -120.3L295 -119.89L296.43 -119.41L297.85 -118.88L299.26 -118.28L300.66 -117.63L302.04 -116.91L512.15 -1.87L513.5 -1.1L514.81 -0.27L516.07 0.59L517.29 1.5L518.46 2.46L519.59 3.45L520.67 4.48L521.7 5.55L522.68 6.65L523.62 7.79L524.51 8.96L525.35 10.16L526.14 11.39L526.88 12.64L527.58 13.92L528.22 15.23L528.81 16.56L529.34 17.9L529.83 19.27L530.26 20.65L530.64 22.05L530.97 23.46L531.24 24.89L531.46 26.33L531.62 27.77L531.73 29.22L531.78 30.68L531.78 32.14L531.72 33.6L531.6 35.07L531.42 36.53L531.19 37.99L530.89 39.45L530.54 40.9L530.12 42.34L529.65 43.78L529.12 45.2L528.52 46.61L527.86 48.01L527.14 49.39L332.51 404.89L331.73 406.24L330.91 407.55L330.05 408.81L329.13 410.03L328.18 411.2L327.19 412.32L326.16 413.4L325.09 414.44L323.98 415.42L322.85 416.36L321.68 417.25L320.48 418.09L319.25 418.88L317.99 419.62L316.71 420.31L315.41 420.95L314.08 421.54L312.73 422.08L311.37 422.57L309.98 423L308.59 423.38L307.17 423.71L305.75 423.98L304.31 424.2L302.87 424.36L301.42 424.47L299.96 424.52L298.5 424.52L297.03 424.45L295.57 424.33L294.11 424.16L292.65 423.92L291.19 423.63L289.74 423.27L288.3 422.86L286.86 422.39L285.44 421.85L284.03 421.26L282.63 420.6L281.25 419.88L71.14 304.84L69.79 304.07L68.48 303.25L67.22 302.38L66 301.47L64.83 300.52L63.7 299.52L62.62 298.49L61.59 297.42L60.61 296.32L59.67 295.18L58.78 294.01L57.94 292.81L57.15 291.59L56.41 290.33L55.71 289.05L55.07 287.74L54.48 286.42L53.95 285.07L53.46 283.7L53.03 282.32L52.65 280.92L52.32 279.51L52.05 278.08L51.83 276.65L51.67 275.2L51.56 273.75L51.51 272.29L51.51 270.83L51.57 269.37L51.69 267.9L51.87 266.44L52.11 264.98L52.4 263.52L52.75 262.07L53.17 260.63L53.64 259.2L54.17 257.77L54.77 256.36L55.43 254.97L56.15 253.59L250.78 -101.92L251.56 -103.27L252.38 -104.57L253.25 -105.84L254.16 -107.05L255.11 -108.22L256.1 -109.35L257.13 -110.43L258.2 -111.46L259.31 -112.45L260.44 -113.39L261.61 -114.27L262.81 -115.12L264.04 -115.91L265.3 -116.65L266.58 -117.34L267.88 -117.98L269.21 -118.57L270.56 -119.11L271.92 -119.59L273.31 -120.03L274.71 -120.41L276.12 -120.73L277.54 -121.01L278.98 -121.23L280.42 -121.39L281.87 -121.5L283.33 -121.55L284.79 -121.54L286.26 -121.48ZM283.36 -89.39L283.01 -89.35L282.65 -89.29L282.3 -89.23L281.95 -89.15L281.6 -89.05L281.26 -88.95L280.92 -88.83L280.59 -88.69L280.26 -88.55L279.94 -88.39L279.62 -88.22L279.31 -88.03L279.01 -87.84L278.71 -87.63L278.42 -87.41L278.14 -87.18L277.87 -86.94L277.61 -86.68L277.35 -86.41L277.11 -86.13L276.87 -85.84L276.64 -85.54L276.43 -85.23L276.23 -84.91L276.04 -84.58L104.75 228.28L104.58 228.62L104.41 228.96L104.27 229.31L104.13 229.66L104.02 230.02L103.91 230.38L103.83 230.73L103.75 231.09L103.7 231.46L103.65 231.82L103.62 232.18L103.61 232.54L103.61 232.9L103.62 233.26L103.65 233.62L103.69 233.98L103.74 234.33L103.81 234.69L103.89 235.03L103.98 235.38L104.09 235.72L104.21 236.06L104.34 236.39L104.49 236.72L104.65 237.04L104.82 237.36L105 237.67L105.2 237.97L105.4 238.27L105.62 238.56L105.86 238.84L106.1 239.11L106.35 239.38L106.62 239.63L106.9 239.88L107.19 240.11L107.49 240.34L107.8 240.55L108.12 240.76L108.46 240.95L314.97 354.01L315.31 354.19L315.66 354.35L316.01 354.5L316.36 354.63L316.71 354.75L317.07 354.85L317.43 354.94L317.79 355.01L318.15 355.07L318.51 355.11L318.87 355.14L319.24 355.16L319.6 355.16L319.96 355.15L320.32 355.12L320.67 355.08L321.03 355.03L321.38 354.96L321.73 354.88L322.08 354.78L322.42 354.68L322.76 354.56L323.09 354.42L323.42 354.28L323.74 354.12L324.06 353.95L324.37 353.77L324.67 353.57L324.97 353.36L325.26 353.14L325.54 352.91L325.81 352.67L326.07 352.41L326.33 352.14L326.57 351.87L326.81 351.58L327.04 351.28L327.25 350.96L327.45 350.64L327.64 350.31L498.93 37.45L499.1 37.11L499.27 36.77L499.41 36.42L499.55 36.07L499.66 35.71L499.77 35.36L499.85 35L499.93 34.64L499.98 34.28L500.03 33.91L500.06 33.55L500.07 33.19L500.07 32.83L500.06 32.47L500.03 32.11L499.99 31.75L499.94 31.4L499.87 31.05L499.79 30.7L499.7 30.35L499.59 30.01L499.47 29.67L499.34 29.34L499.19 29.01L499.03 28.69L498.86 28.37L498.68 28.06L498.48 27.76L498.28 27.46L498.06 27.17L497.82 26.89L497.58 26.62L497.33 26.35L497.06 26.1L496.78 25.85L496.49 25.62L496.19 25.39L495.88 25.18L495.55 24.97L495.22 24.78L288.71 -88.28L288.37 -88.46L288.02 -88.62L287.67 -88.77L287.32 -88.9L286.97 -89.02L286.61 -89.12L286.25 -89.21L285.89 -89.28L285.53 -89.34L285.17 -89.38L284.81 -89.41L284.44 -89.43L284.08 -89.43L283.72 -89.42L283.36 -89.39Z" id="d2aX8BlCfL"/>
		<path d="M214.28 339.37C208.35 350.19 194.75 354.17 183.92 348.24C173.1 342.31 169.12 328.71 175.05 317.89C180.98 307.06 194.58 303.09 205.4 309.01C216.23 314.94 220.21 328.54 214.28 339.37Z" id="c9ATc8gPw"/>
		<path d="M-164.05 6.07L-162.58 6.19L-161.12 6.37L-159.66 6.61L-158.2 6.9L-156.75 7.25L-155.31 7.67L-153.87 8.14L-152.45 8.68L-151.04 9.27L-149.64 9.93L-148.26 10.65L61.85 125.68L63.2 126.46L64.51 127.28L65.77 128.15L66.99 129.06L68.16 130.01L69.28 131L70.36 132.03L71.4 133.1L72.38 134.21L73.32 135.34L74.21 136.51L75.05 137.71L75.84 138.94L76.58 140.2L77.27 141.48L77.91 142.78L78.5 144.11L79.04 145.46L79.53 146.82L79.96 148.21L80.34 149.61L80.67 151.02L80.94 152.44L81.16 153.88L81.32 155.32L81.43 156.78L81.48 158.23L81.48 159.69L81.41 161.16L81.3 162.62L81.12 164.09L80.88 165.55L80.59 167L80.23 168.45L79.82 169.9L79.35 171.33L78.81 172.75L78.22 174.16L77.56 175.56L76.84 176.94L-117.79 532.44L-118.57 533.79L-119.39 535.1L-120.26 536.36L-121.17 537.58L-122.12 538.75L-123.11 539.88L-124.15 540.96L-125.21 541.99L-126.32 542.98L-127.46 543.91L-128.62 544.8L-129.82 545.64L-131.05 546.43L-132.31 547.18L-133.59 547.87L-134.89 548.51L-136.22 549.1L-137.57 549.64L-138.94 550.12L-140.32 550.56L-141.72 550.94L-143.13 551.26L-144.55 551.53L-145.99 551.75L-147.44 551.92L-148.89 552.02L-150.34 552.08L-151.81 552.07L-153.27 552.01L-154.73 551.89L-156.2 551.71L-157.66 551.48L-159.11 551.18L-160.56 550.83L-162.01 550.42L-163.44 549.94L-164.86 549.41L-166.28 548.81L-167.67 548.15L-169.05 547.43L-379.17 432.4L-380.52 431.62L-381.82 430.8L-383.08 429.94L-384.3 429.02L-385.47 428.07L-386.6 427.08L-387.68 426.05L-388.71 424.98L-389.7 423.88L-390.63 422.74L-391.52 421.57L-392.36 420.37L-393.15 419.14L-393.9 417.88L-394.59 416.6L-395.23 415.3L-395.82 413.97L-396.36 412.62L-396.84 411.26L-397.28 409.87L-397.66 408.48L-397.98 407.06L-398.26 405.64L-398.47 404.2L-398.64 402.76L-398.74 401.31L-398.8 399.85L-398.79 398.39L-398.73 396.92L-398.61 395.46L-398.43 394L-398.2 392.54L-397.9 391.08L-397.55 389.63L-397.14 388.19L-396.66 386.75L-396.13 385.33L-395.53 383.92L-394.87 382.52L-394.15 381.14L-199.52 25.64L-198.75 24.29L-197.92 22.98L-197.06 21.72L-196.15 20.5L-195.19 19.33L-194.2 18.2L-193.17 17.13L-192.1 16.09L-191 15.11L-189.86 14.17L-188.69 13.28L-187.49 12.44L-186.26 11.65L-185.01 10.91L-183.73 10.21L-182.42 9.57L-181.09 8.98L-179.75 8.45L-178.38 7.96L-177 7.53L-175.6 7.15L-174.19 6.82L-172.76 6.55L-171.32 6.33L-169.88 6.17L-168.43 6.06L-166.97 6.01L-165.51 6.01L-164.05 6.07ZM-166.94 38.17L-167.3 38.21L-167.65 38.26L-168 38.33L-168.35 38.41L-168.7 38.5L-169.04 38.61L-169.38 38.73L-169.71 38.86L-170.04 39.01L-170.36 39.17L-170.68 39.34L-170.99 39.52L-171.29 39.72L-171.59 39.92L-171.88 40.14L-172.16 40.38L-172.43 40.62L-172.7 40.87L-172.95 41.14L-173.2 41.42L-173.43 41.71L-173.66 42.01L-173.87 42.32L-174.08 42.65L-174.27 42.98L-345.55 355.83L-345.73 356.17L-345.89 356.52L-346.04 356.87L-346.17 357.22L-346.29 357.57L-346.39 357.93L-346.48 358.29L-346.55 358.65L-346.61 359.01L-346.65 359.37L-346.68 359.73L-346.7 360.1L-346.7 360.46L-346.68 360.82L-346.66 361.18L-346.62 361.53L-346.56 361.89L-346.5 362.24L-346.42 362.59L-346.32 362.94L-346.21 363.28L-346.09 363.62L-345.96 363.95L-345.82 364.28L-345.66 364.6L-345.49 364.92L-345.3 365.23L-345.11 365.53L-344.9 365.83L-344.68 366.12L-344.45 366.4L-344.2 366.67L-343.95 366.93L-343.68 367.19L-343.4 367.43L-343.11 367.67L-342.81 367.89L-342.5 368.11L-342.18 368.31L-341.84 368.5L-135.33 481.57L-134.99 481.74L-134.64 481.91L-134.3 482.05L-133.94 482.19L-133.59 482.3L-133.23 482.41L-132.87 482.49L-132.51 482.57L-132.15 482.62L-131.79 482.67L-131.43 482.7L-131.07 482.71L-130.71 482.71L-130.35 482.7L-129.99 482.68L-129.63 482.63L-129.27 482.58L-128.92 482.51L-128.57 482.43L-128.23 482.34L-127.88 482.23L-127.55 482.11L-127.21 481.98L-126.89 481.83L-126.56 481.67L-126.25 481.5L-125.94 481.32L-125.63 481.12L-125.34 480.92L-125.05 480.7L-124.77 480.46L-124.49 480.22L-124.23 479.97L-123.97 479.7L-123.73 479.42L-123.49 479.13L-123.27 478.83L-123.05 478.52L-122.85 478.2L-122.66 477.86L48.62 165.01L48.8 164.67L48.96 164.32L49.11 163.97L49.24 163.62L49.36 163.27L49.46 162.91L49.55 162.55L49.62 162.19L49.68 161.83L49.73 161.47L49.75 161.11L49.77 160.75L49.77 160.38L49.76 160.02L49.73 159.66L49.69 159.31L49.64 158.95L49.57 158.6L49.49 158.25L49.4 157.91L49.29 157.56L49.17 157.23L49.04 156.89L48.89 156.56L48.73 156.24L48.56 155.93L48.38 155.61L48.18 155.31L47.97 155.01L47.75 154.73L47.52 154.44L47.28 154.17L47.02 153.91L46.76 153.65L46.48 153.41L46.19 153.17L45.89 152.95L45.57 152.73L45.25 152.53L44.92 152.34L-161.6 39.27L-161.94 39.1L-162.28 38.93L-162.63 38.79L-162.98 38.65L-163.34 38.54L-163.69 38.43L-164.05 38.35L-164.41 38.27L-164.77 38.22L-165.14 38.17L-165.5 38.14L-165.86 38.13L-166.22 38.13L-166.58 38.14L-166.94 38.17Z" id="aj1ALM9NI"/>
		<path d="M-236.02 466.92C-241.95 477.75 -255.55 481.72 -266.38 475.8C-277.2 469.87 -281.18 456.27 -275.25 445.44C-269.33 434.62 -255.73 430.64 -244.9 436.57C-234.07 442.49 -230.1 456.09 -236.02 466.92Z" id="d2zSMlSLm5"/>
		<path d="M76.09 -432.71L77.56 -432.59L79.02 -432.42L80.48 -432.18L81.94 -431.89L83.39 -431.53L84.83 -431.12L86.27 -430.65L87.69 -430.11L89.1 -429.52L90.49 -428.86L91.88 -428.14L301.99 -313.1L303.34 -312.33L304.65 -311.51L305.91 -310.64L307.12 -309.73L308.3 -308.78L309.42 -307.78L310.5 -306.75L311.53 -305.68L312.52 -304.58L313.46 -303.44L314.35 -302.27L315.19 -301.07L315.98 -299.85L316.72 -298.59L317.41 -297.31L318.05 -296L318.64 -294.68L319.18 -293.33L319.67 -291.96L320.1 -290.58L320.48 -289.18L320.81 -287.77L321.08 -286.34L321.3 -284.91L321.46 -283.46L321.57 -282.01L321.62 -280.55L321.61 -279.09L321.55 -277.63L321.43 -276.16L321.26 -274.7L321.02 -273.24L320.73 -271.78L320.37 -270.33L319.96 -268.89L319.49 -267.46L318.95 -266.03L318.36 -264.62L317.7 -263.23L316.98 -261.85L122.35 93.66L121.57 95.01L120.75 96.31L119.88 97.58L118.97 98.79L118.02 99.96L117.02 101.09L115.99 102.17L114.92 103.2L113.82 104.19L112.68 105.13L111.51 106.01L110.31 106.86L109.09 107.65L107.83 108.39L106.55 109.08L105.24 109.72L103.92 110.31L102.57 110.85L101.2 111.33L99.82 111.77L98.42 112.15L97.01 112.47L95.58 112.75L94.15 112.97L92.7 113.13L91.25 113.24L89.79 113.29L88.33 113.28L86.87 113.22L85.4 113.1L83.94 112.92L82.48 112.69L81.02 112.4L79.57 112.04L78.13 111.63L76.7 111.15L75.27 110.62L73.86 110.02L72.47 109.37L71.09 108.65L-139.03 -6.39L-140.38 -7.16L-141.68 -7.99L-142.95 -8.85L-144.16 -9.76L-145.33 -10.72L-146.46 -11.71L-147.54 -12.74L-148.57 -13.81L-149.56 -14.91L-150.5 -16.05L-151.38 -17.22L-152.23 -18.42L-153.02 -19.65L-153.76 -20.9L-154.45 -22.18L-155.09 -23.49L-155.68 -24.82L-156.22 -26.16L-156.7 -27.53L-157.14 -28.91L-157.52 -30.31L-157.84 -31.72L-158.12 -33.15L-158.34 -34.59L-158.5 -36.03L-158.61 -37.48L-158.66 -38.94L-158.65 -40.4L-158.59 -41.86L-158.47 -43.33L-158.29 -44.79L-158.06 -46.25L-157.76 -47.71L-157.41 -49.16L-157 -50.6L-156.52 -52.04L-155.99 -53.46L-155.39 -54.87L-154.74 -56.27L-154.02 -57.65L40.62 -413.15L41.39 -414.5L42.21 -415.81L43.08 -417.07L43.99 -418.29L44.94 -419.46L45.94 -420.58L46.97 -421.66L48.04 -422.7L49.14 -423.68L50.28 -424.62L51.45 -425.51L52.65 -426.35L53.88 -427.14L55.13 -427.88L56.41 -428.57L57.72 -429.21L59.04 -429.8L60.39 -430.34L61.76 -430.83L63.14 -431.26L64.54 -431.64L65.95 -431.97L67.38 -432.24L68.81 -432.46L70.26 -432.62L71.71 -432.73L73.17 -432.78L74.63 -432.78L76.09 -432.71ZM73.2 -400.62L72.84 -400.58L72.49 -400.53L72.13 -400.46L71.79 -400.38L71.44 -400.29L71.1 -400.18L70.76 -400.06L70.43 -399.93L70.1 -399.78L69.78 -399.62L69.46 -399.45L69.15 -399.27L68.85 -399.07L68.55 -398.86L68.26 -398.64L67.98 -398.41L67.71 -398.17L67.44 -397.91L67.19 -397.65L66.94 -397.37L66.71 -397.08L66.48 -396.78L66.27 -396.46L66.06 -396.14L65.87 -395.81L-105.41 -82.96L-105.59 -82.61L-105.75 -82.27L-105.9 -81.92L-106.03 -81.57L-106.15 -81.21L-106.25 -80.86L-106.34 -80.5L-106.41 -80.14L-106.47 -79.78L-106.51 -79.42L-106.54 -79.05L-106.56 -78.69L-106.56 -78.33L-106.55 -77.97L-106.52 -77.61L-106.48 -77.25L-106.42 -76.9L-106.36 -76.55L-106.28 -76.2L-106.18 -75.85L-106.08 -75.51L-105.96 -75.17L-105.82 -74.84L-105.68 -74.51L-105.52 -74.19L-105.35 -73.87L-105.16 -73.56L-104.97 -73.26L-104.76 -72.96L-104.54 -72.67L-104.31 -72.39L-104.07 -72.12L-103.81 -71.85L-103.54 -71.6L-103.26 -71.35L-102.98 -71.12L-102.67 -70.89L-102.36 -70.68L-102.04 -70.48L-101.71 -70.28L104.81 42.78L105.15 42.96L105.49 43.12L105.84 43.27L106.2 43.4L106.55 43.52L106.91 43.62L107.26 43.71L107.62 43.78L107.99 43.84L108.35 43.88L108.71 43.91L109.07 43.93L109.43 43.93L109.79 43.91L110.15 43.89L110.51 43.85L110.86 43.79L111.22 43.73L111.57 43.65L111.91 43.55L112.25 43.44L112.59 43.32L112.92 43.19L113.25 43.05L113.57 42.89L113.89 42.72L114.2 42.53L114.51 42.34L114.8 42.13L115.09 41.91L115.37 41.68L115.65 41.43L115.91 41.18L116.16 40.91L116.41 40.63L116.65 40.34L116.87 40.04L117.09 39.73L117.29 39.41L117.48 39.07L288.76 -273.78L288.94 -274.12L289.1 -274.47L289.25 -274.81L289.38 -275.17L289.5 -275.52L289.6 -275.88L289.69 -276.24L289.76 -276.6L289.82 -276.96L289.86 -277.32L289.89 -277.68L289.91 -278.04L289.91 -278.4L289.9 -278.76L289.87 -279.12L289.83 -279.48L289.78 -279.83L289.71 -280.19L289.63 -280.54L289.53 -280.88L289.43 -281.22L289.31 -281.56L289.17 -281.89L289.03 -282.22L288.87 -282.55L288.7 -282.86L288.52 -283.17L288.32 -283.48L288.11 -283.77L287.89 -284.06L287.66 -284.34L287.42 -284.62L287.16 -284.88L286.89 -285.14L286.62 -285.38L286.33 -285.62L286.03 -285.84L285.71 -286.06L285.39 -286.26L285.06 -286.45L78.54 -399.51L78.2 -399.69L77.86 -399.85L77.51 -400L77.16 -400.13L76.8 -400.25L76.44 -400.35L76.09 -400.44L75.73 -400.51L75.36 -400.57L75 -400.62L74.64 -400.64L74.28 -400.66L73.92 -400.66L73.56 -400.65L73.2 -400.62Z" id="dBSLxVkhK"/>
		<path d="M4.11 28.13C-1.81 38.96 -15.41 42.94 -26.24 37.01C-37.06 31.08 -41.04 17.48 -35.12 6.66C-29.19 -4.17 -15.59 -8.15 -4.76 -2.22C6.06 3.71 10.04 17.31 4.11 28.13Z" id="diK4HaPhq"/>
		<path d="M245.3 656.54L246.76 656.66L248.22 656.83L249.68 657.07L251.14 657.36L252.59 657.72L254.03 658.13L255.47 658.6L256.89 659.14L258.3 659.73L259.7 660.39L261.08 661.11L471.19 776.15L472.54 776.92L473.85 777.74L475.11 778.61L476.33 779.52L477.5 780.47L478.62 781.47L479.7 782.5L480.74 783.57L481.72 784.67L482.66 785.81L483.55 786.98L484.39 788.18L485.18 789.4L485.92 790.66L486.61 791.94L487.25 793.25L487.84 794.57L488.38 795.92L488.87 797.29L489.3 798.67L489.68 800.07L490.01 801.48L490.28 802.91L490.5 804.34L490.66 805.79L490.77 807.24L490.82 808.7L490.82 810.16L490.76 811.62L490.64 813.09L490.46 814.55L490.22 816.01L489.93 817.47L489.58 818.92L489.16 820.36L488.69 821.79L488.15 823.22L487.56 824.63L486.9 826.02L486.18 827.4L291.55 1182.91L290.77 1184.26L289.95 1185.56L289.08 1186.83L288.17 1188.04L287.22 1189.21L286.23 1190.34L285.2 1191.42L284.13 1192.45L283.02 1193.44L281.89 1194.38L280.72 1195.26L279.52 1196.11L278.29 1196.9L277.03 1197.64L275.75 1198.33L274.45 1198.97L273.12 1199.56L271.77 1200.1L270.41 1200.58L269.02 1201.02L267.62 1201.4L266.21 1201.72L264.79 1202L263.35 1202.22L261.91 1202.38L260.45 1202.49L259 1202.54L257.54 1202.53L256.07 1202.47L254.61 1202.35L253.14 1202.17L251.68 1201.94L250.23 1201.64L248.78 1201.29L247.33 1200.88L245.9 1200.4L244.48 1199.87L243.07 1199.27L241.67 1198.62L240.29 1197.9L30.18 1082.86L28.83 1082.09L27.52 1081.26L26.26 1080.4L25.04 1079.49L23.87 1078.53L22.74 1077.54L21.66 1076.51L20.63 1075.44L19.64 1074.34L18.71 1073.2L17.82 1072.03L16.98 1070.83L16.19 1069.6L15.44 1068.35L14.75 1067.07L14.11 1065.76L13.52 1064.43L12.98 1063.09L12.5 1061.72L12.06 1060.34L11.68 1058.94L11.36 1057.53L11.09 1056.1L10.87 1054.66L10.7 1053.22L10.6 1051.77L10.54 1050.31L10.55 1048.85L10.61 1047.39L10.73 1045.92L10.91 1044.46L11.14 1043L11.44 1041.54L11.79 1040.09L12.2 1038.65L12.68 1037.21L13.21 1035.79L13.81 1034.38L14.47 1032.98L15.19 1031.6L209.82 676.1L210.59 674.75L211.42 673.44L212.28 672.18L213.19 670.96L214.15 669.79L215.14 668.67L216.17 667.59L217.24 666.55L218.34 665.57L219.48 664.63L220.65 663.74L221.85 662.9L223.08 662.11L224.33 661.37L225.62 660.68L226.92 660.04L228.25 659.45L229.59 658.91L230.96 658.42L232.34 657.99L233.74 657.61L235.16 657.28L236.58 657.01L238.02 656.79L239.46 656.63L240.91 656.52L242.37 656.47L243.83 656.47L245.3 656.54ZM242.4 688.63L242.04 688.67L241.69 688.72L241.34 688.79L240.99 688.87L240.64 688.96L240.3 689.07L239.96 689.19L239.63 689.32L239.3 689.47L238.98 689.63L238.66 689.8L238.35 689.98L238.05 690.18L237.75 690.39L237.46 690.61L237.18 690.84L236.91 691.08L236.64 691.34L236.39 691.6L236.14 691.88L235.91 692.17L235.68 692.47L235.47 692.78L235.27 693.11L235.07 693.44L63.79 1006.29L63.61 1006.64L63.45 1006.98L63.3 1007.33L63.17 1007.68L63.05 1008.04L62.95 1008.39L62.86 1008.75L62.79 1009.11L62.73 1009.47L62.69 1009.83L62.66 1010.2L62.65 1010.56L62.64 1010.92L62.66 1011.28L62.68 1011.64L62.72 1012L62.78 1012.35L62.84 1012.7L62.93 1013.05L63.02 1013.4L63.13 1013.74L63.25 1014.08L63.38 1014.41L63.53 1014.74L63.68 1015.06L63.86 1015.38L64.04 1015.69L64.23 1015.99L64.44 1016.29L64.66 1016.58L64.89 1016.86L65.14 1017.13L65.39 1017.4L65.66 1017.65L65.94 1017.9L66.23 1018.13L66.53 1018.36L66.84 1018.57L67.16 1018.77L67.5 1018.97L274.01 1132.03L274.35 1132.21L274.7 1132.37L275.05 1132.52L275.4 1132.65L275.75 1132.77L276.11 1132.87L276.47 1132.96L276.83 1133.03L277.19 1133.09L277.55 1133.13L277.91 1133.16L278.27 1133.18L278.64 1133.18L279 1133.16L279.35 1133.14L279.71 1133.1L280.07 1133.04L280.42 1132.98L280.77 1132.9L281.11 1132.8L281.46 1132.69L281.79 1132.57L282.13 1132.44L282.45 1132.29L282.78 1132.14L283.09 1131.97L283.4 1131.78L283.71 1131.59L284 1131.38L284.29 1131.16L284.58 1130.93L284.85 1130.68L285.11 1130.43L285.37 1130.16L285.61 1129.88L285.85 1129.59L286.07 1129.29L286.29 1128.98L286.49 1128.66L286.68 1128.32L457.96 815.47L458.14 815.13L458.31 814.78L458.45 814.44L458.58 814.08L458.7 813.73L458.8 813.37L458.89 813.01L458.96 812.65L459.02 812.29L459.07 811.93L459.1 811.57L459.11 811.21L459.11 810.85L459.1 810.49L459.07 810.13L459.03 809.77L458.98 809.42L458.91 809.06L458.83 808.71L458.74 808.37L458.63 808.03L458.51 807.69L458.38 807.35L458.23 807.03L458.07 806.7L457.9 806.39L457.72 806.08L457.52 805.77L457.31 805.48L457.09 805.19L456.86 804.91L456.62 804.63L456.36 804.37L456.1 804.11L455.82 803.87L455.53 803.63L455.23 803.41L454.92 803.19L454.59 802.99L454.26 802.8L247.75 689.74L247.4 689.56L247.06 689.4L246.71 689.25L246.36 689.12L246 689L245.65 688.9L245.29 688.81L244.93 688.74L244.57 688.68L244.21 688.63L243.84 688.61L243.48 688.59L243.12 688.59L242.76 688.6L242.4 688.63Z" id="c2FoTbqwd"/>
		<path d="M173.32 1117.38C167.39 1128.21 153.79 1132.19 142.96 1126.26C132.14 1120.33 128.16 1106.73 134.09 1095.91C140.01 1085.08 153.61 1081.1 164.44 1087.03C175.27 1092.96 179.24 1106.56 173.32 1117.38Z" id="c3td0cwwh8"/>
		<path d="M1375.05 692.53L1376.52 692.65L1377.98 692.83L1379.44 693.06L1380.9 693.36L1382.35 693.71L1383.79 694.13L1385.22 694.6L1386.65 695.13L1388.06 695.73L1389.45 696.39L1390.83 697.11L1600.95 812.14L1602.3 812.92L1603.6 813.74L1604.87 814.61L1606.08 815.52L1607.26 816.47L1608.38 817.46L1609.46 818.49L1610.49 819.56L1611.48 820.67L1612.42 821.8L1613.31 822.97L1614.15 824.17L1614.94 825.4L1615.68 826.66L1616.37 827.94L1617.01 829.24L1617.6 830.57L1618.14 831.92L1618.62 833.28L1619.06 834.67L1619.44 836.07L1619.77 837.48L1620.04 838.9L1620.26 840.34L1620.42 841.78L1620.53 843.23L1620.58 844.69L1620.57 846.15L1620.51 847.62L1620.39 849.08L1620.22 850.54L1619.98 852.01L1619.69 853.46L1619.33 854.91L1618.92 856.36L1618.44 857.79L1617.91 859.21L1617.31 860.62L1616.66 862.02L1615.94 863.4L1421.3 1218.9L1420.53 1220.25L1419.71 1221.56L1418.84 1222.82L1417.93 1224.04L1416.98 1225.21L1415.98 1226.34L1414.95 1227.42L1413.88 1228.45L1412.78 1229.43L1411.64 1230.37L1410.47 1231.26L1409.27 1232.1L1408.04 1232.89L1406.79 1233.63L1405.51 1234.33L1404.2 1234.97L1402.88 1235.56L1401.53 1236.09L1400.16 1236.58L1398.78 1237.01L1397.38 1237.39L1395.97 1237.72L1394.54 1237.99L1393.11 1238.21L1391.66 1238.37L1390.21 1238.48L1388.75 1238.53L1387.29 1238.53L1385.83 1238.47L1384.36 1238.35L1382.9 1238.17L1381.44 1237.94L1379.98 1237.64L1378.53 1237.29L1377.09 1236.87L1375.66 1236.4L1374.23 1235.87L1372.82 1235.27L1371.43 1234.61L1370.05 1233.89L1159.93 1118.86L1158.58 1118.08L1157.28 1117.26L1156.01 1116.39L1154.8 1115.48L1153.62 1114.53L1152.5 1113.54L1151.42 1112.51L1150.39 1111.44L1149.4 1110.33L1148.46 1109.2L1147.57 1108.03L1146.73 1106.83L1145.94 1105.6L1145.2 1104.34L1144.51 1103.06L1143.87 1101.76L1143.28 1100.43L1142.74 1099.08L1142.25 1097.72L1141.82 1096.33L1141.44 1094.93L1141.11 1093.52L1140.84 1092.1L1140.62 1090.66L1140.46 1089.22L1140.35 1087.76L1140.3 1086.31L1140.31 1084.85L1140.37 1083.38L1140.49 1081.92L1140.66 1080.45L1140.9 1078.99L1141.19 1077.54L1141.55 1076.09L1141.96 1074.64L1142.43 1073.21L1142.97 1071.79L1143.57 1070.38L1144.22 1068.98L1144.94 1067.6L1339.58 712.1L1340.35 710.75L1341.17 709.44L1342.04 708.18L1342.95 706.96L1343.9 705.79L1344.9 704.66L1345.93 703.58L1347 702.55L1348.1 701.57L1349.24 700.63L1350.41 699.74L1351.61 698.9L1352.84 698.11L1354.09 697.37L1355.37 696.67L1356.68 696.03L1358 695.44L1359.35 694.91L1360.72 694.42L1362.1 693.99L1363.5 693.61L1364.91 693.28L1366.34 693.01L1367.77 692.79L1369.22 692.63L1370.67 692.52L1372.13 692.47L1373.59 692.47L1375.05 692.53ZM1372.16 724.62L1371.8 724.66L1371.45 724.72L1371.09 724.79L1370.74 724.87L1370.4 724.96L1370.06 725.07L1369.72 725.19L1369.39 725.32L1369.06 725.47L1368.74 725.63L1368.42 725.8L1368.11 725.98L1367.8 726.18L1367.51 726.38L1367.22 726.6L1366.94 726.83L1366.66 727.08L1366.4 727.33L1366.15 727.6L1365.9 727.88L1365.66 728.17L1365.44 728.47L1365.22 728.78L1365.02 729.1L1364.83 729.44L1193.55 1042.29L1193.37 1042.63L1193.21 1042.98L1193.06 1043.33L1192.93 1043.68L1192.81 1044.03L1192.71 1044.39L1192.62 1044.75L1192.55 1045.11L1192.49 1045.47L1192.45 1045.83L1192.42 1046.19L1192.4 1046.55L1192.4 1046.92L1192.41 1047.28L1192.44 1047.63L1192.48 1047.99L1192.53 1048.35L1192.6 1048.7L1192.68 1049.05L1192.78 1049.39L1192.88 1049.74L1193 1050.07L1193.14 1050.41L1193.28 1050.73L1193.44 1051.06L1193.61 1051.37L1193.79 1051.68L1193.99 1051.99L1194.2 1052.28L1194.42 1052.57L1194.65 1052.86L1194.89 1053.13L1195.15 1053.39L1195.42 1053.65L1195.69 1053.89L1195.98 1054.13L1196.28 1054.35L1196.6 1054.57L1196.92 1054.77L1197.25 1054.96L1403.77 1168.03L1404.11 1168.2L1404.45 1168.37L1404.8 1168.51L1405.15 1168.65L1405.51 1168.76L1405.87 1168.87L1406.22 1168.95L1406.58 1169.03L1406.94 1169.08L1407.31 1169.13L1407.67 1169.16L1408.03 1169.17L1408.39 1169.17L1408.75 1169.16L1409.11 1169.13L1409.47 1169.09L1409.82 1169.04L1410.18 1168.97L1410.52 1168.89L1410.87 1168.8L1411.21 1168.69L1411.55 1168.57L1411.88 1168.44L1412.21 1168.29L1412.53 1168.13L1412.85 1167.96L1413.16 1167.78L1413.46 1167.58L1413.76 1167.38L1414.05 1167.16L1414.33 1166.92L1414.6 1166.68L1414.87 1166.42L1415.12 1166.16L1415.37 1165.88L1415.6 1165.59L1415.83 1165.29L1416.04 1164.98L1416.25 1164.65L1416.44 1164.32L1587.72 851.47L1587.9 851.13L1588.06 850.78L1588.21 850.43L1588.34 850.08L1588.46 849.73L1588.56 849.37L1588.65 849.01L1588.72 848.65L1588.78 848.29L1588.82 847.93L1588.85 847.57L1588.87 847.2L1588.87 846.84L1588.86 846.48L1588.83 846.12L1588.79 845.77L1588.73 845.41L1588.67 845.06L1588.59 844.71L1588.49 844.36L1588.39 844.02L1588.27 843.68L1588.13 843.35L1587.99 843.02L1587.83 842.7L1587.66 842.38L1587.47 842.07L1587.28 841.77L1587.07 841.47L1586.85 841.18L1586.62 840.9L1586.38 840.63L1586.12 840.37L1585.85 840.11L1585.57 839.87L1585.29 839.63L1584.98 839.4L1584.67 839.19L1584.35 838.99L1584.02 838.8L1377.5 725.73L1377.16 725.55L1376.82 725.39L1376.47 725.24L1376.11 725.11L1375.76 725L1375.4 724.89L1375.05 724.81L1374.69 724.73L1374.32 724.67L1373.96 724.63L1373.6 724.6L1373.24 724.59L1372.88 724.58L1372.52 724.6L1372.16 724.62Z" id="c22ITko2u5"/>
		<path d="M1303.07 1153.38C1297.15 1164.2 1283.55 1168.18 1272.72 1162.25C1261.89 1156.33 1257.92 1142.73 1263.84 1131.9C1269.77 1121.08 1283.37 1117.1 1294.2 1123.03C1305.02 1128.95 1309 1142.55 1303.07 1153.38Z" id="dEr7jMWUX"/>
		<path d="M1615.19 253.74L1616.65 253.86L1618.12 254.04L1619.58 254.28L1621.04 254.57L1622.49 254.92L1623.93 255.34L1625.36 255.81L1626.79 256.35L1628.2 256.94L1629.59 257.6L1630.97 258.32L1841.09 373.35L1842.44 374.13L1843.74 374.95L1845 375.82L1846.22 376.73L1847.39 377.68L1848.52 378.67L1849.6 379.71L1850.63 380.77L1851.62 381.88L1852.55 383.02L1853.44 384.19L1854.28 385.39L1855.08 386.61L1855.82 387.87L1856.51 389.15L1857.15 390.46L1857.74 391.78L1858.28 393.13L1858.76 394.5L1859.2 395.88L1859.58 397.28L1859.9 398.69L1860.18 400.12L1860.39 401.55L1860.56 403L1860.67 404.45L1860.72 405.9L1860.71 407.37L1860.65 408.83L1860.53 410.29L1860.35 411.76L1860.12 413.22L1859.82 414.67L1859.47 416.13L1859.06 417.57L1858.58 419L1858.05 420.43L1857.45 421.84L1856.8 423.23L1856.08 424.61L1661.44 780.12L1660.67 781.47L1659.85 782.77L1658.98 784.03L1658.07 785.25L1657.11 786.42L1656.12 787.55L1655.09 788.63L1654.02 789.66L1652.92 790.65L1651.78 791.58L1650.61 792.47L1649.41 793.31L1648.18 794.11L1646.93 794.85L1645.65 795.54L1644.34 796.18L1643.01 796.77L1641.67 797.31L1640.3 797.79L1638.92 798.23L1637.52 798.61L1636.11 798.93L1634.68 799.21L1633.25 799.42L1631.8 799.59L1630.35 799.69L1628.89 799.75L1627.43 799.74L1625.97 799.68L1624.5 799.56L1623.04 799.38L1621.58 799.15L1620.12 798.85L1618.67 798.5L1617.23 798.09L1615.79 797.61L1614.37 797.08L1612.96 796.48L1611.56 795.82L1610.18 795.1L1400.07 680.07L1398.72 679.3L1397.41 678.47L1396.15 677.61L1394.93 676.7L1393.76 675.74L1392.64 674.75L1391.56 673.72L1390.53 672.65L1389.54 671.55L1388.6 670.41L1387.71 669.24L1386.87 668.04L1386.08 666.81L1385.34 665.56L1384.65 664.27L1384.01 662.97L1383.42 661.64L1382.88 660.3L1382.39 658.93L1381.96 657.55L1381.58 656.15L1381.25 654.73L1380.98 653.31L1380.76 651.87L1380.6 650.43L1380.49 648.98L1380.44 647.52L1380.44 646.06L1380.51 644.6L1380.63 643.13L1380.8 641.67L1381.04 640.21L1381.33 638.75L1381.69 637.3L1382.1 635.86L1382.57 634.42L1383.11 633L1383.7 631.59L1384.36 630.19L1385.08 628.81L1579.71 273.31L1580.49 271.96L1581.31 270.65L1582.18 269.39L1583.09 268.17L1584.04 267L1585.03 265.88L1586.07 264.8L1587.13 263.76L1588.24 262.78L1589.38 261.84L1590.55 260.95L1591.75 260.11L1592.97 259.32L1594.23 258.58L1595.51 257.89L1596.82 257.25L1598.14 256.66L1599.49 256.12L1600.86 255.63L1602.24 255.2L1603.64 254.82L1605.05 254.49L1606.48 254.22L1607.91 254L1609.36 253.84L1610.81 253.73L1612.26 253.68L1613.73 253.68L1615.19 253.74ZM1612.3 285.84L1611.94 285.88L1611.58 285.93L1611.23 286L1610.88 286.08L1610.54 286.17L1610.19 286.28L1609.86 286.4L1609.52 286.53L1609.2 286.68L1608.87 286.84L1608.56 287.01L1608.25 287.19L1607.94 287.39L1607.65 287.6L1607.36 287.82L1607.08 288.05L1606.8 288.29L1606.54 288.55L1606.28 288.81L1606.04 289.09L1605.8 289.38L1605.58 289.68L1605.36 289.99L1605.16 290.32L1604.97 290.65L1433.69 603.5L1433.51 603.84L1433.35 604.19L1433.2 604.54L1433.07 604.89L1432.95 605.24L1432.85 605.6L1432.76 605.96L1432.69 606.32L1432.63 606.68L1432.58 607.04L1432.56 607.4L1432.54 607.77L1432.54 608.13L1432.55 608.49L1432.58 608.85L1432.62 609.2L1432.67 609.56L1432.74 609.91L1432.82 610.26L1432.91 610.61L1433.02 610.95L1433.14 611.29L1433.27 611.62L1433.42 611.95L1433.58 612.27L1433.75 612.59L1433.93 612.9L1434.13 613.2L1434.34 613.5L1434.56 613.79L1434.79 614.07L1435.03 614.34L1435.29 614.6L1435.55 614.86L1435.83 615.11L1436.12 615.34L1436.42 615.57L1436.74 615.78L1437.06 615.98L1437.39 616.18L1643.91 729.24L1644.25 729.42L1644.59 729.58L1644.94 729.73L1645.29 729.86L1645.65 729.98L1646 730.08L1646.36 730.17L1646.72 730.24L1647.08 730.3L1647.45 730.34L1647.81 730.37L1648.17 730.38L1648.53 730.39L1648.89 730.37L1649.25 730.35L1649.61 730.31L1649.96 730.25L1650.31 730.18L1650.66 730.1L1651.01 730.01L1651.35 729.9L1651.69 729.78L1652.02 729.65L1652.35 729.5L1652.67 729.35L1652.99 729.17L1653.3 728.99L1653.6 728.8L1653.9 728.59L1654.19 728.37L1654.47 728.14L1654.74 727.89L1655.01 727.64L1655.26 727.37L1655.51 727.09L1655.74 726.8L1655.97 726.5L1656.18 726.19L1656.39 725.87L1656.58 725.53L1827.86 412.68L1828.04 412.34L1828.2 411.99L1828.35 411.64L1828.48 411.29L1828.6 410.94L1828.7 410.58L1828.79 410.22L1828.86 409.86L1828.92 409.5L1828.96 409.14L1828.99 408.78L1829.01 408.42L1829.01 408.06L1828.99 407.69L1828.97 407.34L1828.93 406.98L1828.87 406.62L1828.81 406.27L1828.73 405.92L1828.63 405.58L1828.52 405.23L1828.4 404.9L1828.27 404.56L1828.13 404.24L1827.97 403.91L1827.8 403.6L1827.61 403.29L1827.42 402.98L1827.21 402.69L1826.99 402.4L1826.76 402.12L1826.51 401.84L1826.26 401.58L1825.99 401.32L1825.71 401.08L1825.42 400.84L1825.12 400.62L1824.81 400.4L1824.49 400.2L1824.15 400.01L1617.64 286.94L1617.3 286.77L1616.95 286.6L1616.61 286.46L1616.25 286.32L1615.9 286.21L1615.54 286.11L1615.18 286.02L1614.82 285.95L1614.46 285.89L1614.1 285.84L1613.74 285.81L1613.38 285.8L1613.02 285.8L1612.66 285.81L1612.3 285.84Z" id="bcK0Ccu3a"/>
		<path d="M1543.21 714.59C1537.28 725.42 1523.68 729.39 1512.86 723.47C1502.03 717.54 1498.06 703.94 1503.98 693.11C1509.91 682.29 1523.51 678.31 1534.34 684.24C1545.16 690.16 1549.14 703.77 1543.21 714.59Z" id="b1f05dcXqA"/>
		<path d="M935.74 797.05L937.2 797.17L938.66 797.35L940.12 797.58L941.58 797.88L943.03 798.23L944.48 798.65L945.91 799.12L947.33 799.65L948.74 800.25L950.14 800.91L951.52 801.63L1161.63 916.66L1162.98 917.44L1164.29 918.26L1165.55 919.13L1166.77 920.04L1167.94 920.99L1169.07 921.98L1170.15 923.01L1171.18 924.08L1172.16 925.19L1173.1 926.32L1173.99 927.49L1174.83 928.69L1175.62 929.92L1176.36 931.18L1177.06 932.46L1177.7 933.76L1178.29 935.09L1178.82 936.44L1179.31 937.8L1179.74 939.19L1180.12 940.59L1180.45 942L1180.72 943.42L1180.94 944.86L1181.1 946.3L1181.21 947.76L1181.26 949.21L1181.26 950.67L1181.2 952.14L1181.08 953.6L1180.9 955.07L1180.67 956.53L1180.37 957.98L1180.02 959.43L1179.6 960.88L1179.13 962.31L1178.6 963.73L1178 965.14L1177.34 966.54L1176.62 967.92L981.99 1323.42L981.21 1324.77L980.39 1326.08L979.52 1327.34L978.61 1328.56L977.66 1329.73L976.67 1330.86L975.64 1331.94L974.57 1332.97L973.46 1333.95L972.33 1334.89L971.16 1335.78L969.96 1336.62L968.73 1337.41L967.47 1338.16L966.19 1338.85L964.89 1339.49L963.56 1340.08L962.21 1340.62L960.85 1341.1L959.46 1341.53L958.07 1341.91L956.65 1342.24L955.23 1342.51L953.79 1342.73L952.35 1342.9L950.9 1343L949.44 1343.05L947.98 1343.05L946.51 1342.99L945.05 1342.87L943.59 1342.69L942.12 1342.46L940.67 1342.16L939.22 1341.81L937.77 1341.39L936.34 1340.92L934.92 1340.39L933.51 1339.79L932.11 1339.13L930.73 1338.41L720.62 1223.38L719.27 1222.6L717.96 1221.78L716.7 1220.91L715.48 1220L714.31 1219.05L713.18 1218.06L712.1 1217.03L711.07 1215.96L710.09 1214.85L709.15 1213.72L708.26 1212.55L707.42 1211.35L706.63 1210.12L705.89 1208.86L705.19 1207.58L704.55 1206.28L703.96 1204.95L703.43 1203.6L702.94 1202.24L702.51 1200.85L702.13 1199.45L701.8 1198.04L701.53 1196.62L701.31 1195.18L701.15 1193.74L701.04 1192.29L700.99 1190.83L700.99 1189.37L701.05 1187.9L701.17 1186.44L701.35 1184.98L701.58 1183.51L701.88 1182.06L702.23 1180.61L702.65 1179.16L703.12 1177.73L703.65 1176.31L704.25 1174.9L704.91 1173.5L705.63 1172.12L900.26 816.62L901.04 815.27L901.86 813.96L902.73 812.7L903.64 811.48L904.59 810.31L905.58 809.18L906.61 808.1L907.68 807.07L908.79 806.09L909.92 805.15L911.09 804.26L912.29 803.42L913.52 802.63L914.78 801.89L916.06 801.19L917.36 800.55L918.69 799.96L920.04 799.43L921.4 798.94L922.79 798.51L924.18 798.13L925.6 797.8L927.02 797.53L928.46 797.31L929.9 797.15L931.35 797.04L932.81 796.99L934.27 796.99L935.74 797.05ZM932.84 829.14L932.49 829.19L932.13 829.24L931.78 829.31L931.43 829.39L931.08 829.48L930.74 829.59L930.4 829.71L930.07 829.84L929.74 829.99L929.42 830.15L929.1 830.32L928.79 830.5L928.49 830.7L928.19 830.9L927.9 831.12L927.62 831.36L927.35 831.6L927.09 831.85L926.83 832.12L926.58 832.4L926.35 832.69L926.12 832.99L925.91 833.3L925.71 833.62L925.51 833.96L754.23 1146.81L754.05 1147.15L753.89 1147.5L753.74 1147.85L753.61 1148.2L753.5 1148.55L753.39 1148.91L753.31 1149.27L753.23 1149.63L753.17 1149.99L753.13 1150.35L753.1 1150.71L753.09 1151.07L753.09 1151.44L753.1 1151.8L753.12 1152.16L753.16 1152.51L753.22 1152.87L753.29 1153.22L753.37 1153.57L753.46 1153.91L753.57 1154.26L753.69 1154.59L753.82 1154.93L753.97 1155.26L754.13 1155.58L754.3 1155.89L754.48 1156.21L754.68 1156.51L754.88 1156.81L755.1 1157.09L755.33 1157.38L755.58 1157.65L755.83 1157.91L756.1 1158.17L756.38 1158.41L756.67 1158.65L756.97 1158.87L757.28 1159.09L757.6 1159.29L757.94 1159.48L964.45 1272.55L964.79 1272.72L965.14 1272.89L965.49 1273.03L965.84 1273.17L966.19 1273.28L966.55 1273.39L966.91 1273.47L967.27 1273.55L967.63 1273.6L967.99 1273.65L968.35 1273.68L968.72 1273.69L969.08 1273.69L969.44 1273.68L969.8 1273.65L970.15 1273.61L970.51 1273.56L970.86 1273.49L971.21 1273.41L971.56 1273.32L971.9 1273.21L972.24 1273.09L972.57 1272.96L972.9 1272.81L973.22 1272.65L973.54 1272.48L973.85 1272.3L974.15 1272.1L974.45 1271.9L974.74 1271.68L975.02 1271.44L975.29 1271.2L975.55 1270.95L975.81 1270.68L976.05 1270.4L976.29 1270.11L976.51 1269.81L976.73 1269.5L976.93 1269.17L977.12 1268.84L1148.41 955.99L1148.58 955.65L1148.75 955.3L1148.89 954.95L1149.03 954.6L1149.14 954.25L1149.25 953.89L1149.33 953.53L1149.41 953.17L1149.46 952.81L1149.51 952.45L1149.54 952.09L1149.55 951.72L1149.55 951.36L1149.54 951L1149.51 950.64L1149.47 950.29L1149.42 949.93L1149.35 949.58L1149.27 949.23L1149.18 948.88L1149.07 948.54L1148.95 948.2L1148.82 947.87L1148.67 947.54L1148.51 947.22L1148.34 946.9L1148.16 946.59L1147.96 946.29L1147.76 945.99L1147.54 945.7L1147.3 945.42L1147.06 945.15L1146.8 944.89L1146.54 944.63L1146.26 944.39L1145.97 944.15L1145.67 943.93L1145.36 943.71L1145.03 943.51L1144.7 943.32L938.19 830.25L937.85 830.08L937.5 829.91L937.15 829.77L936.8 829.63L936.45 829.52L936.09 829.41L935.73 829.33L935.37 829.25L935.01 829.2L934.65 829.15L934.29 829.12L933.92 829.11L933.56 829.11L933.2 829.12L932.84 829.14Z" id="hqSz9CAfp"/>
		<path d="M863.76 1257.9C857.83 1268.72 844.23 1272.7 833.4 1266.78C822.58 1260.85 818.6 1247.25 824.53 1236.42C830.46 1225.6 844.06 1221.62 854.88 1227.55C865.71 1233.47 869.68 1247.07 863.76 1257.9Z" id="b2MVwb96dD"/>
		<path d="M1175.87 358.27L1177.34 358.38L1178.8 358.56L1180.26 358.8L1181.72 359.09L1183.17 359.45L1184.61 359.86L1186.05 360.33L1187.47 360.87L1188.88 361.46L1190.28 362.12L1191.66 362.84L1401.77 477.87L1403.12 478.65L1404.43 479.47L1405.69 480.34L1406.91 481.25L1408.08 482.2L1409.2 483.2L1410.28 484.23L1411.32 485.3L1412.3 486.4L1413.24 487.54L1414.13 488.71L1414.97 489.91L1415.76 491.13L1416.5 492.39L1417.19 493.67L1417.83 494.98L1418.42 496.3L1418.96 497.65L1419.45 499.02L1419.88 500.4L1420.26 501.8L1420.59 503.21L1420.86 504.64L1421.08 506.07L1421.24 507.52L1421.35 508.97L1421.4 510.43L1421.4 511.89L1421.34 513.35L1421.22 514.81L1421.04 516.28L1420.8 517.74L1420.51 519.2L1420.16 520.65L1419.74 522.09L1419.27 523.52L1418.73 524.95L1418.14 526.36L1417.48 527.75L1416.76 529.13L1222.13 884.64L1221.35 885.99L1220.53 887.29L1219.66 888.55L1218.75 889.77L1217.8 890.94L1216.81 892.07L1215.78 893.15L1214.71 894.18L1213.6 895.17L1212.47 896.1L1211.3 896.99L1210.1 897.83L1208.87 898.63L1207.61 899.37L1206.33 900.06L1205.03 900.7L1203.7 901.29L1202.35 901.83L1200.99 902.31L1199.6 902.75L1198.2 903.13L1196.79 903.45L1195.37 903.73L1193.93 903.94L1192.49 904.11L1191.03 904.22L1189.58 904.27L1188.12 904.26L1186.65 904.2L1185.19 904.08L1183.72 903.9L1182.26 903.67L1180.81 903.37L1179.36 903.02L1177.91 902.61L1176.48 902.13L1175.06 901.6L1173.65 901L1172.25 900.35L1170.87 899.63L960.76 784.59L959.41 783.82L958.1 782.99L956.84 782.13L955.62 781.22L954.45 780.26L953.32 779.27L952.24 778.24L951.21 777.17L950.22 776.07L949.29 774.93L948.4 773.76L947.56 772.56L946.77 771.33L946.02 770.08L945.33 768.79L944.69 767.49L944.1 766.16L943.56 764.82L943.08 763.45L942.64 762.07L942.26 760.67L941.94 759.25L941.67 757.83L941.45 756.39L941.28 754.95L941.18 753.5L941.12 752.04L941.13 750.58L941.19 749.12L941.31 747.65L941.49 746.19L941.72 744.73L942.02 743.27L942.37 741.82L942.78 740.38L943.26 738.94L943.79 737.52L944.39 736.11L945.05 734.71L945.77 733.33L1140.4 377.83L1141.17 376.48L1142 375.17L1142.86 373.91L1143.77 372.69L1144.73 371.52L1145.72 370.4L1146.75 369.32L1147.82 368.28L1148.92 367.3L1150.06 366.36L1151.23 365.47L1152.43 364.63L1153.66 363.84L1154.91 363.1L1156.2 362.41L1157.5 361.77L1158.83 361.18L1160.17 360.64L1161.54 360.15L1162.92 359.72L1164.32 359.34L1165.74 359.01L1167.16 358.74L1168.6 358.52L1170.04 358.36L1171.49 358.25L1172.95 358.2L1174.41 358.2L1175.87 358.27ZM1172.98 390.36L1172.62 390.4L1172.27 390.45L1171.92 390.52L1171.57 390.6L1171.22 390.69L1170.88 390.8L1170.54 390.92L1170.21 391.05L1169.88 391.2L1169.56 391.36L1169.24 391.53L1168.93 391.71L1168.63 391.91L1168.33 392.12L1168.04 392.34L1167.76 392.57L1167.49 392.81L1167.22 393.07L1166.97 393.33L1166.72 393.61L1166.49 393.9L1166.26 394.2L1166.05 394.51L1165.85 394.84L1165.65 395.17L994.37 708.02L994.19 708.36L994.03 708.71L993.88 709.06L993.75 709.41L993.63 709.77L993.53 710.12L993.44 710.48L993.37 710.84L993.31 711.2L993.27 711.56L993.24 711.93L993.22 712.29L993.22 712.65L993.24 713.01L993.26 713.37L993.3 713.72L993.36 714.08L993.42 714.43L993.51 714.78L993.6 715.13L993.71 715.47L993.83 715.81L993.96 716.14L994.11 716.47L994.26 716.79L994.43 717.11L994.62 717.42L994.81 717.72L995.02 718.02L995.24 718.31L995.47 718.59L995.72 718.86L995.97 719.13L996.24 719.38L996.52 719.63L996.81 719.86L997.11 720.09L997.42 720.3L997.74 720.5L998.08 720.7L1204.59 833.76L1204.93 833.94L1205.28 834.1L1205.63 834.25L1205.98 834.38L1206.33 834.5L1206.69 834.6L1207.05 834.69L1207.41 834.76L1207.77 834.82L1208.13 834.86L1208.49 834.89L1208.85 834.91L1209.22 834.91L1209.58 834.89L1209.93 834.87L1210.29 834.83L1210.65 834.77L1211 834.71L1211.35 834.62L1211.69 834.53L1212.04 834.42L1212.37 834.3L1212.71 834.17L1213.03 834.02L1213.36 833.87L1213.67 833.7L1213.98 833.51L1214.29 833.32L1214.58 833.11L1214.87 832.89L1215.15 832.66L1215.43 832.41L1215.69 832.16L1215.95 831.89L1216.19 831.61L1216.43 831.32L1216.65 831.02L1216.87 830.71L1217.07 830.39L1217.26 830.05L1388.54 517.2L1388.72 516.86L1388.89 516.51L1389.03 516.17L1389.16 515.81L1389.28 515.46L1389.38 515.1L1389.47 514.74L1389.54 514.38L1389.6 514.02L1389.65 513.66L1389.68 513.3L1389.69 512.94L1389.69 512.58L1389.68 512.22L1389.65 511.86L1389.61 511.5L1389.56 511.14L1389.49 510.79L1389.41 510.44L1389.32 510.1L1389.21 509.76L1389.09 509.42L1388.96 509.08L1388.81 508.76L1388.65 508.43L1388.48 508.12L1388.3 507.81L1388.1 507.5L1387.89 507.21L1387.67 506.92L1387.44 506.64L1387.2 506.36L1386.94 506.1L1386.68 505.84L1386.4 505.6L1386.11 505.36L1385.81 505.14L1385.5 504.92L1385.17 504.72L1384.84 504.53L1178.33 391.47L1177.98 391.29L1177.64 391.12L1177.29 390.98L1176.94 390.85L1176.58 390.73L1176.23 390.63L1175.87 390.54L1175.51 390.47L1175.15 390.41L1174.79 390.36L1174.42 390.33L1174.06 390.32L1173.7 390.32L1173.34 390.33L1172.98 390.36Z" id="d2FfQK2eF"/>
		<path d="M1103.9 819.11C1097.97 829.94 1084.37 833.91 1073.54 827.99C1062.72 822.06 1058.74 808.46 1064.67 797.63C1070.59 786.81 1084.19 782.83 1095.02 788.76C1105.85 794.69 1109.82 808.29 1103.9 819.11Z" id="aFjhfqtQk"/>
		<path d="M725.57 485.82L727.04 485.94L728.5 486.12L729.96 486.35L731.42 486.65L732.87 487L734.31 487.41L735.74 487.89L737.17 488.42L738.58 489.02L739.97 489.68L741.35 490.39L951.47 605.43L952.82 606.2L954.12 607.03L955.39 607.89L956.6 608.8L957.78 609.76L958.9 610.75L959.98 611.78L961.01 612.85L962 613.95L962.94 615.09L963.83 616.26L964.67 617.46L965.46 618.69L966.2 619.94L966.89 621.23L967.53 622.53L968.12 623.86L968.66 625.2L969.15 626.57L969.58 627.95L969.96 629.35L970.29 630.77L970.56 632.19L970.78 633.63L970.94 635.07L971.05 636.52L971.1 637.98L971.09 639.44L971.03 640.9L970.91 642.37L970.74 643.83L970.5 645.29L970.21 646.75L969.85 648.2L969.44 649.64L968.97 651.08L968.43 652.5L967.83 653.91L967.18 655.31L966.46 656.69L771.82 1012.19L771.05 1013.54L770.23 1014.85L769.36 1016.11L768.45 1017.33L767.5 1018.5L766.5 1019.62L765.47 1020.7L764.4 1021.74L763.3 1022.72L762.16 1023.66L760.99 1024.55L759.79 1025.39L758.56 1026.18L757.31 1026.92L756.03 1027.61L754.72 1028.25L753.4 1028.84L752.05 1029.38L750.68 1029.87L749.3 1030.3L747.9 1030.68L746.49 1031.01L745.06 1031.28L743.63 1031.5L742.18 1031.66L740.73 1031.77L739.27 1031.82L737.81 1031.82L736.35 1031.75L734.88 1031.64L733.42 1031.46L731.96 1031.22L730.5 1030.93L729.05 1030.58L727.61 1030.16L726.18 1029.69L724.75 1029.15L723.34 1028.56L721.95 1027.9L720.57 1027.18L510.45 912.15L509.1 911.37L507.8 910.55L506.53 909.68L505.32 908.77L504.15 907.82L503.02 906.83L501.94 905.79L500.91 904.73L499.92 903.62L498.98 902.48L498.09 901.31L497.25 900.11L496.46 898.89L495.72 897.63L495.03 896.35L494.39 895.04L493.8 893.72L493.26 892.37L492.78 891L492.34 889.62L491.96 888.22L491.64 886.81L491.36 885.38L491.14 883.95L490.98 882.5L490.87 881.05L490.82 879.6L490.83 878.13L490.89 876.67L491.01 875.21L491.18 873.74L491.42 872.28L491.71 870.83L492.07 869.37L492.48 867.93L492.96 866.5L493.49 865.07L494.09 863.66L494.74 862.27L495.46 860.89L690.1 505.38L690.87 504.03L691.69 502.73L692.56 501.47L693.47 500.25L694.42 499.08L695.42 497.95L696.45 496.87L697.52 495.84L698.62 494.85L699.76 493.92L700.93 493.03L702.13 492.19L703.36 491.39L704.61 490.65L705.89 489.96L707.2 489.32L708.52 488.73L709.87 488.19L711.24 487.71L712.62 487.27L714.02 486.89L715.43 486.57L716.86 486.29L718.29 486.08L719.74 485.91L721.19 485.81L722.65 485.75L724.11 485.76L725.57 485.82ZM722.68 517.91L722.32 517.95L721.97 518.01L721.61 518.07L721.26 518.15L720.92 518.25L720.58 518.36L720.24 518.48L719.91 518.61L719.58 518.75L719.26 518.91L718.94 519.08L718.63 519.27L718.32 519.46L718.03 519.67L717.74 519.89L717.46 520.12L717.19 520.37L716.92 520.62L716.67 520.89L716.42 521.17L716.18 521.46L715.96 521.76L715.75 522.07L715.54 522.39L715.35 522.73L544.07 835.58L543.89 835.92L543.73 836.26L543.58 836.61L543.45 836.97L543.33 837.32L543.23 837.68L543.14 838.04L543.07 838.4L543.01 838.76L542.97 839.12L542.94 839.48L542.92 839.84L542.92 840.2L542.93 840.56L542.96 840.92L543 841.28L543.05 841.63L543.12 841.99L543.2 842.34L543.3 842.68L543.4 843.02L543.52 843.36L543.66 843.69L543.8 844.02L543.96 844.35L544.13 844.66L544.32 844.97L544.51 845.28L544.72 845.57L544.94 845.86L545.17 846.14L545.41 846.42L545.67 846.68L545.94 846.93L546.21 847.18L546.5 847.42L546.81 847.64L547.12 847.86L547.44 848.06L547.77 848.25L754.29 961.31L754.63 961.49L754.97 961.65L755.32 961.8L755.67 961.93L756.03 962.05L756.39 962.15L756.74 962.24L757.1 962.31L757.47 962.37L757.83 962.41L758.19 962.44L758.55 962.46L758.91 962.46L759.27 962.45L759.63 962.42L759.99 962.38L760.34 962.33L760.7 962.26L761.05 962.18L761.39 962.09L761.73 961.98L762.07 961.86L762.4 961.72L762.73 961.58L763.05 961.42L763.37 961.25L763.68 961.07L763.99 960.87L764.28 960.66L764.57 960.44L764.85 960.21L765.12 959.97L765.39 959.71L765.64 959.45L765.89 959.17L766.13 958.88L766.35 958.58L766.56 958.26L766.77 957.94L766.96 957.61L938.24 644.76L938.42 644.41L938.58 644.07L938.73 643.72L938.86 643.37L938.98 643.01L939.08 642.66L939.17 642.3L939.24 641.94L939.3 641.58L939.34 641.22L939.37 640.85L939.39 640.49L939.39 640.13L939.38 639.77L939.35 639.41L939.31 639.05L939.26 638.7L939.19 638.35L939.11 638L939.01 637.65L938.91 637.31L938.79 636.97L938.65 636.64L938.51 636.31L938.35 635.99L938.18 635.67L937.99 635.36L937.8 635.06L937.59 634.76L937.37 634.47L937.14 634.19L936.9 633.92L936.64 633.65L936.37 633.4L936.1 633.15L935.81 632.92L935.5 632.69L935.19 632.48L934.87 632.27L934.54 632.08L728.02 519.02L727.68 518.84L727.34 518.68L726.99 518.53L726.64 518.4L726.28 518.28L725.92 518.18L725.57 518.09L725.21 518.02L724.84 517.96L724.48 517.92L724.12 517.89L723.76 517.87L723.4 517.87L723.04 517.89L722.68 517.91Z" id="b4aAXstNkI"/>
		<path d="M653.59 946.67C647.67 957.49 634.07 961.47 623.24 955.54C612.41 949.62 608.44 936.01 614.36 925.19C620.29 914.36 633.89 910.39 644.72 916.31C655.54 922.24 659.52 935.84 653.59 946.67Z" id="b7QGm78Ie"/>
		<path d="M965.71 47.03L967.17 47.15L968.64 47.33L970.1 47.56L971.56 47.86L973.01 48.21L974.45 48.63L975.88 49.1L977.31 49.63L978.72 50.23L980.11 50.89L981.49 51.61L1191.61 166.64L1192.96 167.42L1194.26 168.24L1195.53 169.11L1196.74 170.02L1197.91 170.97L1199.04 171.96L1200.12 172.99L1201.15 174.06L1202.14 175.17L1203.08 176.3L1203.96 177.47L1204.8 178.67L1205.6 179.9L1206.34 181.16L1207.03 182.44L1207.67 183.74L1208.26 185.07L1208.8 186.42L1209.28 187.78L1209.72 189.17L1210.1 190.57L1210.42 191.98L1210.7 193.4L1210.92 194.84L1211.08 196.28L1211.19 197.73L1211.24 199.19L1211.23 200.65L1211.17 202.12L1211.05 203.58L1210.87 205.05L1210.64 206.51L1210.34 207.96L1209.99 209.41L1209.58 210.86L1209.1 212.29L1208.57 213.71L1207.97 215.12L1207.32 216.52L1206.6 217.9L1011.96 573.4L1011.19 574.75L1010.37 576.06L1009.5 577.32L1008.59 578.54L1007.64 579.71L1006.64 580.84L1005.61 581.92L1004.54 582.95L1003.44 583.93L1002.3 584.87L1001.13 585.76L999.93 586.6L998.7 587.39L997.45 588.13L996.17 588.83L994.86 589.47L993.53 590.06L992.19 590.59L990.82 591.08L989.44 591.51L988.04 591.89L986.63 592.22L985.2 592.49L983.77 592.71L982.32 592.87L980.87 592.98L979.41 593.03L977.95 593.03L976.49 592.97L975.02 592.85L973.56 592.67L972.1 592.44L970.64 592.14L969.19 591.79L967.75 591.37L966.31 590.9L964.89 590.37L963.48 589.77L962.09 589.11L960.7 588.39L750.59 473.36L749.24 472.58L747.93 471.76L746.67 470.89L745.46 469.98L744.28 469.03L743.16 468.04L742.08 467.01L741.05 465.94L740.06 464.83L739.12 463.7L738.23 462.53L737.39 461.33L736.6 460.1L735.86 458.84L735.17 457.56L734.53 456.26L733.94 454.93L733.4 453.58L732.91 452.22L732.48 450.83L732.1 449.43L731.77 448.02L731.5 446.6L731.28 445.16L731.12 443.72L731.01 442.27L730.96 440.81L730.97 439.35L731.03 437.88L731.15 436.42L731.32 434.95L731.56 433.49L731.85 432.04L732.21 430.59L732.62 429.14L733.09 427.71L733.63 426.29L734.22 424.88L734.88 423.48L735.6 422.1L930.23 66.6L931.01 65.25L931.83 63.94L932.7 62.68L933.61 61.46L934.56 60.29L935.56 59.16L936.59 58.08L937.66 57.05L938.76 56.07L939.9 55.13L941.07 54.24L942.27 53.4L943.49 52.61L944.75 51.87L946.03 51.17L947.34 50.53L948.66 49.94L950.01 49.41L951.38 48.92L952.76 48.49L954.16 48.11L955.57 47.78L957 47.51L958.43 47.29L959.88 47.13L961.33 47.02L962.79 46.97L964.25 46.97L965.71 47.03ZM962.82 79.12L962.46 79.16L962.1 79.22L961.75 79.29L961.4 79.37L961.06 79.46L960.72 79.57L960.38 79.69L960.04 79.82L959.72 79.97L959.39 80.13L959.08 80.3L958.77 80.48L958.46 80.68L958.17 80.88L957.88 81.1L957.6 81.33L957.32 81.58L957.06 81.83L956.8 82.1L956.56 82.38L956.32 82.67L956.1 82.97L955.88 83.28L955.68 83.6L955.49 83.94L784.21 396.79L784.03 397.13L783.87 397.48L783.72 397.83L783.59 398.18L783.47 398.53L783.37 398.89L783.28 399.25L783.21 399.61L783.15 399.97L783.11 400.33L783.08 400.69L783.06 401.05L783.06 401.42L783.07 401.78L783.1 402.13L783.14 402.49L783.19 402.85L783.26 403.2L783.34 403.55L783.44 403.89L783.54 404.24L783.66 404.57L783.8 404.91L783.94 405.24L784.1 405.56L784.27 405.87L784.45 406.18L784.65 406.49L784.86 406.79L785.08 407.07L785.31 407.36L785.55 407.63L785.81 407.89L786.07 408.15L786.35 408.39L786.64 408.63L786.94 408.85L787.26 409.07L787.58 409.27L787.91 409.46L994.43 522.53L994.77 522.7L995.11 522.87L995.46 523.01L995.81 523.15L996.17 523.26L996.52 523.37L996.88 523.45L997.24 523.53L997.6 523.58L997.97 523.63L998.33 523.66L998.69 523.67L999.05 523.67L999.41 523.66L999.77 523.63L1000.13 523.59L1000.48 523.54L1000.83 523.47L1001.18 523.39L1001.53 523.3L1001.87 523.19L1002.21 523.07L1002.54 522.94L1002.87 522.79L1003.19 522.63L1003.51 522.46L1003.82 522.28L1004.12 522.08L1004.42 521.88L1004.71 521.66L1004.99 521.42L1005.26 521.18L1005.53 520.92L1005.78 520.66L1006.03 520.38L1006.26 520.09L1006.49 519.79L1006.7 519.48L1006.91 519.15L1007.1 518.82L1178.38 205.97L1178.56 205.63L1178.72 205.28L1178.87 204.93L1179 204.58L1179.12 204.23L1179.22 203.87L1179.31 203.51L1179.38 203.15L1179.44 202.79L1179.48 202.43L1179.51 202.07L1179.53 201.7L1179.53 201.34L1179.51 200.98L1179.49 200.62L1179.45 200.27L1179.39 199.91L1179.33 199.56L1179.25 199.21L1179.15 198.86L1179.04 198.52L1178.92 198.18L1178.79 197.85L1178.65 197.52L1178.49 197.2L1178.32 196.88L1178.13 196.57L1177.94 196.27L1177.73 195.97L1177.51 195.68L1177.28 195.4L1177.03 195.13L1176.78 194.87L1176.51 194.61L1176.23 194.37L1175.94 194.13L1175.64 193.91L1175.33 193.69L1175.01 193.49L1174.67 193.3L968.16 80.23L967.82 80.05L967.47 79.89L967.13 79.74L966.77 79.61L966.42 79.5L966.06 79.39L965.7 79.31L965.34 79.23L964.98 79.17L964.62 79.13L964.26 79.1L963.9 79.09L963.54 79.09L963.18 79.1L962.82 79.12Z" id="aLaWs2r2h"/>
		<path d="M893.73 507.88C887.8 518.7 874.2 522.68 863.38 516.75C852.55 510.83 848.58 497.23 854.5 486.4C860.43 475.58 874.03 471.6 884.86 477.53C895.68 483.45 899.66 497.05 893.73 507.88Z" id="b5gNeDMJO"/>
		<path d="M1134.91 1136.28L1136.38 1136.4L1137.84 1136.58L1139.3 1136.81L1140.76 1137.11L1142.21 1137.46L1143.65 1137.88L1145.09 1138.35L1146.51 1138.88L1147.92 1139.48L1149.32 1140.14L1150.7 1140.86L1360.81 1255.89L1362.16 1256.67L1363.47 1257.49L1364.73 1258.36L1365.94 1259.27L1367.12 1260.22L1368.24 1261.21L1369.32 1262.24L1370.35 1263.31L1371.34 1264.42L1372.28 1265.55L1373.17 1266.72L1374.01 1267.92L1374.8 1269.15L1375.54 1270.41L1376.23 1271.69L1376.87 1272.99L1377.46 1274.32L1378 1275.67L1378.49 1277.03L1378.92 1278.42L1379.3 1279.82L1379.63 1281.23L1379.9 1282.65L1380.12 1284.09L1380.28 1285.53L1380.39 1286.98L1380.44 1288.44L1380.44 1289.9L1380.37 1291.37L1380.25 1292.83L1380.08 1294.29L1379.84 1295.76L1379.55 1297.21L1379.19 1298.66L1378.78 1300.11L1378.31 1301.54L1377.77 1302.96L1377.18 1304.37L1376.52 1305.77L1375.8 1307.15L1181.17 1662.65L1180.39 1664L1179.57 1665.31L1178.7 1666.57L1177.79 1667.79L1176.84 1668.96L1175.84 1670.09L1174.81 1671.17L1173.74 1672.2L1172.64 1673.18L1171.5 1674.12L1170.33 1675.01L1169.13 1675.85L1167.91 1676.64L1166.65 1677.38L1165.37 1678.08L1164.06 1678.72L1162.74 1679.31L1161.39 1679.84L1160.02 1680.33L1158.64 1680.76L1157.24 1681.14L1155.83 1681.47L1154.4 1681.74L1152.97 1681.96L1151.52 1682.12L1150.07 1682.23L1148.61 1682.28L1147.15 1682.28L1145.69 1682.22L1144.23 1682.1L1142.76 1681.92L1141.3 1681.69L1139.84 1681.39L1138.39 1681.04L1136.95 1680.62L1135.52 1680.15L1134.09 1679.62L1132.68 1679.02L1131.29 1678.36L1129.91 1677.64L919.79 1562.61L918.44 1561.83L917.14 1561.01L915.87 1560.14L914.66 1559.23L913.49 1558.28L912.36 1557.29L911.28 1556.26L910.25 1555.19L909.26 1554.08L908.33 1552.95L907.44 1551.78L906.6 1550.58L905.8 1549.35L905.06 1548.09L904.37 1546.81L903.73 1545.51L903.14 1544.18L902.6 1542.83L902.12 1541.47L901.68 1540.08L901.3 1538.68L900.98 1537.27L900.7 1535.85L900.49 1534.41L900.32 1532.97L900.21 1531.51L900.16 1530.06L900.17 1528.6L900.23 1527.13L900.35 1525.67L900.53 1524.2L900.76 1522.74L901.06 1521.29L901.41 1519.84L901.82 1518.39L902.3 1516.96L902.83 1515.54L903.43 1514.13L904.08 1512.73L904.8 1511.35L1099.44 1155.85L1100.21 1154.5L1101.03 1153.19L1101.9 1151.93L1102.81 1150.71L1103.77 1149.54L1104.76 1148.41L1105.79 1147.33L1106.86 1146.3L1107.96 1145.32L1109.1 1144.38L1110.27 1143.49L1111.47 1142.65L1112.7 1141.86L1113.95 1141.12L1115.23 1140.42L1116.54 1139.78L1117.87 1139.19L1119.21 1138.66L1120.58 1138.17L1121.96 1137.74L1123.36 1137.36L1124.77 1137.03L1126.2 1136.76L1127.63 1136.54L1129.08 1136.38L1130.53 1136.27L1131.99 1136.22L1133.45 1136.22L1134.91 1136.28ZM1132.02 1168.37L1131.66 1168.41L1131.31 1168.47L1130.96 1168.54L1130.61 1168.62L1130.26 1168.71L1129.92 1168.82L1129.58 1168.94L1129.25 1169.07L1128.92 1169.22L1128.6 1169.38L1128.28 1169.55L1127.97 1169.73L1127.67 1169.93L1127.37 1170.13L1127.08 1170.35L1126.8 1170.58L1126.53 1170.83L1126.26 1171.08L1126.01 1171.35L1125.76 1171.63L1125.53 1171.92L1125.3 1172.22L1125.09 1172.53L1124.88 1172.85L1124.69 1173.19L953.41 1486.04L953.23 1486.38L953.07 1486.73L952.92 1487.08L952.79 1487.43L952.67 1487.78L952.57 1488.14L952.48 1488.5L952.41 1488.86L952.35 1489.22L952.31 1489.58L952.28 1489.94L952.26 1490.3L952.26 1490.67L952.27 1491.03L952.3 1491.38L952.34 1491.74L952.4 1492.1L952.46 1492.45L952.54 1492.8L952.64 1493.14L952.74 1493.49L952.86 1493.82L953 1494.16L953.14 1494.48L953.3 1494.81L953.47 1495.12L953.66 1495.43L953.85 1495.74L954.06 1496.03L954.28 1496.32L954.51 1496.61L954.76 1496.88L955.01 1497.14L955.28 1497.4L955.56 1497.64L955.85 1497.88L956.15 1498.1L956.46 1498.32L956.78 1498.52L957.11 1498.71L1163.63 1611.78L1163.97 1611.95L1164.32 1612.12L1164.66 1612.26L1165.02 1612.4L1165.37 1612.51L1165.73 1612.62L1166.09 1612.7L1166.45 1612.78L1166.81 1612.83L1167.17 1612.88L1167.53 1612.91L1167.89 1612.92L1168.25 1612.92L1168.61 1612.91L1168.97 1612.88L1169.33 1612.84L1169.68 1612.79L1170.04 1612.72L1170.39 1612.64L1170.73 1612.55L1171.07 1612.44L1171.41 1612.32L1171.74 1612.19L1172.07 1612.04L1172.4 1611.88L1172.71 1611.71L1173.02 1611.53L1173.33 1611.33L1173.62 1611.13L1173.91 1610.91L1174.19 1610.67L1174.47 1610.43L1174.73 1610.17L1174.99 1609.91L1175.23 1609.63L1175.47 1609.34L1175.69 1609.04L1175.91 1608.73L1176.11 1608.4L1176.3 1608.07L1347.58 1295.22L1347.76 1294.88L1347.92 1294.53L1348.07 1294.18L1348.2 1293.83L1348.32 1293.48L1348.42 1293.12L1348.51 1292.76L1348.58 1292.4L1348.64 1292.04L1348.68 1291.68L1348.71 1291.32L1348.73 1290.95L1348.73 1290.59L1348.72 1290.23L1348.69 1289.87L1348.65 1289.52L1348.6 1289.16L1348.53 1288.81L1348.45 1288.46L1348.35 1288.11L1348.25 1287.77L1348.13 1287.43L1347.99 1287.1L1347.85 1286.77L1347.69 1286.45L1347.52 1286.13L1347.34 1285.82L1347.14 1285.52L1346.93 1285.22L1346.71 1284.93L1346.48 1284.65L1346.24 1284.38L1345.98 1284.12L1345.71 1283.86L1345.44 1283.62L1345.15 1283.38L1344.85 1283.15L1344.53 1282.94L1344.21 1282.74L1343.88 1282.55L1137.36 1169.48L1137.02 1169.3L1136.68 1169.14L1136.33 1168.99L1135.98 1168.86L1135.62 1168.75L1135.27 1168.64L1134.91 1168.56L1134.55 1168.48L1134.19 1168.42L1133.82 1168.38L1133.46 1168.35L1133.1 1168.34L1132.74 1168.33L1132.38 1168.35L1132.02 1168.37Z" id="ap5hVcmzf"/>
		<path d="M1062.93 1597.13C1057.01 1607.95 1043.41 1611.93 1032.58 1606C1021.76 1600.08 1017.78 1586.48 1023.71 1575.65C1029.63 1564.83 1043.23 1560.85 1054.06 1566.78C1064.88 1572.7 1068.86 1586.3 1062.93 1597.13Z" id="a10Mjkgyx1"/>
		<path d="M485.43 929.57L486.9 929.69L488.36 929.87L489.82 930.1L491.28 930.4L492.73 930.75L494.17 931.16L495.61 931.64L497.03 932.17L498.44 932.77L499.84 933.43L501.22 934.14L711.33 1049.18L712.68 1049.95L713.99 1050.78L715.25 1051.64L716.47 1052.55L717.64 1053.51L718.76 1054.5L719.84 1055.53L720.88 1056.6L721.86 1057.7L722.8 1058.84L723.69 1060.01L724.53 1061.21L725.32 1062.44L726.06 1063.69L726.75 1064.98L727.39 1066.28L727.98 1067.61L728.52 1068.95L729.01 1070.32L729.44 1071.7L729.82 1073.1L730.15 1074.52L730.42 1075.94L730.64 1077.38L730.8 1078.82L730.91 1080.27L730.96 1081.73L730.96 1083.19L730.89 1084.65L730.77 1086.12L730.6 1087.58L730.36 1089.04L730.07 1090.5L729.71 1091.95L729.3 1093.39L728.83 1094.83L728.29 1096.25L727.7 1097.66L727.04 1099.06L726.32 1100.44L531.69 1455.94L530.91 1457.29L530.09 1458.6L529.22 1459.86L528.31 1461.08L527.36 1462.25L526.37 1463.37L525.33 1464.45L524.27 1465.49L523.16 1466.47L522.02 1467.41L520.85 1468.3L519.65 1469.14L518.43 1469.93L517.17 1470.67L515.89 1471.36L514.58 1472L513.26 1472.59L511.91 1473.13L510.54 1473.62L509.16 1474.05L507.76 1474.43L506.35 1474.76L504.92 1475.03L503.49 1475.25L502.04 1475.41L500.59 1475.52L499.14 1475.57L497.67 1475.57L496.21 1475.5L494.75 1475.39L493.28 1475.21L491.82 1474.97L490.37 1474.68L488.91 1474.33L487.47 1473.91L486.04 1473.44L484.61 1472.9L483.2 1472.31L481.81 1471.65L480.43 1470.93L270.31 1355.9L268.96 1355.12L267.66 1354.3L266.4 1353.43L265.18 1352.52L264.01 1351.57L262.88 1350.58L261.8 1349.54L260.77 1348.48L259.78 1347.37L258.85 1346.23L257.96 1345.06L257.12 1343.86L256.32 1342.64L255.58 1341.38L254.89 1340.1L254.25 1338.79L253.66 1337.47L253.12 1336.12L252.64 1334.75L252.2 1333.37L251.82 1331.97L251.5 1330.56L251.22 1329.13L251.01 1327.7L250.84 1326.25L250.74 1324.8L250.68 1323.35L250.69 1321.88L250.75 1320.42L250.87 1318.96L251.05 1317.49L251.28 1316.03L251.58 1314.58L251.93 1313.12L252.34 1311.68L252.82 1310.25L253.35 1308.82L253.95 1307.41L254.61 1306.02L255.32 1304.64L449.96 949.13L450.73 947.78L451.56 946.48L452.42 945.22L453.33 944L454.29 942.83L455.28 941.7L456.31 940.62L457.38 939.59L458.48 938.6L459.62 937.67L460.79 936.78L461.99 935.94L463.22 935.14L464.47 934.4L465.75 933.71L467.06 933.07L468.39 932.48L469.73 931.94L471.1 931.46L472.48 931.02L473.88 930.64L475.29 930.32L476.72 930.04L478.15 929.83L479.6 929.66L481.05 929.56L482.51 929.5L483.97 929.51L485.43 929.57ZM482.54 961.66L482.18 961.7L481.83 961.76L481.48 961.82L481.13 961.9L480.78 962L480.44 962.11L480.1 962.23L479.77 962.36L479.44 962.5L479.12 962.66L478.8 962.83L478.49 963.02L478.19 963.21L477.89 963.42L477.6 963.64L477.32 963.87L477.05 964.12L476.78 964.37L476.53 964.64L476.28 964.92L476.05 965.21L475.82 965.51L475.61 965.82L475.4 966.14L475.21 966.48L303.93 1279.33L303.75 1279.67L303.59 1280.01L303.44 1280.36L303.31 1280.72L303.19 1281.07L303.09 1281.43L303 1281.79L302.93 1282.15L302.87 1282.51L302.83 1282.87L302.8 1283.23L302.78 1283.59L302.78 1283.95L302.8 1284.31L302.82 1284.67L302.86 1285.03L302.92 1285.38L302.98 1285.74L303.06 1286.09L303.16 1286.43L303.27 1286.77L303.39 1287.11L303.52 1287.44L303.66 1287.77L303.82 1288.1L303.99 1288.41L304.18 1288.72L304.37 1289.03L304.58 1289.32L304.8 1289.61L305.03 1289.89L305.28 1290.17L305.53 1290.43L305.8 1290.68L306.08 1290.93L306.37 1291.17L306.67 1291.39L306.98 1291.61L307.3 1291.81L307.64 1292L514.15 1405.06L514.49 1405.24L514.84 1405.4L515.18 1405.55L515.54 1405.68L515.89 1405.8L516.25 1405.9L516.61 1405.99L516.97 1406.06L517.33 1406.12L517.69 1406.16L518.05 1406.19L518.41 1406.21L518.77 1406.21L519.13 1406.2L519.49 1406.17L519.85 1406.13L520.21 1406.08L520.56 1406.01L520.91 1405.93L521.25 1405.84L521.59 1405.73L521.93 1405.61L522.27 1405.47L522.59 1405.33L522.92 1405.17L523.23 1405L523.54 1404.82L523.85 1404.62L524.14 1404.41L524.43 1404.19L524.71 1403.96L524.99 1403.72L525.25 1403.46L525.51 1403.2L525.75 1402.92L525.99 1402.63L526.21 1402.33L526.43 1402.01L526.63 1401.69L526.82 1401.36L698.1 1088.51L698.28 1088.16L698.44 1087.82L698.59 1087.47L698.72 1087.12L698.84 1086.76L698.94 1086.41L699.03 1086.05L699.1 1085.69L699.16 1085.33L699.2 1084.97L699.23 1084.6L699.25 1084.24L699.25 1083.88L699.24 1083.52L699.21 1083.16L699.17 1082.8L699.12 1082.45L699.05 1082.1L698.97 1081.75L698.87 1081.4L698.77 1081.06L698.65 1080.72L698.51 1080.39L698.37 1080.06L698.21 1079.74L698.04 1079.42L697.86 1079.11L697.66 1078.81L697.45 1078.51L697.23 1078.22L697 1077.94L696.76 1077.67L696.5 1077.4L696.24 1077.15L695.96 1076.9L695.67 1076.67L695.37 1076.44L695.05 1076.23L694.73 1076.02L694.4 1075.83L487.88 962.77L487.54 962.59L487.2 962.43L486.85 962.28L486.5 962.15L486.14 962.03L485.79 961.93L485.43 961.84L485.07 961.77L484.71 961.71L484.34 961.67L483.98 961.64L483.62 961.62L483.26 961.62L482.9 961.64L482.54 961.66Z" id="a28lswg2pt"/>
		<path d="M413.45 1390.42C407.53 1401.24 393.93 1405.22 383.1 1399.29C372.28 1393.37 368.3 1379.76 374.23 1368.94C380.15 1358.11 393.75 1354.14 404.58 1360.06C415.4 1365.99 419.38 1379.59 413.45 1390.42Z" id="c136nzONRo"/>
		<path d="M-194.02 758.85L-192.56 758.97L-191.09 759.15L-189.63 759.39L-188.17 759.68L-186.72 760.03L-185.28 760.45L-183.85 760.92L-182.42 761.46L-181.01 762.05L-179.62 762.71L-178.24 763.43L31.88 878.46L33.23 879.24L34.53 880.06L35.79 880.93L37.01 881.84L38.18 882.79L39.31 883.78L40.39 884.82L41.42 885.88L42.41 886.99L43.34 888.12L44.23 889.29L45.07 890.49L45.87 891.72L46.61 892.98L47.3 894.26L47.94 895.56L48.53 896.89L49.07 898.24L49.55 899.6L49.99 900.99L50.37 902.39L50.69 903.8L50.97 905.22L51.18 906.66L51.35 908.1L51.46 909.56L51.51 911.01L51.5 912.48L51.44 913.94L51.32 915.4L51.14 916.87L50.91 918.33L50.61 919.78L50.26 921.23L49.85 922.68L49.37 924.11L48.84 925.53L48.24 926.94L47.59 928.34L46.87 929.72L-147.77 1285.23L-148.54 1286.58L-149.36 1287.88L-150.23 1289.14L-151.14 1290.36L-152.1 1291.53L-153.09 1292.66L-154.12 1293.74L-155.19 1294.77L-156.29 1295.76L-157.43 1296.69L-158.6 1297.58L-159.8 1298.42L-161.03 1299.21L-162.28 1299.96L-163.56 1300.65L-164.87 1301.29L-166.2 1301.88L-167.54 1302.42L-168.91 1302.9L-170.29 1303.34L-171.69 1303.72L-173.1 1304.04L-174.53 1304.32L-175.96 1304.53L-177.41 1304.7L-178.86 1304.8L-180.32 1304.86L-181.78 1304.85L-183.24 1304.79L-184.71 1304.67L-186.17 1304.49L-187.63 1304.26L-189.09 1303.96L-190.54 1303.61L-191.98 1303.2L-193.42 1302.72L-194.84 1302.19L-196.25 1301.59L-197.65 1300.93L-199.03 1300.21L-409.14 1185.18L-410.49 1184.4L-411.8 1183.58L-413.06 1182.72L-414.28 1181.8L-415.45 1180.85L-416.57 1179.86L-417.65 1178.83L-418.68 1177.76L-419.67 1176.66L-420.61 1175.52L-421.5 1174.35L-422.34 1173.15L-423.13 1171.92L-423.87 1170.66L-424.56 1169.38L-425.2 1168.08L-425.79 1166.75L-426.33 1165.4L-426.82 1164.04L-427.25 1162.66L-427.63 1161.26L-427.96 1159.84L-428.23 1158.42L-428.45 1156.98L-428.61 1155.54L-428.72 1154.09L-428.77 1152.63L-428.77 1151.17L-428.7 1149.7L-428.58 1148.24L-428.41 1146.78L-428.17 1145.32L-427.88 1143.86L-427.52 1142.41L-427.11 1140.97L-426.64 1139.53L-426.1 1138.11L-425.51 1136.7L-424.85 1135.3L-424.13 1133.92L-229.5 778.42L-228.72 777.07L-227.9 775.76L-227.03 774.5L-226.12 773.28L-225.17 772.11L-224.18 770.99L-223.14 769.91L-222.08 768.87L-220.97 767.89L-219.83 766.95L-218.66 766.06L-217.46 765.22L-216.24 764.43L-214.98 763.69L-213.7 763L-212.39 762.35L-211.07 761.76L-209.72 761.23L-208.35 760.74L-206.97 760.31L-205.57 759.93L-204.16 759.6L-202.73 759.33L-201.3 759.11L-199.85 758.95L-198.4 758.84L-196.95 758.79L-195.48 758.79L-194.02 758.85ZM-196.91 790.95L-197.27 790.99L-197.63 791.04L-197.98 791.11L-198.33 791.19L-198.67 791.28L-199.02 791.39L-199.35 791.51L-199.69 791.64L-200.01 791.79L-200.34 791.95L-200.65 792.12L-200.96 792.3L-201.27 792.5L-201.56 792.7L-201.85 792.92L-202.13 793.16L-202.41 793.4L-202.67 793.66L-202.93 793.92L-203.17 794.2L-203.41 794.49L-203.63 794.79L-203.85 795.1L-204.05 795.43L-204.24 795.76L-375.52 1108.61L-375.7 1108.95L-375.86 1109.3L-376.01 1109.65L-376.14 1110L-376.26 1110.35L-376.36 1110.71L-376.45 1111.07L-376.52 1111.43L-376.58 1111.79L-376.63 1112.15L-376.65 1112.51L-376.67 1112.88L-376.67 1113.24L-376.66 1113.6L-376.63 1113.96L-376.59 1114.31L-376.54 1114.67L-376.47 1115.02L-376.39 1115.37L-376.3 1115.72L-376.19 1116.06L-376.07 1116.4L-375.94 1116.73L-375.79 1117.06L-375.63 1117.38L-375.46 1117.7L-375.28 1118.01L-375.08 1118.31L-374.87 1118.61L-374.65 1118.9L-374.42 1119.18L-374.18 1119.45L-373.92 1119.71L-373.66 1119.97L-373.38 1120.21L-373.09 1120.45L-372.79 1120.67L-372.47 1120.89L-372.15 1121.09L-371.82 1121.28L-165.3 1234.35L-164.96 1234.53L-164.62 1234.69L-164.27 1234.84L-163.92 1234.97L-163.56 1235.08L-163.21 1235.19L-162.85 1235.27L-162.49 1235.35L-162.13 1235.41L-161.76 1235.45L-161.4 1235.48L-161.04 1235.49L-160.68 1235.49L-160.32 1235.48L-159.96 1235.46L-159.6 1235.42L-159.25 1235.36L-158.9 1235.29L-158.55 1235.21L-158.2 1235.12L-157.86 1235.01L-157.52 1234.89L-157.19 1234.76L-156.86 1234.61L-156.54 1234.45L-156.22 1234.28L-155.91 1234.1L-155.61 1233.9L-155.31 1233.7L-155.02 1233.48L-154.74 1233.25L-154.47 1233L-154.2 1232.75L-153.95 1232.48L-153.7 1232.2L-153.47 1231.91L-153.24 1231.61L-153.03 1231.3L-152.82 1230.98L-152.63 1230.64L18.65 917.79L18.83 917.45L18.99 917.1L19.14 916.75L19.27 916.4L19.39 916.05L19.49 915.69L19.58 915.33L19.65 914.97L19.71 914.61L19.75 914.25L19.78 913.89L19.8 913.53L19.8 913.16L19.78 912.8L19.76 912.45L19.72 912.09L19.66 911.73L19.6 911.38L19.52 911.03L19.42 910.69L19.31 910.34L19.19 910.01L19.06 909.67L18.92 909.35L18.76 909.02L18.59 908.71L18.4 908.4L18.21 908.09L18 907.8L17.78 907.51L17.55 907.22L17.3 906.95L17.05 906.69L16.78 906.43L16.5 906.19L16.21 905.95L15.91 905.73L15.6 905.51L15.28 905.31L14.94 905.12L-191.57 792.05L-191.91 791.88L-192.26 791.71L-192.6 791.57L-192.96 791.43L-193.31 791.32L-193.67 791.21L-194.03 791.13L-194.39 791.05L-194.75 791L-195.11 790.95L-195.47 790.92L-195.83 790.91L-196.19 790.91L-196.55 790.92L-196.91 790.95Z" id="basaK0BMJ"/>
		<path d="M-266 1219.7C-271.93 1230.53 -285.53 1234.5 -296.35 1228.58C-307.18 1222.65 -311.15 1209.05 -305.23 1198.22C-299.3 1187.4 -285.7 1183.42 -274.87 1189.35C-264.05 1195.27 -260.07 1208.87 -266 1219.7Z" id="d1APESkzrj"/>
	</defs>
	<g>
		<g>
			<use xlink:href="#dbxHH4lC9" opacity="1" fill="#092970" fill-opacity="1"/>
		</g>
		<g>
			<g>
				<use xlink:href="#j2jxQeZi93" opacity="1" fill-opacity="0" stroke="#2f4e8f" stroke-width="5" stroke-opacity="1"/>
			</g>
		</g>
		<g>
			<use xlink:href="#a8yRYYQ0d" opacity="1" fill="#142752" fill-opacity="1"/>
		</g>
		<g>
			<g>
				<use xlink:href="#buMJ1OmTm" opacity="1" fill-opacity="0" stroke="#2f4e8f" stroke-width="5" stroke-opacity="1"/>
			</g>
		</g>
		<g>
			<use xlink:href="#d3jWpLrxqm" opacity="1" fill="#142752" fill-opacity="1"/>
		</g>
		<g>
			<g>
				<use xlink:href="#a11KntD6uB" opacity="1" fill-opacity="0" stroke="#2f4e8f" stroke-width="5" stroke-opacity="1"/>
			</g>
		</g>
		<g>
			<use xlink:href="#d2aX8BlCfL" opacity="1" fill="#142752" fill-opacity="1"/>
		</g>
		<g>
			<g>
				<use xlink:href="#c9ATc8gPw" opacity="1" fill-opacity="0" stroke="#2f4e8f" stroke-width="5" stroke-opacity="1"/>
			</g>
		</g>
		<g>
			<use xlink:href="#aj1ALM9NI" opacity="1" fill="#142752" fill-opacity="1"/>
		</g>
		<g>
			<g>
				<use xlink:href="#d2zSMlSLm5" opacity="1" fill-opacity="0" stroke="#2f4e8f" stroke-width="5" stroke-opacity="1"/>
			</g>
		</g>
		<g>
			<use xlink:href="#dBSLxVkhK" opacity="1" fill="#142752" fill-opacity="1"/>
		</g>
		<g>
			<g>
				<use xlink:href="#diK4HaPhq" opacity="1" fill-opacity="0" stroke="#2f4e8f" stroke-width="5" stroke-opacity="1"/>
			</g>
		</g>
		<g>
			<use xlink:href="#c2FoTbqwd" opacity="1" fill="#142752" fill-opacity="1"/>
		</g>
		<g>
			<g>
				<use xlink:href="#c3td0cwwh8" opacity="1" fill-opacity="0" stroke="#2f4e8f" stroke-width="5" stroke-opacity="1"/>
			</g>
		</g>
		<g>
			<use xlink:href="#c22ITko2u5" opacity="1" fill="#142752" fill-opacity="1"/>
		</g>
		<g>
			<g>
				<use xlink:href="#dEr7jMWUX" opacity="1" fill-opacity="0" stroke="#2f4e8f" stroke-width="5" stroke-opacity="1"/>
			</g>
		</g>
		<g>
			<use xlink:href="#bcK0Ccu3a" opacity="1" fill="#142752" fill-opacity="1"/>
		</g>
		<g>
			<g>
				<use xlink:href="#b1f05dcXqA" opacity="1" fill-opacity="0" stroke="#2f4e8f" stroke-width="5" stroke-opacity="1"/>
			</g>
		</g>
		<g>
			<use xlink:href="#hqSz9CAfp" opacity="1" fill="#142752" fill-opacity="1"/>
		</g>
		<g>
			<g>
				<use xlink:href="#b2MVwb96dD" opacity="1" fill-opacity="0" stroke="#2f4e8f" stroke-width="5" stroke-opacity="1"/>
			</g>
		</g>
		<g>
			<use xlink:href="#d2FfQK2eF" opacity="1" fill="#142752" fill-opacity="1"/>
		</g>
		<g>
			<g>
				<use xlink:href="#aFjhfqtQk" opacity="1" fill-opacity="0" stroke="#2f4e8f" stroke-width="5" stroke-opacity="1"/>
			</g>
		</g>
		<g>
			<use xlink:href="#b4aAXstNkI" opacity="1" fill="#142752" fill-opacity="1"/>
		</g>
		<g>
			<g>
				<use xlink:href="#b7QGm78Ie" opacity="1" fill-opacity="0" stroke="#2f4e8f" stroke-width="5" stroke-opacity="1"/>
			</g>
		</g>
		<g>
			<use xlink:href="#aLaWs2r2h" opacity="1" fill="#142752" fill-opacity="1"/>
		</g>
		<g>
			<g>
				<use xlink:href="#b5gNeDMJO" opacity="1" fill-opacity="0" stroke="#2f4e8f" stroke-width="5" stroke-opacity="1"/>
			</g>
		</g>
		<g>
			<use xlink:href="#ap5hVcmzf" opacity="1" fill="#142752" fill-opacity="1"/>
		</g>
		<g>
			<g>
				<use xlink:href="#a10Mjkgyx1" opacity="1" fill-opacity="0" stroke="#2f4e8f" stroke-width="5" stroke-opacity="1"/>
			</g>
		</g>
		<g>
			<use xlink:href="#a28lswg2pt" opacity="1" fill="#142752" fill-opacity="1"/>
		</g>
		<g>
			<g>
				<use xlink:href="#c136nzONRo" opacity="1" fill-opacity="0" stroke="#2f4e8f" stroke-width="5" stroke-opacity="1"/>
			</g>
		</g>
		<g>
			<use xlink:href="#basaK0BMJ" opacity="1" fill="#142752" fill-opacity="1"/>
		</g>
		<g>
			<g>
				<use xlink:href="#d1APESkzrj" opacity="1" fill-opacity="0" stroke="#2f4e8f" stroke-width="5" stroke-opacity="1"/>
			</g>
		</g>
	</g>
</svg>