<svg
	xmlns="http://www.w3.org/2000/svg"
	xmlns:xlink="http://www.w3.org/1999/xlink" version="1.1" preserveAspectRatio="xMidYMid meet" viewBox="0 0 2000 2000" width="2000" height="2000">
	<defs>
		<path d="M852.85 591.06L854.32 591.18L855.78 591.36L857.24 591.6L858.7 591.89L860.15 592.24L861.59 592.66L863.03 593.13L864.45 593.67L865.86 594.26L867.26 594.92L868.64 595.64L1078.75 710.67L1080.1 711.45L1081.41 712.27L1082.67 713.14L1083.88 714.05L1085.06 715L1086.18 715.99L1087.26 717.03L1088.29 718.09L1089.28 719.2L1090.22 720.34L1091.11 721.5L1091.95 722.7L1092.74 723.93L1093.48 725.19L1094.17 726.47L1094.81 727.77L1095.4 729.1L1095.94 730.45L1096.43 731.82L1096.86 733.2L1097.24 734.6L1097.57 736.01L1097.84 737.44L1098.06 738.87L1098.22 740.32L1098.33 741.77L1098.38 743.22L1098.38 744.69L1098.31 746.15L1098.19 747.61L1098.02 749.08L1097.78 750.54L1097.49 751.99L1097.13 753.44L1096.72 754.89L1096.25 756.32L1095.71 757.74L1095.12 759.16L1094.46 760.55L1093.74 761.93L899.11 1117.44L898.33 1118.79L897.51 1120.09L896.64 1121.35L895.73 1122.57L894.78 1123.74L893.78 1124.87L892.75 1125.95L891.68 1126.98L890.58 1127.97L889.44 1128.9L888.27 1129.79L887.07 1130.63L885.85 1131.43L884.59 1132.17L883.31 1132.86L882 1133.5L880.68 1134.09L879.33 1134.63L877.96 1135.11L876.58 1135.55L875.18 1135.93L873.77 1136.25L872.34 1136.53L870.91 1136.74L869.46 1136.91L868.01 1137.01L866.55 1137.07L865.09 1137.06L863.63 1137L862.17 1136.88L860.7 1136.7L859.24 1136.47L857.78 1136.17L856.33 1135.82L854.89 1135.41L853.46 1134.93L852.03 1134.4L850.62 1133.8L849.23 1133.14L847.85 1132.42L637.73 1017.39L636.38 1016.62L635.08 1015.79L633.82 1014.93L632.6 1014.02L631.43 1013.06L630.3 1012.07L629.22 1011.04L628.19 1009.97L627.2 1008.87L626.27 1007.73L625.38 1006.56L624.54 1005.36L623.74 1004.13L623 1002.88L622.31 1001.59L621.67 1000.29L621.08 998.96L620.54 997.62L620.06 996.25L619.62 994.87L619.24 993.47L618.92 992.05L618.64 990.63L618.43 989.19L618.26 987.75L618.15 986.3L618.1 984.84L618.11 983.38L618.17 981.91L618.29 980.45L618.47 978.99L618.7 977.53L619 976.07L619.35 974.62L619.76 973.18L620.24 971.74L620.77 970.32L621.37 968.91L622.02 967.51L622.74 966.13L817.38 610.63L818.15 609.28L818.97 607.97L819.84 606.71L820.75 605.49L821.71 604.32L822.7 603.2L823.73 602.12L824.8 601.08L825.9 600.1L827.04 599.16L828.21 598.27L829.41 597.43L830.64 596.64L831.89 595.9L833.17 595.21L834.48 594.57L835.81 593.98L837.15 593.44L838.52 592.95L839.9 592.52L841.3 592.14L842.71 591.81L844.14 591.54L845.57 591.32L847.02 591.16L848.47 591.05L849.93 591L851.39 591L852.85 591.06ZM849.96 623.16L849.6 623.2L849.25 623.25L848.9 623.32L848.55 623.4L848.2 623.49L847.86 623.6L847.52 623.72L847.19 623.85L846.86 624L846.54 624.16L846.22 624.33L845.91 624.51L845.61 624.71L845.31 624.92L845.02 625.14L844.74 625.37L844.47 625.61L844.2 625.87L843.95 626.13L843.7 626.41L843.47 626.7L843.24 627L843.03 627.31L842.82 627.64L842.63 627.97L671.35 940.82L671.17 941.16L671.01 941.51L670.86 941.86L670.73 942.21L670.61 942.56L670.51 942.92L670.42 943.28L670.35 943.64L670.29 944L670.25 944.36L670.22 944.72L670.2 945.09L670.2 945.45L670.21 945.81L670.24 946.17L670.28 946.52L670.34 946.88L670.4 947.23L670.48 947.58L670.58 947.93L670.68 948.27L670.8 948.61L670.94 948.94L671.08 949.27L671.24 949.59L671.41 949.91L671.6 950.22L671.79 950.52L672 950.82L672.22 951.11L672.45 951.39L672.7 951.66L672.95 951.92L673.22 952.18L673.5 952.42L673.79 952.66L674.09 952.89L674.4 953.1L674.72 953.3L675.05 953.49L881.57 1066.56L881.91 1066.74L882.26 1066.9L882.6 1067.05L882.96 1067.18L883.31 1067.3L883.67 1067.4L884.03 1067.48L884.39 1067.56L884.75 1067.62L885.11 1067.66L885.47 1067.69L885.83 1067.7L886.19 1067.71L886.55 1067.69L886.91 1067.67L887.27 1067.63L887.62 1067.57L887.98 1067.5L888.33 1067.42L888.67 1067.33L889.01 1067.22L889.35 1067.1L889.68 1066.97L890.01 1066.82L890.34 1066.67L890.65 1066.49L890.96 1066.31L891.27 1066.12L891.56 1065.91L891.85 1065.69L892.13 1065.46L892.41 1065.21L892.67 1064.96L892.93 1064.69L893.17 1064.41L893.41 1064.12L893.63 1063.82L893.85 1063.51L894.05 1063.19L894.24 1062.85L1065.52 750L1065.7 749.66L1065.86 749.31L1066.01 748.96L1066.14 748.61L1066.26 748.26L1066.36 747.9L1066.45 747.54L1066.52 747.18L1066.58 746.82L1066.62 746.46L1066.65 746.1L1066.67 745.74L1066.67 745.37L1066.66 745.01L1066.63 744.66L1066.59 744.3L1066.54 743.94L1066.47 743.59L1066.39 743.24L1066.29 742.9L1066.19 742.55L1066.07 742.22L1065.93 741.88L1065.79 741.56L1065.63 741.23L1065.46 740.92L1065.28 740.61L1065.08 740.3L1064.87 740.01L1064.65 739.72L1064.42 739.44L1064.18 739.16L1063.92 738.9L1063.65 738.64L1063.38 738.4L1063.09 738.16L1062.79 737.94L1062.47 737.72L1062.15 737.52L1061.82 737.33L855.3 624.26L854.96 624.09L854.62 623.92L854.27 623.78L853.92 623.64L853.56 623.53L853.21 623.43L852.85 623.34L852.49 623.27L852.13 623.21L851.76 623.16L851.4 623.13L851.04 623.12L850.68 623.12L850.32 623.13L849.96 623.16Z" id="cUyCrnv2r"/>
		<path d="M1082.81 884.37L1317.47 1011.13L1133.86 1351L899.2 1224.23L1082.81 884.37Z" id="cCwGpy8OT"/>
		<path d="M780.87 1051.91C774.95 1062.74 761.35 1066.71 750.52 1060.79C739.7 1054.86 735.72 1041.26 741.65 1030.43C747.57 1019.61 761.17 1015.63 772 1021.56C782.82 1027.48 786.8 1041.09 780.87 1051.91Z" id="a7xnPvhk1"/>
		<path d="M1092.99 152.28L1094.46 152.4L1095.92 152.57L1097.38 152.81L1098.84 153.1L1100.29 153.46L1101.73 153.87L1103.16 154.34L1104.59 154.88L1106 155.47L1107.39 156.13L1108.77 156.85L1318.89 271.89L1320.24 272.66L1321.54 273.48L1322.81 274.35L1324.02 275.26L1325.2 276.21L1326.32 277.21L1327.4 278.24L1328.43 279.31L1329.42 280.41L1330.36 281.55L1331.25 282.72L1332.09 283.92L1332.88 285.15L1333.62 286.4L1334.31 287.68L1334.95 288.99L1335.54 290.31L1336.08 291.66L1336.57 293.03L1337 294.41L1337.38 295.81L1337.71 297.22L1337.98 298.65L1338.2 300.08L1338.36 301.53L1338.47 302.98L1338.52 304.44L1338.51 305.9L1338.45 307.36L1338.33 308.83L1338.16 310.29L1337.92 311.75L1337.63 313.21L1337.27 314.66L1336.86 316.1L1336.38 317.53L1335.85 318.96L1335.25 320.37L1334.6 321.76L1333.88 323.14L1139.24 678.65L1138.47 680L1137.65 681.3L1136.78 682.57L1135.87 683.78L1134.92 684.96L1133.92 686.08L1132.89 687.16L1131.82 688.19L1130.72 689.18L1129.58 690.12L1128.41 691.01L1127.21 691.85L1125.98 692.64L1124.73 693.38L1123.45 694.07L1122.14 694.71L1120.82 695.3L1119.47 695.84L1118.1 696.33L1116.72 696.76L1115.32 697.14L1113.91 697.47L1112.48 697.74L1111.05 697.96L1109.6 698.12L1108.15 698.23L1106.69 698.28L1105.23 698.27L1103.77 698.21L1102.3 698.09L1100.84 697.92L1099.38 697.68L1097.92 697.39L1096.47 697.03L1095.03 696.62L1093.6 696.15L1092.17 695.61L1090.76 695.01L1089.37 694.36L1087.99 693.64L877.87 578.6L876.52 577.83L875.22 577.01L873.95 576.14L872.74 575.23L871.56 574.28L870.44 573.28L869.36 572.25L868.33 571.18L867.34 570.08L866.4 568.94L865.51 567.77L864.67 566.57L863.88 565.34L863.14 564.09L862.45 562.81L861.81 561.5L861.22 560.17L860.68 558.83L860.19 557.46L859.76 556.08L859.38 554.68L859.05 553.27L858.78 551.84L858.56 550.41L858.4 548.96L858.29 547.51L858.24 546.05L858.25 544.59L858.31 543.13L858.43 541.66L858.6 540.2L858.84 538.74L859.13 537.28L859.49 535.83L859.9 534.39L860.37 532.95L860.91 531.53L861.51 530.12L862.16 528.73L862.88 527.34L1057.52 171.84L1058.29 170.49L1059.11 169.18L1059.98 167.92L1060.89 166.71L1061.84 165.53L1062.84 164.41L1063.87 163.33L1064.94 162.3L1066.04 161.31L1067.18 160.37L1068.35 159.48L1069.55 158.64L1070.78 157.85L1072.03 157.11L1073.31 156.42L1074.62 155.78L1075.94 155.19L1077.29 154.65L1078.66 154.16L1080.04 153.73L1081.44 153.35L1082.85 153.02L1084.28 152.75L1085.71 152.53L1087.16 152.37L1088.61 152.26L1090.07 152.21L1091.53 152.22L1092.99 152.28ZM1090.1 184.37L1089.74 184.41L1089.39 184.46L1089.03 184.53L1088.68 184.61L1088.34 184.71L1088 184.81L1087.66 184.93L1087.33 185.07L1087 185.21L1086.68 185.37L1086.36 185.54L1086.05 185.72L1085.74 185.92L1085.45 186.13L1085.16 186.35L1084.88 186.58L1084.6 186.82L1084.34 187.08L1084.09 187.35L1083.84 187.62L1083.6 187.91L1083.38 188.21L1083.16 188.53L1082.96 188.85L1082.77 189.18L911.49 502.04L911.31 502.38L911.15 502.72L911 503.07L910.87 503.42L910.75 503.78L910.65 504.13L910.56 504.49L910.49 504.85L910.43 505.21L910.39 505.58L910.36 505.94L910.34 506.3L910.34 506.66L910.35 507.02L910.38 507.38L910.42 507.74L910.47 508.09L910.54 508.44L910.62 508.79L910.72 509.14L910.82 509.48L910.94 509.82L911.08 510.15L911.22 510.48L911.38 510.8L911.55 511.12L911.73 511.43L911.93 511.73L912.14 512.03L912.36 512.32L912.59 512.6L912.83 512.87L913.09 513.14L913.36 513.39L913.63 513.64L913.92 513.87L914.22 514.1L914.54 514.31L914.86 514.52L915.19 514.71L1121.71 627.77L1122.05 627.95L1122.39 628.11L1122.74 628.26L1123.09 628.39L1123.45 628.51L1123.81 628.61L1124.16 628.7L1124.52 628.77L1124.89 628.83L1125.25 628.87L1125.61 628.9L1125.97 628.92L1126.33 628.92L1126.69 628.91L1127.05 628.88L1127.41 628.84L1127.76 628.78L1128.12 628.72L1128.46 628.64L1128.81 628.54L1129.15 628.44L1129.49 628.31L1129.82 628.18L1130.15 628.04L1130.47 627.88L1130.79 627.71L1131.1 627.52L1131.4 627.33L1131.7 627.12L1131.99 626.9L1132.27 626.67L1132.54 626.42L1132.81 626.17L1133.06 625.9L1133.31 625.62L1133.54 625.33L1133.77 625.03L1133.98 624.72L1134.19 624.4L1134.38 624.06L1305.66 311.21L1305.84 310.87L1306 310.53L1306.15 310.18L1306.28 309.83L1306.4 309.47L1306.5 309.11L1306.59 308.76L1306.66 308.4L1306.72 308.03L1306.76 307.67L1306.79 307.31L1306.81 306.95L1306.81 306.59L1306.8 306.23L1306.77 305.87L1306.73 305.51L1306.68 305.16L1306.61 304.8L1306.53 304.45L1306.43 304.11L1306.33 303.77L1306.21 303.43L1306.07 303.1L1305.93 302.77L1305.77 302.45L1305.6 302.13L1305.41 301.82L1305.22 301.51L1305.01 301.22L1304.79 300.93L1304.56 300.65L1304.32 300.37L1304.06 300.11L1303.79 299.86L1303.51 299.61L1303.23 299.37L1302.92 299.15L1302.61 298.94L1302.29 298.73L1301.96 298.54L1095.44 185.48L1095.1 185.3L1094.76 185.14L1094.41 184.99L1094.05 184.86L1093.7 184.74L1093.34 184.64L1092.99 184.55L1092.63 184.48L1092.26 184.42L1091.9 184.38L1091.54 184.35L1091.18 184.33L1090.82 184.33L1090.46 184.34L1090.1 184.37Z" id="a5cjAawgpq"/>
		<path d="M1021.01 613.12C1015.09 623.95 1001.49 627.93 990.66 622C979.83 616.07 975.86 602.47 981.78 591.65C987.71 580.82 1001.31 576.84 1012.14 582.77C1022.96 588.7 1026.94 602.3 1021.01 613.12Z" id="b18EBI5Dl6"/>
		<path d="M413.54 695.59L415 695.7L416.47 695.88L417.93 696.12L419.38 696.41L420.83 696.76L422.28 697.18L423.71 697.65L425.13 698.19L426.54 698.78L427.94 699.44L429.32 700.16L639.43 815.19L640.78 815.97L642.09 816.79L643.35 817.66L644.57 818.57L645.74 819.52L646.87 820.51L647.95 821.55L648.98 822.61L649.96 823.72L650.9 824.86L651.79 826.03L652.63 827.23L653.42 828.45L654.17 829.71L654.86 830.99L655.5 832.3L656.09 833.62L656.63 834.97L657.11 836.34L657.54 837.72L657.93 839.12L658.25 840.53L658.52 841.96L658.74 843.39L658.91 844.84L659.01 846.29L659.06 847.74L659.06 849.21L659 850.67L658.88 852.13L658.7 853.6L658.47 855.06L658.17 856.51L657.82 857.97L657.41 859.41L656.93 860.84L656.4 862.27L655.8 863.68L655.14 865.07L654.42 866.45L459.79 1221.96L459.02 1223.31L458.19 1224.61L457.33 1225.87L456.42 1227.09L455.46 1228.26L454.47 1229.39L453.44 1230.47L452.37 1231.5L451.27 1232.49L450.13 1233.42L448.96 1234.31L447.76 1235.15L446.53 1235.95L445.28 1236.69L443.99 1237.38L442.69 1238.02L441.36 1238.61L440.02 1239.15L438.65 1239.63L437.27 1240.07L435.87 1240.45L434.45 1240.77L433.03 1241.05L431.59 1241.26L430.15 1241.43L428.7 1241.53L427.24 1241.59L425.78 1241.58L424.31 1241.52L422.85 1241.4L421.39 1241.22L419.93 1240.99L418.47 1240.69L417.02 1240.34L415.58 1239.93L414.14 1239.45L412.72 1238.92L411.31 1238.32L409.91 1237.66L408.53 1236.95L198.42 1121.91L197.07 1121.14L195.76 1120.31L194.5 1119.45L193.28 1118.54L192.11 1117.58L190.99 1116.59L189.91 1115.56L188.87 1114.49L187.89 1113.39L186.95 1112.25L186.06 1111.08L185.22 1109.88L184.43 1108.65L183.69 1107.4L183 1106.11L182.35 1104.81L181.77 1103.48L181.23 1102.14L180.74 1100.77L180.31 1099.39L179.93 1097.99L179.6 1096.57L179.33 1095.15L179.11 1093.71L178.95 1092.27L178.84 1090.82L178.79 1089.36L178.79 1087.9L178.85 1086.44L178.97 1084.97L179.15 1083.51L179.39 1082.05L179.68 1080.59L180.03 1079.14L180.45 1077.7L180.92 1076.26L181.46 1074.84L182.05 1073.43L182.71 1072.03L183.43 1070.65L378.06 715.15L378.84 713.8L379.66 712.49L380.53 711.23L381.44 710.01L382.39 708.84L383.38 707.72L384.41 706.64L385.48 705.6L386.59 704.62L387.72 703.68L388.89 702.79L390.09 701.95L391.32 701.16L392.58 700.42L393.86 699.73L395.16 699.09L396.49 698.5L397.84 697.96L399.2 697.47L400.59 697.04L401.99 696.66L403.4 696.33L404.82 696.06L406.26 695.84L407.7 695.68L409.16 695.57L410.61 695.52L412.07 695.52L413.54 695.59ZM410.64 727.68L410.29 727.72L409.93 727.77L409.58 727.84L409.23 727.92L408.88 728.01L408.54 728.12L408.21 728.24L407.87 728.37L407.54 728.52L407.22 728.68L406.9 728.85L406.59 729.03L406.29 729.23L405.99 729.44L405.71 729.66L405.42 729.89L405.15 730.13L404.89 730.39L404.63 730.65L404.39 730.93L404.15 731.22L403.93 731.52L403.71 731.83L403.51 732.16L403.32 732.49L232.03 1045.34L231.86 1045.68L231.69 1046.03L231.55 1046.38L231.41 1046.73L231.3 1047.08L231.19 1047.44L231.11 1047.8L231.03 1048.16L230.98 1048.52L230.93 1048.88L230.9 1049.25L230.89 1049.61L230.89 1049.97L230.9 1050.33L230.93 1050.69L230.97 1051.04L231.02 1051.4L231.09 1051.75L231.17 1052.1L231.26 1052.45L231.37 1052.79L231.49 1053.13L231.62 1053.46L231.77 1053.79L231.93 1054.11L232.1 1054.43L232.28 1054.74L232.48 1055.04L232.68 1055.34L232.9 1055.63L233.14 1055.91L233.38 1056.18L233.64 1056.44L233.9 1056.7L234.18 1056.95L234.47 1057.18L234.77 1057.41L235.08 1057.62L235.41 1057.82L235.74 1058.02L442.25 1171.08L442.59 1171.26L442.94 1171.42L443.29 1171.57L443.64 1171.7L443.99 1171.82L444.35 1171.92L444.71 1172.01L445.07 1172.08L445.43 1172.14L445.79 1172.18L446.16 1172.21L446.52 1172.22L446.88 1172.23L447.24 1172.21L447.6 1172.19L447.95 1172.15L448.31 1172.09L448.66 1172.02L449.01 1171.94L449.36 1171.85L449.7 1171.74L450.04 1171.62L450.37 1171.49L450.7 1171.34L451.02 1171.19L451.34 1171.01L451.65 1170.83L451.95 1170.64L452.25 1170.43L452.54 1170.21L452.82 1169.98L453.09 1169.73L453.36 1169.48L453.61 1169.21L453.86 1168.93L454.09 1168.64L454.32 1168.34L454.53 1168.03L454.73 1167.71L454.93 1167.37L626.21 854.52L626.39 854.18L626.55 853.83L626.7 853.49L626.83 853.13L626.94 852.78L627.05 852.42L627.13 852.06L627.21 851.7L627.27 851.34L627.31 850.98L627.34 850.62L627.35 850.26L627.36 849.9L627.34 849.54L627.32 849.18L627.28 848.82L627.22 848.46L627.15 848.11L627.07 847.76L626.98 847.42L626.87 847.07L626.75 846.74L626.62 846.4L626.47 846.08L626.31 845.75L626.14 845.44L625.96 845.13L625.76 844.82L625.56 844.53L625.34 844.24L625.11 843.96L624.86 843.68L624.61 843.42L624.34 843.16L624.06 842.92L623.77 842.68L623.47 842.46L623.16 842.24L622.84 842.04L622.5 841.85L415.99 728.79L415.65 728.61L415.3 728.44L414.95 728.3L414.6 728.17L414.25 728.05L413.89 727.95L413.53 727.86L413.17 727.79L412.81 727.73L412.45 727.68L412.09 727.65L411.72 727.64L411.36 727.64L411 727.65L410.64 727.68Z" id="acNUCHF5p"/>
		<path d="M341.56 1156.43C335.63 1167.26 322.03 1171.23 311.21 1165.31C300.38 1159.38 296.4 1145.78 302.33 1134.95C308.26 1124.13 321.86 1120.15 332.68 1126.08C343.51 1132.01 347.49 1145.61 341.56 1156.43Z" id="as8HGPbop"/>
		<path d="M653.68 256.8L655.14 256.92L656.6 257.09L658.07 257.33L659.52 257.62L660.97 257.98L662.42 258.39L663.85 258.86L665.27 259.4L666.68 260L668.08 260.65L669.46 261.37L879.57 376.41L880.92 377.18L882.23 378L883.49 378.87L884.71 379.78L885.88 380.73L887.01 381.73L888.09 382.76L889.12 383.83L890.1 384.93L891.04 386.07L891.93 387.24L892.77 388.44L893.56 389.67L894.3 390.92L895 392.2L895.64 393.51L896.23 394.83L896.76 396.18L897.25 397.55L897.68 398.93L898.06 400.33L898.39 401.74L898.66 403.17L898.88 404.6L899.04 406.05L899.15 407.5L899.2 408.96L899.2 410.42L899.14 411.88L899.02 413.35L898.84 414.81L898.61 416.27L898.31 417.73L897.96 419.18L897.54 420.62L897.07 422.05L896.54 423.48L895.94 424.89L895.28 426.28L894.56 427.67L699.93 783.17L699.15 784.52L698.33 785.83L697.46 787.09L696.55 788.3L695.6 789.48L694.61 790.6L693.58 791.68L692.51 792.71L691.4 793.7L690.27 794.64L689.1 795.53L687.9 796.37L686.67 797.16L685.41 797.9L684.13 798.59L682.83 799.23L681.5 799.82L680.15 800.36L678.79 800.85L677.4 801.28L676.01 801.66L674.59 801.99L673.17 802.26L671.73 802.48L670.29 802.64L668.84 802.75L667.38 802.8L665.92 802.79L664.45 802.73L662.99 802.61L661.53 802.44L660.06 802.2L658.61 801.91L657.16 801.55L655.71 801.14L654.28 800.67L652.86 800.13L651.45 799.54L650.05 798.88L648.67 798.16L438.56 683.12L437.21 682.35L435.9 681.53L434.64 680.66L433.42 679.75L432.25 678.8L431.12 677.8L430.04 676.77L429.01 675.7L428.03 674.6L427.09 673.46L426.2 672.29L425.36 671.09L424.57 669.86L423.83 668.61L423.13 667.33L422.49 666.02L421.9 664.7L421.37 663.35L420.88 661.98L420.45 660.6L420.07 659.2L419.74 657.79L419.47 656.36L419.25 654.93L419.09 653.48L418.98 652.03L418.93 650.57L418.93 649.11L418.99 647.65L419.11 646.18L419.29 644.72L419.52 643.26L419.82 641.8L420.17 640.35L420.59 638.91L421.06 637.48L421.59 636.05L422.19 634.64L422.85 633.25L423.57 631.87L618.2 276.36L618.98 275.01L619.8 273.71L620.67 272.44L621.58 271.23L622.53 270.05L623.52 268.93L624.55 267.85L625.62 266.82L626.73 265.83L627.86 264.89L629.03 264L630.23 263.16L631.46 262.37L632.72 261.63L634 260.94L635.3 260.3L636.63 259.71L637.98 259.17L639.34 258.68L640.73 258.25L642.12 257.87L643.54 257.54L644.96 257.27L646.4 257.05L647.84 256.89L649.29 256.78L650.75 256.73L652.21 256.74L653.68 256.8ZM650.78 288.89L650.43 288.93L650.07 288.98L649.72 289.05L649.37 289.13L649.02 289.23L648.68 289.33L648.34 289.45L648.01 289.59L647.68 289.73L647.36 289.89L647.04 290.06L646.73 290.24L646.43 290.44L646.13 290.65L645.84 290.87L645.56 291.1L645.29 291.34L645.03 291.6L644.77 291.87L644.52 292.14L644.29 292.43L644.06 292.73L643.85 293.05L643.65 293.37L643.45 293.7L472.17 606.56L471.99 606.9L471.83 607.24L471.68 607.59L471.55 607.94L471.44 608.3L471.33 608.65L471.25 609.01L471.17 609.37L471.12 609.73L471.07 610.1L471.04 610.46L471.03 610.82L471.03 611.18L471.04 611.54L471.06 611.9L471.11 612.26L471.16 612.61L471.23 612.96L471.31 613.31L471.4 613.66L471.51 614L471.63 614.34L471.76 614.67L471.91 615L472.07 615.32L472.24 615.64L472.42 615.95L472.62 616.25L472.82 616.55L473.04 616.84L473.27 617.12L473.52 617.39L473.77 617.66L474.04 617.91L474.32 618.16L474.61 618.39L474.91 618.62L475.22 618.83L475.54 619.04L475.88 619.23L682.39 732.29L682.73 732.47L683.08 732.63L683.43 732.78L683.78 732.91L684.13 733.03L684.49 733.13L684.85 733.22L685.21 733.29L685.57 733.35L685.93 733.39L686.29 733.42L686.66 733.44L687.02 733.44L687.38 733.43L687.74 733.4L688.09 733.36L688.45 733.3L688.8 733.24L689.15 733.16L689.5 733.06L689.84 732.96L690.18 732.84L690.51 732.7L690.84 732.56L691.16 732.4L691.48 732.23L691.79 732.04L692.09 731.85L692.39 731.64L692.68 731.42L692.96 731.19L693.23 730.95L693.49 730.69L693.75 730.42L693.99 730.14L694.23 729.86L694.45 729.55L694.67 729.24L694.87 728.92L695.06 728.59L866.35 415.73L866.52 415.39L866.69 415.05L866.83 414.7L866.97 414.35L867.08 413.99L867.19 413.63L867.27 413.28L867.35 412.92L867.4 412.55L867.45 412.19L867.48 411.83L867.49 411.47L867.49 411.11L867.48 410.75L867.45 410.39L867.41 410.03L867.36 409.68L867.29 409.32L867.21 408.98L867.12 408.63L867.01 408.29L866.89 407.95L866.76 407.62L866.61 407.29L866.45 406.97L866.28 406.65L866.1 406.34L865.9 406.04L865.7 405.74L865.48 405.45L865.24 405.17L865 404.9L864.75 404.63L864.48 404.38L864.2 404.13L863.91 403.9L863.61 403.67L863.3 403.46L862.97 403.25L862.64 403.06L656.13 290L655.79 289.82L655.44 289.66L655.09 289.51L654.74 289.38L654.39 289.26L654.03 289.16L653.67 289.07L653.31 289L652.95 288.94L652.59 288.9L652.23 288.87L651.86 288.85L651.5 288.85L651.14 288.86L650.78 288.89Z" id="b2YRDwIcmc"/>
		<path d="M581.7 717.64C575.77 728.47 562.17 732.45 551.34 726.52C540.52 720.59 536.54 706.99 542.47 696.17C548.4 685.34 562 681.36 572.82 687.29C583.65 693.22 587.62 706.82 581.7 717.64Z" id="c3d6oQJui3"/>
		<path d="M612.71 1034.81L614.18 1034.93L615.64 1035.11L617.1 1035.35L618.56 1035.64L620.01 1035.99L621.45 1036.41L622.89 1036.88L624.31 1037.42L625.72 1038.01L627.12 1038.67L628.5 1039.39L838.61 1154.42L839.96 1155.2L841.27 1156.02L842.53 1156.89L843.75 1157.8L844.92 1158.75L846.04 1159.74L847.12 1160.78L848.16 1161.84L849.14 1162.95L850.08 1164.09L850.97 1165.25L851.81 1166.45L852.6 1167.68L853.34 1168.94L854.03 1170.22L854.67 1171.52L855.26 1172.85L855.8 1174.2L856.29 1175.57L856.72 1176.95L857.1 1178.35L857.43 1179.76L857.7 1181.19L857.92 1182.62L858.08 1184.07L858.19 1185.52L858.24 1186.97L858.24 1188.44L858.17 1189.9L858.06 1191.36L857.88 1192.83L857.64 1194.29L857.35 1195.74L857 1197.19L856.58 1198.64L856.11 1200.07L855.57 1201.49L854.98 1202.91L854.32 1204.3L853.6 1205.68L658.97 1561.19L658.19 1562.54L657.37 1563.84L656.5 1565.1L655.59 1566.32L654.64 1567.49L653.65 1568.62L652.61 1569.7L651.55 1570.73L650.44 1571.72L649.31 1572.65L648.14 1573.54L646.94 1574.38L645.71 1575.18L644.45 1575.92L643.17 1576.61L641.87 1577.25L640.54 1577.84L639.19 1578.38L637.83 1578.86L636.44 1579.3L635.04 1579.68L633.63 1580L632.21 1580.28L630.77 1580.49L629.33 1580.66L627.87 1580.76L626.42 1580.82L624.95 1580.81L623.49 1580.75L622.03 1580.63L620.56 1580.45L619.1 1580.22L617.65 1579.92L616.2 1579.57L614.75 1579.16L613.32 1578.68L611.9 1578.15L610.49 1577.55L609.09 1576.89L607.71 1576.17L397.59 1461.14L396.24 1460.37L394.94 1459.54L393.68 1458.68L392.46 1457.77L391.29 1456.81L390.16 1455.82L389.08 1454.79L388.05 1453.72L387.06 1452.62L386.13 1451.48L385.24 1450.31L384.4 1449.11L383.61 1447.88L382.86 1446.63L382.17 1445.34L381.53 1444.04L380.94 1442.71L380.4 1441.37L379.92 1440L379.48 1438.62L379.1 1437.22L378.78 1435.8L378.5 1434.38L378.29 1432.94L378.12 1431.5L378.02 1430.05L377.96 1428.59L377.97 1427.13L378.03 1425.66L378.15 1424.2L378.33 1422.74L378.56 1421.28L378.86 1419.82L379.21 1418.37L379.62 1416.93L380.1 1415.49L380.63 1414.07L381.23 1412.66L381.89 1411.26L382.61 1409.88L577.24 1054.38L578.01 1053.03L578.84 1051.72L579.7 1050.46L580.61 1049.24L581.57 1048.07L582.56 1046.95L583.59 1045.87L584.66 1044.83L585.76 1043.85L586.9 1042.91L588.07 1042.02L589.27 1041.18L590.5 1040.39L591.75 1039.65L593.04 1038.96L594.34 1038.32L595.67 1037.73L597.01 1037.19L598.38 1036.7L599.76 1036.27L601.16 1035.89L602.58 1035.56L604 1035.29L605.44 1035.07L606.88 1034.91L608.33 1034.8L609.79 1034.75L611.25 1034.75L612.71 1034.81ZM609.82 1066.91L609.46 1066.95L609.11 1067L608.76 1067.07L608.41 1067.15L608.06 1067.24L607.72 1067.35L607.38 1067.47L607.05 1067.6L606.72 1067.75L606.4 1067.91L606.08 1068.08L605.77 1068.26L605.47 1068.46L605.17 1068.67L604.88 1068.89L604.6 1069.12L604.33 1069.36L604.06 1069.62L603.81 1069.88L603.56 1070.16L603.33 1070.45L603.1 1070.75L602.89 1071.06L602.68 1071.39L602.49 1071.72L431.21 1384.57L431.03 1384.91L430.87 1385.26L430.72 1385.61L430.59 1385.96L430.47 1386.31L430.37 1386.67L430.28 1387.03L430.21 1387.39L430.15 1387.75L430.11 1388.11L430.08 1388.47L430.06 1388.84L430.06 1389.2L430.08 1389.56L430.1 1389.92L430.14 1390.27L430.2 1390.63L430.26 1390.98L430.35 1391.33L430.44 1391.68L430.55 1392.02L430.67 1392.36L430.8 1392.69L430.95 1393.02L431.1 1393.34L431.27 1393.66L431.46 1393.97L431.65 1394.27L431.86 1394.57L432.08 1394.86L432.31 1395.14L432.56 1395.41L432.81 1395.67L433.08 1395.93L433.36 1396.17L433.65 1396.41L433.95 1396.64L434.26 1396.85L434.58 1397.05L434.92 1397.24L641.43 1510.31L641.77 1510.49L642.12 1510.65L642.47 1510.8L642.82 1510.93L643.17 1511.05L643.53 1511.15L643.89 1511.23L644.25 1511.31L644.61 1511.37L644.97 1511.41L645.33 1511.44L645.69 1511.45L646.05 1511.46L646.42 1511.44L646.77 1511.42L647.13 1511.38L647.49 1511.32L647.84 1511.25L648.19 1511.17L648.53 1511.08L648.88 1510.97L649.21 1510.85L649.55 1510.72L649.87 1510.57L650.2 1510.42L650.51 1510.24L650.82 1510.06L651.13 1509.87L651.42 1509.66L651.71 1509.44L651.99 1509.21L652.27 1508.96L652.53 1508.71L652.79 1508.44L653.03 1508.16L653.27 1507.87L653.49 1507.57L653.71 1507.26L653.91 1506.94L654.1 1506.6L825.38 1193.75L825.56 1193.41L825.72 1193.06L825.87 1192.71L826 1192.36L826.12 1192.01L826.22 1191.65L826.31 1191.29L826.38 1190.93L826.44 1190.57L826.49 1190.21L826.52 1189.85L826.53 1189.49L826.53 1189.12L826.52 1188.76L826.49 1188.41L826.45 1188.05L826.4 1187.69L826.33 1187.34L826.25 1186.99L826.16 1186.65L826.05 1186.3L825.93 1185.97L825.8 1185.63L825.65 1185.31L825.49 1184.98L825.32 1184.67L825.14 1184.36L824.94 1184.05L824.73 1183.76L824.51 1183.47L824.28 1183.19L824.04 1182.91L823.78 1182.65L823.52 1182.39L823.24 1182.15L822.95 1181.91L822.65 1181.69L822.34 1181.47L822.01 1181.27L821.68 1181.08L615.16 1068.01L614.82 1067.84L614.48 1067.67L614.13 1067.53L613.78 1067.39L613.42 1067.28L613.07 1067.18L612.71 1067.09L612.35 1067.02L611.99 1066.96L611.63 1066.91L611.26 1066.88L610.9 1066.87L610.54 1066.87L610.18 1066.88L609.82 1066.91Z" id="a2HI54WU3h"/>
		<path d="M540.74 1495.66C534.81 1506.49 521.21 1510.46 510.38 1504.54C499.56 1498.61 495.58 1485.01 501.51 1474.18C507.43 1463.36 521.03 1459.38 531.86 1465.31C542.69 1471.23 546.66 1484.84 540.74 1495.66Z" id="a5HT7zsOn5"/>
		<path d="M1543.29 738.58L1544.76 738.7L1546.22 738.88L1547.68 739.12L1549.14 739.41L1550.59 739.76L1552.03 740.18L1553.47 740.65L1554.89 741.19L1556.3 741.78L1557.7 742.44L1559.08 743.16L1769.19 858.19L1770.54 858.97L1771.85 859.79L1773.11 860.66L1774.33 861.57L1775.5 862.52L1776.62 863.51L1777.7 864.55L1778.74 865.61L1779.72 866.72L1780.66 867.86L1781.55 869.03L1782.39 870.23L1783.18 871.45L1783.92 872.71L1784.61 873.99L1785.25 875.29L1785.84 876.62L1786.38 877.97L1786.87 879.34L1787.3 880.72L1787.68 882.12L1788.01 883.53L1788.28 884.96L1788.5 886.39L1788.66 887.84L1788.77 889.29L1788.82 890.74L1788.82 892.21L1788.75 893.67L1788.64 895.13L1788.46 896.6L1788.22 898.06L1787.93 899.51L1787.58 900.97L1787.16 902.41L1786.69 903.84L1786.15 905.27L1785.56 906.68L1784.9 908.07L1784.18 909.45L1589.55 1264.96L1588.77 1266.31L1587.95 1267.61L1587.08 1268.87L1586.17 1270.09L1585.22 1271.26L1584.23 1272.39L1583.19 1273.47L1582.13 1274.5L1581.02 1275.49L1579.89 1276.42L1578.72 1277.31L1577.52 1278.15L1576.29 1278.95L1575.03 1279.69L1573.75 1280.38L1572.45 1281.02L1571.12 1281.61L1569.77 1282.15L1568.41 1282.63L1567.02 1283.07L1565.62 1283.45L1564.21 1283.77L1562.79 1284.05L1561.35 1284.26L1559.91 1284.43L1558.45 1284.53L1557 1284.59L1555.53 1284.58L1554.07 1284.52L1552.61 1284.4L1551.14 1284.22L1549.68 1283.99L1548.23 1283.69L1546.78 1283.34L1545.33 1282.93L1543.9 1282.45L1542.48 1281.92L1541.07 1281.32L1539.67 1280.66L1538.29 1279.94L1328.17 1164.91L1326.82 1164.14L1325.52 1163.31L1324.26 1162.45L1323.04 1161.54L1321.87 1160.58L1320.74 1159.59L1319.66 1158.56L1318.63 1157.49L1317.64 1156.39L1316.71 1155.25L1315.82 1154.08L1314.98 1152.88L1314.19 1151.65L1313.44 1150.4L1312.75 1149.11L1312.11 1147.81L1311.52 1146.48L1310.98 1145.14L1310.5 1143.77L1310.06 1142.39L1309.68 1140.99L1309.36 1139.57L1309.08 1138.15L1308.87 1136.71L1308.7 1135.27L1308.6 1133.82L1308.54 1132.36L1308.55 1130.9L1308.61 1129.44L1308.73 1127.97L1308.91 1126.51L1309.14 1125.05L1309.44 1123.59L1309.79 1122.14L1310.2 1120.7L1310.68 1119.26L1311.21 1117.84L1311.81 1116.43L1312.47 1115.03L1313.19 1113.65L1507.82 758.15L1508.59 756.8L1509.42 755.49L1510.28 754.23L1511.19 753.01L1512.15 751.84L1513.14 750.72L1514.17 749.64L1515.24 748.6L1516.34 747.62L1517.48 746.68L1518.65 745.79L1519.85 744.95L1521.08 744.16L1522.33 743.42L1523.62 742.73L1524.92 742.09L1526.25 741.5L1527.59 740.96L1528.96 740.47L1530.34 740.04L1531.74 739.66L1533.16 739.33L1534.58 739.06L1536.02 738.84L1537.46 738.68L1538.91 738.57L1540.37 738.52L1541.83 738.52L1543.29 738.58ZM1540.4 770.68L1540.04 770.72L1539.69 770.77L1539.34 770.84L1538.99 770.92L1538.64 771.01L1538.3 771.12L1537.96 771.24L1537.63 771.37L1537.3 771.52L1536.98 771.68L1536.66 771.85L1536.35 772.03L1536.05 772.23L1535.75 772.44L1535.46 772.66L1535.18 772.89L1534.91 773.13L1534.64 773.39L1534.39 773.65L1534.14 773.93L1533.91 774.22L1533.68 774.52L1533.47 774.83L1533.26 775.16L1533.07 775.49L1361.79 1088.34L1361.61 1088.68L1361.45 1089.03L1361.3 1089.38L1361.17 1089.73L1361.05 1090.08L1360.95 1090.44L1360.86 1090.8L1360.79 1091.16L1360.73 1091.52L1360.69 1091.88L1360.66 1092.24L1360.64 1092.61L1360.64 1092.97L1360.66 1093.33L1360.68 1093.69L1360.72 1094.04L1360.78 1094.4L1360.84 1094.75L1360.93 1095.1L1361.02 1095.45L1361.13 1095.79L1361.25 1096.13L1361.38 1096.46L1361.53 1096.79L1361.68 1097.11L1361.85 1097.43L1362.04 1097.74L1362.23 1098.04L1362.44 1098.34L1362.66 1098.63L1362.89 1098.91L1363.14 1099.18L1363.39 1099.44L1363.66 1099.7L1363.94 1099.95L1364.23 1100.18L1364.53 1100.41L1364.84 1100.62L1365.16 1100.82L1365.5 1101.01L1572.01 1214.08L1572.35 1214.26L1572.7 1214.42L1573.05 1214.57L1573.4 1214.7L1573.75 1214.82L1574.11 1214.92L1574.47 1215.01L1574.83 1215.08L1575.19 1215.14L1575.55 1215.18L1575.91 1215.21L1576.27 1215.22L1576.63 1215.23L1577 1215.21L1577.35 1215.19L1577.71 1215.15L1578.07 1215.09L1578.42 1215.02L1578.77 1214.94L1579.11 1214.85L1579.46 1214.74L1579.79 1214.62L1580.13 1214.49L1580.45 1214.34L1580.78 1214.19L1581.09 1214.01L1581.4 1213.83L1581.71 1213.64L1582 1213.43L1582.29 1213.21L1582.57 1212.98L1582.85 1212.73L1583.11 1212.48L1583.37 1212.21L1583.61 1211.93L1583.85 1211.64L1584.07 1211.34L1584.29 1211.03L1584.49 1210.71L1584.68 1210.37L1755.96 897.52L1756.14 897.18L1756.3 896.83L1756.45 896.48L1756.58 896.13L1756.7 895.78L1756.8 895.42L1756.89 895.06L1756.96 894.7L1757.02 894.34L1757.07 893.98L1757.1 893.62L1757.11 893.26L1757.11 892.9L1757.1 892.53L1757.07 892.18L1757.03 891.82L1756.98 891.46L1756.91 891.11L1756.83 890.76L1756.74 890.42L1756.63 890.07L1756.51 889.74L1756.38 889.4L1756.23 889.08L1756.07 888.75L1755.9 888.44L1755.72 888.13L1755.52 887.82L1755.31 887.53L1755.09 887.24L1754.86 886.96L1754.62 886.68L1754.36 886.42L1754.1 886.16L1753.82 885.92L1753.53 885.68L1753.23 885.46L1752.92 885.24L1752.59 885.04L1752.26 884.85L1545.74 771.78L1545.4 771.61L1545.06 771.44L1544.71 771.3L1544.36 771.16L1544 771.05L1543.65 770.95L1543.29 770.86L1542.93 770.79L1542.57 770.73L1542.21 770.68L1541.84 770.65L1541.48 770.64L1541.12 770.64L1540.76 770.65L1540.4 770.68Z" id="a1W5NT8sHe"/>
		<path d="M1303.16 1175.33L1304.62 1175.45L1306.08 1175.63L1307.54 1175.86L1309 1176.16L1310.45 1176.51L1311.89 1176.92L1313.33 1177.4L1314.75 1177.93L1316.16 1178.53L1317.56 1179.19L1318.94 1179.91L1529.05 1294.94L1530.4 1295.72L1531.71 1296.54L1532.97 1297.4L1534.19 1298.32L1535.36 1299.27L1536.49 1300.26L1537.56 1301.29L1538.6 1302.36L1539.58 1303.46L1540.52 1304.6L1541.41 1305.77L1542.25 1306.97L1543.04 1308.2L1543.78 1309.46L1544.47 1310.74L1545.12 1312.04L1545.71 1313.37L1546.24 1314.72L1546.73 1316.08L1547.16 1317.47L1547.54 1318.86L1547.87 1320.28L1548.14 1321.7L1548.36 1323.14L1548.52 1324.58L1548.63 1326.03L1548.68 1327.49L1548.68 1328.95L1548.62 1330.42L1548.5 1331.88L1548.32 1333.34L1548.08 1334.8L1547.79 1336.26L1547.44 1337.71L1547.02 1339.15L1546.55 1340.59L1546.01 1342.01L1545.42 1343.42L1544.76 1344.82L1544.04 1346.2L1349.41 1701.7L1348.63 1703.05L1347.81 1704.36L1346.94 1705.62L1346.03 1706.84L1345.08 1708.01L1344.09 1709.14L1343.06 1710.21L1341.99 1711.25L1340.88 1712.23L1339.75 1713.17L1338.58 1714.06L1337.38 1714.9L1336.15 1715.69L1334.89 1716.43L1333.61 1717.13L1332.31 1717.77L1330.98 1718.36L1329.63 1718.89L1328.27 1719.38L1326.88 1719.81L1325.48 1720.19L1324.07 1720.52L1322.65 1720.79L1321.21 1721.01L1319.77 1721.17L1318.32 1721.28L1316.86 1721.33L1315.4 1721.33L1313.93 1721.27L1312.47 1721.15L1311 1720.97L1309.54 1720.73L1308.09 1720.44L1306.64 1720.09L1305.19 1719.67L1303.76 1719.2L1302.34 1718.66L1300.93 1718.07L1299.53 1717.41L1298.15 1716.69L1088.04 1601.66L1086.69 1600.88L1085.38 1600.06L1084.12 1599.19L1082.9 1598.28L1081.73 1597.33L1080.6 1596.34L1079.52 1595.31L1078.49 1594.24L1077.51 1593.13L1076.57 1592L1075.68 1590.83L1074.84 1589.63L1074.05 1588.4L1073.31 1587.14L1072.61 1585.86L1071.97 1584.56L1071.38 1583.23L1070.85 1581.88L1070.36 1580.52L1069.93 1579.13L1069.55 1577.73L1069.22 1576.32L1068.95 1574.9L1068.73 1573.46L1068.57 1572.02L1068.46 1570.56L1068.41 1569.11L1068.41 1567.65L1068.47 1566.18L1068.59 1564.72L1068.77 1563.25L1069 1561.79L1069.3 1560.34L1069.65 1558.89L1070.07 1557.44L1070.54 1556.01L1071.07 1554.59L1071.67 1553.18L1072.33 1551.78L1073.05 1550.4L1267.68 1194.9L1268.46 1193.55L1269.28 1192.24L1270.14 1190.98L1271.06 1189.76L1272.01 1188.59L1273 1187.46L1274.03 1186.38L1275.1 1185.35L1276.2 1184.36L1277.34 1183.43L1278.51 1182.54L1279.71 1181.7L1280.94 1180.91L1282.2 1180.16L1283.48 1179.47L1284.78 1178.83L1286.11 1178.24L1287.46 1177.7L1288.82 1177.22L1290.21 1176.78L1291.6 1176.4L1293.02 1176.08L1294.44 1175.81L1295.88 1175.59L1297.32 1175.42L1298.77 1175.32L1300.23 1175.26L1301.69 1175.27L1303.16 1175.33ZM1300.26 1207.42L1299.91 1207.46L1299.55 1207.52L1299.2 1207.59L1298.85 1207.67L1298.5 1207.76L1298.16 1207.87L1297.82 1207.99L1297.49 1208.12L1297.16 1208.27L1296.84 1208.42L1296.52 1208.6L1296.21 1208.78L1295.91 1208.97L1295.61 1209.18L1295.32 1209.4L1295.04 1209.63L1294.77 1209.88L1294.5 1210.13L1294.25 1210.4L1294 1210.68L1293.77 1210.97L1293.54 1211.27L1293.33 1211.58L1293.13 1211.9L1292.93 1212.24L1121.65 1525.09L1121.47 1525.43L1121.31 1525.78L1121.16 1526.12L1121.03 1526.48L1120.92 1526.83L1120.81 1527.19L1120.73 1527.55L1120.65 1527.91L1120.59 1528.27L1120.55 1528.63L1120.52 1528.99L1120.51 1529.35L1120.5 1529.71L1120.52 1530.07L1120.54 1530.43L1120.58 1530.79L1120.64 1531.15L1120.71 1531.5L1120.79 1531.85L1120.88 1532.19L1120.99 1532.54L1121.11 1532.87L1121.24 1533.21L1121.39 1533.53L1121.55 1533.86L1121.72 1534.17L1121.9 1534.48L1122.09 1534.79L1122.3 1535.08L1122.52 1535.37L1122.75 1535.65L1123 1535.93L1123.25 1536.19L1123.52 1536.45L1123.8 1536.69L1124.09 1536.93L1124.39 1537.15L1124.7 1537.37L1125.02 1537.57L1125.36 1537.76L1331.87 1650.82L1332.21 1651L1332.56 1651.17L1332.91 1651.31L1333.26 1651.44L1333.61 1651.56L1333.97 1651.66L1334.33 1651.75L1334.69 1651.82L1335.05 1651.88L1335.41 1651.93L1335.77 1651.96L1336.14 1651.97L1336.5 1651.97L1336.86 1651.96L1337.22 1651.93L1337.57 1651.89L1337.93 1651.84L1338.28 1651.77L1338.63 1651.69L1338.97 1651.6L1339.32 1651.49L1339.65 1651.37L1339.99 1651.24L1340.32 1651.09L1340.64 1650.93L1340.95 1650.76L1341.27 1650.58L1341.57 1650.38L1341.87 1650.17L1342.15 1649.95L1342.44 1649.72L1342.71 1649.48L1342.97 1649.22L1343.23 1648.96L1343.47 1648.68L1343.71 1648.39L1343.93 1648.09L1344.15 1647.78L1344.35 1647.45L1344.54 1647.12L1515.83 1334.27L1516 1333.93L1516.17 1333.58L1516.31 1333.23L1516.45 1332.88L1516.56 1332.53L1516.66 1332.17L1516.75 1331.81L1516.83 1331.45L1516.88 1331.09L1516.93 1330.73L1516.96 1330.36L1516.97 1330L1516.97 1329.64L1516.96 1329.28L1516.93 1328.92L1516.89 1328.57L1516.84 1328.21L1516.77 1327.86L1516.69 1327.51L1516.6 1327.16L1516.49 1326.82L1516.37 1326.48L1516.24 1326.15L1516.09 1325.82L1515.93 1325.5L1515.76 1325.18L1515.58 1324.87L1515.38 1324.57L1515.18 1324.27L1514.96 1323.98L1514.72 1323.7L1514.48 1323.43L1514.22 1323.17L1513.96 1322.91L1513.68 1322.66L1513.39 1322.43L1513.09 1322.2L1512.78 1321.99L1512.45 1321.79L1512.12 1321.59L1305.61 1208.53L1305.27 1208.35L1304.92 1208.19L1304.57 1208.04L1304.22 1207.91L1303.86 1207.79L1303.51 1207.69L1303.15 1207.6L1302.79 1207.53L1302.43 1207.47L1302.07 1207.43L1301.7 1207.4L1301.34 1207.39L1300.98 1207.38L1300.62 1207.4L1300.26 1207.42Z" id="c2CmeIa58m"/>
		<path d="M1231.18 1636.18C1225.25 1647 1211.65 1650.98 1200.82 1645.05C1190 1639.13 1186.02 1625.53 1191.95 1614.7C1197.87 1603.88 1211.48 1599.9 1222.3 1605.82C1233.13 1611.75 1237.1 1625.35 1231.18 1636.18Z" id="f4RG2GKqKB"/>
		<path d="M1471.32 1197.39C1465.39 1208.22 1451.79 1212.19 1440.96 1206.27C1430.14 1200.34 1426.16 1186.74 1432.09 1175.91C1438.01 1165.09 1451.61 1161.11 1462.44 1167.04C1473.27 1172.96 1477.24 1186.56 1471.32 1197.39Z" id="a2ZdjhK7v"/>
		<path d="M1092.99 864.1L1094.46 864.22L1095.92 864.39L1097.38 864.63L1098.84 864.92L1100.29 865.28L1101.73 865.69L1103.16 866.17L1104.59 866.7L1106 867.3L1107.39 867.95L1108.77 868.67L1318.89 983.71L1320.24 984.48L1321.54 985.3L1322.81 986.17L1324.02 987.08L1325.2 988.04L1326.32 989.03L1327.4 990.06L1328.43 991.13L1329.42 992.23L1330.36 993.37L1331.25 994.54L1332.09 995.74L1332.88 996.97L1333.62 998.22L1334.31 999.5L1334.95 1000.81L1335.54 1002.14L1336.08 1003.48L1336.57 1004.85L1337 1006.23L1337.38 1007.63L1337.71 1009.04L1337.98 1010.47L1338.2 1011.9L1338.36 1013.35L1338.47 1014.8L1338.52 1016.26L1338.51 1017.72L1338.45 1019.18L1338.33 1020.65L1338.16 1022.11L1337.92 1023.57L1337.63 1025.03L1337.27 1026.48L1336.86 1027.92L1336.38 1029.36L1335.85 1030.78L1335.25 1032.19L1334.6 1033.59L1333.88 1034.97L1139.24 1390.47L1138.47 1391.82L1137.65 1393.13L1136.78 1394.39L1135.87 1395.61L1134.92 1396.78L1133.92 1397.9L1132.89 1398.98L1131.82 1400.01L1130.72 1401L1129.58 1401.94L1128.41 1402.83L1127.21 1403.67L1125.98 1404.46L1124.73 1405.2L1123.45 1405.89L1122.14 1406.53L1120.82 1407.12L1119.47 1407.66L1118.1 1408.15L1116.72 1408.58L1115.32 1408.96L1113.91 1409.29L1112.48 1409.56L1111.05 1409.78L1109.6 1409.94L1108.15 1410.05L1106.69 1410.1L1105.23 1410.1L1103.77 1410.03L1102.3 1409.91L1100.84 1409.74L1099.38 1409.5L1097.92 1409.21L1096.47 1408.85L1095.03 1408.44L1093.6 1407.97L1092.17 1407.43L1090.76 1406.84L1089.37 1406.18L1087.99 1405.46L877.87 1290.42L876.52 1289.65L875.22 1288.83L873.95 1287.96L872.74 1287.05L871.56 1286.1L870.44 1285.1L869.36 1284.07L868.33 1283L867.34 1281.9L866.4 1280.76L865.51 1279.59L864.67 1278.39L863.88 1277.16L863.14 1275.91L862.45 1274.63L861.81 1273.32L861.22 1272L860.68 1270.65L860.19 1269.28L859.76 1267.9L859.38 1266.5L859.05 1265.09L858.78 1263.66L858.56 1262.23L858.4 1260.78L858.29 1259.33L858.24 1257.87L858.25 1256.41L858.31 1254.95L858.43 1253.48L858.6 1252.02L858.84 1250.56L859.13 1249.1L859.49 1247.65L859.9 1246.21L860.37 1244.78L860.91 1243.35L861.51 1241.94L862.16 1240.55L862.88 1239.17L1057.52 883.66L1058.29 882.31L1059.11 881.01L1059.98 879.74L1060.89 878.53L1061.84 877.36L1062.84 876.23L1063.87 875.15L1064.94 874.12L1066.04 873.13L1067.18 872.19L1068.35 871.31L1069.55 870.46L1070.78 869.67L1072.03 868.93L1073.31 868.24L1074.62 867.6L1075.94 867.01L1077.29 866.47L1078.66 865.99L1080.04 865.55L1081.44 865.17L1082.85 864.85L1084.28 864.57L1085.71 864.35L1087.16 864.19L1088.61 864.08L1090.07 864.03L1091.53 864.04L1092.99 864.1ZM1090.1 896.19L1089.74 896.23L1089.39 896.28L1089.03 896.35L1088.68 896.43L1088.34 896.53L1088 896.63L1087.66 896.75L1087.33 896.89L1087 897.03L1086.68 897.19L1086.36 897.36L1086.05 897.55L1085.74 897.74L1085.45 897.95L1085.16 898.17L1084.88 898.4L1084.6 898.64L1084.34 898.9L1084.09 899.17L1083.84 899.44L1083.6 899.73L1083.38 900.04L1083.16 900.35L1082.96 900.67L1082.77 901L911.49 1213.86L911.31 1214.2L911.15 1214.54L911 1214.89L910.87 1215.24L910.75 1215.6L910.65 1215.96L910.56 1216.31L910.49 1216.67L910.43 1217.03L910.39 1217.4L910.36 1217.76L910.34 1218.12L910.34 1218.48L910.35 1218.84L910.38 1219.2L910.42 1219.56L910.47 1219.91L910.54 1220.27L910.62 1220.61L910.72 1220.96L910.82 1221.3L910.94 1221.64L911.08 1221.97L911.22 1222.3L911.38 1222.62L911.55 1222.94L911.73 1223.25L911.93 1223.55L912.14 1223.85L912.36 1224.14L912.59 1224.42L912.83 1224.69L913.09 1224.96L913.36 1225.21L913.63 1225.46L913.92 1225.69L914.22 1225.92L914.54 1226.13L914.86 1226.34L915.19 1226.53L1121.71 1339.59L1122.05 1339.77L1122.39 1339.93L1122.74 1340.08L1123.09 1340.21L1123.45 1340.33L1123.81 1340.43L1124.16 1340.52L1124.52 1340.59L1124.89 1340.65L1125.25 1340.69L1125.61 1340.72L1125.97 1340.74L1126.33 1340.74L1126.69 1340.73L1127.05 1340.7L1127.41 1340.66L1127.76 1340.61L1128.12 1340.54L1128.46 1340.46L1128.81 1340.36L1129.15 1340.26L1129.49 1340.14L1129.82 1340L1130.15 1339.86L1130.47 1339.7L1130.79 1339.53L1131.1 1339.34L1131.4 1339.15L1131.7 1338.94L1131.99 1338.72L1132.27 1338.49L1132.54 1338.25L1132.81 1337.99L1133.06 1337.72L1133.31 1337.45L1133.54 1337.16L1133.77 1336.86L1133.98 1336.54L1134.19 1336.22L1134.38 1335.89L1305.66 1023.03L1305.84 1022.69L1306 1022.35L1306.15 1022L1306.28 1021.65L1306.4 1021.29L1306.5 1020.94L1306.59 1020.58L1306.66 1020.22L1306.72 1019.86L1306.76 1019.49L1306.79 1019.13L1306.81 1018.77L1306.81 1018.41L1306.8 1018.05L1306.77 1017.69L1306.73 1017.33L1306.68 1016.98L1306.61 1016.63L1306.53 1016.28L1306.43 1015.93L1306.33 1015.59L1306.21 1015.25L1306.07 1014.92L1305.93 1014.59L1305.77 1014.27L1305.6 1013.95L1305.41 1013.64L1305.22 1013.34L1305.01 1013.04L1304.79 1012.75L1304.56 1012.47L1304.32 1012.2L1304.06 1011.93L1303.79 1011.68L1303.51 1011.43L1303.23 1011.2L1302.92 1010.97L1302.61 1010.76L1302.29 1010.55L1301.96 1010.36L1095.44 897.3L1095.1 897.12L1094.76 896.96L1094.41 896.81L1094.05 896.68L1093.7 896.56L1093.34 896.46L1092.99 896.37L1092.63 896.3L1092.26 896.24L1091.9 896.2L1091.54 896.17L1091.18 896.15L1090.82 896.15L1090.46 896.16L1090.1 896.19Z" id="acwObFhK9"/>
		<path d="M1021.01 1324.95C1015.09 1335.77 1001.49 1339.75 990.66 1333.82C979.83 1327.89 975.86 1314.29 981.78 1303.47C987.71 1292.64 1001.31 1288.66 1012.14 1294.59C1022.96 1300.52 1026.94 1314.12 1021.01 1324.95Z" id="a2ni8T5UHd"/>
		<path d="M1333.13 425.31L1334.59 425.43L1336.06 425.61L1337.52 425.84L1338.98 426.14L1340.43 426.49L1341.87 426.9L1343.3 427.38L1344.73 427.91L1346.14 428.51L1347.53 429.17L1348.91 429.89L1559.03 544.92L1560.38 545.7L1561.68 546.52L1562.94 547.38L1564.16 548.3L1565.33 549.25L1566.46 550.24L1567.54 551.27L1568.57 552.34L1569.56 553.44L1570.49 554.58L1571.38 555.75L1572.22 556.95L1573.02 558.18L1573.76 559.44L1574.45 560.72L1575.09 562.02L1575.68 563.35L1576.22 564.7L1576.7 566.06L1577.14 567.45L1577.52 568.84L1577.84 570.26L1578.12 571.68L1578.33 573.12L1578.5 574.56L1578.61 576.01L1578.66 577.47L1578.65 578.93L1578.59 580.4L1578.47 581.86L1578.29 583.32L1578.06 584.78L1577.76 586.24L1577.41 587.69L1577 589.13L1576.52 590.57L1575.99 591.99L1575.39 593.4L1574.74 594.8L1574.02 596.18L1379.38 951.68L1378.61 953.03L1377.79 954.34L1376.92 955.6L1376.01 956.82L1375.05 957.99L1374.06 959.12L1373.03 960.19L1371.96 961.23L1370.86 962.21L1369.72 963.15L1368.55 964.04L1367.35 964.88L1366.12 965.67L1364.87 966.41L1363.59 967.1L1362.28 967.75L1360.95 968.34L1359.61 968.87L1358.24 969.36L1356.86 969.79L1355.46 970.17L1354.05 970.5L1352.62 970.77L1351.19 970.99L1349.74 971.15L1348.29 971.26L1346.83 971.31L1345.37 971.31L1343.91 971.25L1342.44 971.13L1340.98 970.95L1339.52 970.71L1338.06 970.42L1336.61 970.07L1335.17 969.65L1333.73 969.18L1332.31 968.64L1330.9 968.05L1329.5 967.39L1328.12 966.67L1118.01 851.64L1116.66 850.86L1115.35 850.04L1114.09 849.17L1112.87 848.26L1111.7 847.31L1110.58 846.32L1109.5 845.28L1108.47 844.22L1107.48 843.11L1106.54 841.98L1105.65 840.81L1104.81 839.61L1104.02 838.38L1103.28 837.12L1102.59 835.84L1101.95 834.54L1101.36 833.21L1100.82 831.86L1100.33 830.5L1099.9 829.11L1099.52 827.71L1099.19 826.3L1098.92 824.88L1098.7 823.44L1098.54 822L1098.43 820.54L1098.38 819.09L1098.38 817.62L1098.45 816.16L1098.57 814.7L1098.74 813.23L1098.98 811.77L1099.27 810.32L1099.63 808.87L1100.04 807.42L1100.51 805.99L1101.05 804.57L1101.64 803.16L1102.3 801.76L1103.02 800.38L1297.65 444.88L1298.43 443.52L1299.25 442.22L1300.12 440.96L1301.03 439.74L1301.98 438.57L1302.98 437.44L1304.01 436.36L1305.08 435.33L1306.18 434.34L1307.32 433.41L1308.49 432.52L1309.69 431.68L1310.91 430.89L1312.17 430.14L1313.45 429.45L1314.76 428.81L1316.08 428.22L1317.43 427.68L1318.8 427.2L1320.18 426.76L1321.58 426.38L1322.99 426.06L1324.42 425.79L1325.85 425.57L1327.3 425.4L1328.75 425.3L1330.21 425.24L1331.67 425.25L1333.13 425.31ZM1330.24 457.4L1329.88 457.44L1329.52 457.5L1329.17 457.56L1328.82 457.65L1328.48 457.74L1328.14 457.85L1327.8 457.97L1327.46 458.1L1327.14 458.25L1326.81 458.4L1326.5 458.57L1326.19 458.76L1325.88 458.95L1325.59 459.16L1325.3 459.38L1325.02 459.61L1324.74 459.86L1324.48 460.11L1324.22 460.38L1323.98 460.66L1323.74 460.95L1323.52 461.25L1323.3 461.56L1323.1 461.88L1322.91 462.22L1151.63 775.07L1151.45 775.41L1151.29 775.76L1151.14 776.1L1151.01 776.46L1150.89 776.81L1150.79 777.17L1150.7 777.53L1150.63 777.89L1150.57 778.25L1150.52 778.61L1150.5 778.97L1150.48 779.33L1150.48 779.69L1150.49 780.05L1150.52 780.41L1150.56 780.77L1150.61 781.13L1150.68 781.48L1150.76 781.83L1150.85 782.17L1150.96 782.51L1151.08 782.85L1151.21 783.19L1151.36 783.51L1151.52 783.84L1151.69 784.15L1151.87 784.46L1152.07 784.77L1152.28 785.06L1152.5 785.35L1152.73 785.63L1152.97 785.91L1153.23 786.17L1153.49 786.43L1153.77 786.67L1154.06 786.91L1154.36 787.13L1154.68 787.35L1155 787.55L1155.33 787.74L1361.85 900.8L1362.19 900.98L1362.53 901.15L1362.88 901.29L1363.23 901.42L1363.59 901.54L1363.94 901.64L1364.3 901.73L1364.66 901.8L1365.02 901.86L1365.39 901.91L1365.75 901.94L1366.11 901.95L1366.47 901.95L1366.83 901.94L1367.19 901.91L1367.55 901.87L1367.9 901.82L1368.25 901.75L1368.6 901.67L1368.95 901.58L1369.29 901.47L1369.63 901.35L1369.96 901.22L1370.29 901.07L1370.61 900.91L1370.93 900.74L1371.24 900.56L1371.54 900.36L1371.84 900.15L1372.13 899.93L1372.41 899.7L1372.68 899.46L1372.95 899.2L1373.2 898.94L1373.45 898.66L1373.68 898.37L1373.91 898.07L1374.12 897.76L1374.33 897.43L1374.52 897.1L1545.8 584.25L1545.98 583.91L1546.14 583.56L1546.29 583.21L1546.42 582.86L1546.54 582.5L1546.64 582.15L1546.73 581.79L1546.8 581.43L1546.86 581.07L1546.9 580.71L1546.93 580.34L1546.95 579.98L1546.95 579.62L1546.93 579.26L1546.91 578.9L1546.87 578.55L1546.81 578.19L1546.75 577.84L1546.67 577.49L1546.57 577.14L1546.46 576.8L1546.34 576.46L1546.21 576.13L1546.07 575.8L1545.91 575.48L1545.74 575.16L1545.55 574.85L1545.36 574.55L1545.15 574.25L1544.93 573.96L1544.7 573.68L1544.45 573.41L1544.2 573.14L1543.93 572.89L1543.65 572.64L1543.36 572.41L1543.06 572.18L1542.75 571.97L1542.43 571.77L1542.09 571.57L1335.58 458.51L1335.24 458.33L1334.89 458.17L1334.55 458.02L1334.19 457.89L1333.84 457.77L1333.48 457.67L1333.12 457.58L1332.76 457.51L1332.4 457.45L1332.04 457.41L1331.68 457.38L1331.32 457.36L1330.96 457.36L1330.6 457.38L1330.24 457.4Z" id="a7XEU1JZh"/>
		<path d="M1261.15 886.16C1255.22 896.98 1241.62 900.96 1230.8 895.03C1219.97 889.11 1216 875.51 1221.92 864.68C1227.85 853.85 1241.45 849.88 1252.28 855.8C1263.1 861.73 1267.08 875.33 1261.15 886.16Z" id="a2R9YqLY9O"/>
		<path d="M852.85 1307.85L854.32 1307.97L855.78 1308.14L857.24 1308.38L858.7 1308.67L860.15 1309.03L861.59 1309.44L863.03 1309.92L864.45 1310.45L865.86 1311.05L867.26 1311.7L868.64 1312.42L1078.75 1427.46L1080.1 1428.23L1081.41 1429.05L1082.67 1429.92L1083.88 1430.83L1085.06 1431.79L1086.18 1432.78L1087.26 1433.81L1088.29 1434.88L1089.28 1435.98L1090.22 1437.12L1091.11 1438.29L1091.95 1439.49L1092.74 1440.72L1093.48 1441.97L1094.17 1443.25L1094.81 1444.56L1095.4 1445.89L1095.94 1447.23L1096.43 1448.6L1096.86 1449.98L1097.24 1451.38L1097.57 1452.79L1097.84 1454.22L1098.06 1455.65L1098.22 1457.1L1098.33 1458.55L1098.38 1460.01L1098.38 1461.47L1098.31 1462.93L1098.19 1464.4L1098.02 1465.86L1097.78 1467.32L1097.49 1468.78L1097.13 1470.23L1096.72 1471.67L1096.25 1473.11L1095.71 1474.53L1095.12 1475.94L1094.46 1477.34L1093.74 1478.72L899.11 1834.22L898.33 1835.57L897.51 1836.88L896.64 1838.14L895.73 1839.36L894.78 1840.53L893.78 1841.65L892.75 1842.73L891.68 1843.76L890.58 1844.75L889.44 1845.69L888.27 1846.58L887.07 1847.42L885.85 1848.21L884.59 1848.95L883.31 1849.64L882 1850.28L880.68 1850.87L879.33 1851.41L877.96 1851.9L876.58 1852.33L875.18 1852.71L873.77 1853.04L872.34 1853.31L870.91 1853.53L869.46 1853.69L868.01 1853.8L866.55 1853.85L865.09 1853.85L863.63 1853.78L862.17 1853.66L860.7 1853.49L859.24 1853.25L857.78 1852.96L856.33 1852.6L854.89 1852.19L853.46 1851.72L852.03 1851.18L850.62 1850.59L849.23 1849.93L847.85 1849.21L637.73 1734.17L636.38 1733.4L635.08 1732.58L633.82 1731.71L632.6 1730.8L631.43 1729.85L630.3 1728.85L629.22 1727.82L628.19 1726.75L627.2 1725.65L626.27 1724.51L625.38 1723.34L624.54 1722.14L623.74 1720.91L623 1719.66L622.31 1718.38L621.67 1717.07L621.08 1715.75L620.54 1714.4L620.06 1713.03L619.62 1711.65L619.24 1710.25L618.92 1708.84L618.64 1707.41L618.43 1705.98L618.26 1704.53L618.15 1703.08L618.1 1701.62L618.11 1700.16L618.17 1698.7L618.29 1697.23L618.47 1695.77L618.7 1694.31L619 1692.85L619.35 1691.4L619.76 1689.96L620.24 1688.53L620.77 1687.1L621.37 1685.69L622.02 1684.3L622.74 1682.92L817.38 1327.41L818.15 1326.06L818.97 1324.76L819.84 1323.49L820.75 1322.28L821.71 1321.11L822.7 1319.98L823.73 1318.9L824.8 1317.87L825.9 1316.88L827.04 1315.94L828.21 1315.06L829.41 1314.21L830.64 1313.42L831.89 1312.68L833.17 1311.99L834.48 1311.35L835.81 1310.76L837.15 1310.22L838.52 1309.74L839.9 1309.3L841.3 1308.92L842.71 1308.6L844.14 1308.32L845.57 1308.1L847.02 1307.94L848.47 1307.83L849.93 1307.78L851.39 1307.79L852.85 1307.85ZM849.96 1339.94L849.6 1339.98L849.25 1340.03L848.9 1340.1L848.55 1340.18L848.2 1340.28L847.86 1340.38L847.52 1340.5L847.19 1340.64L846.86 1340.78L846.54 1340.94L846.22 1341.11L845.91 1341.3L845.61 1341.49L845.31 1341.7L845.02 1341.92L844.74 1342.15L844.47 1342.39L844.2 1342.65L843.95 1342.92L843.7 1343.19L843.47 1343.48L843.24 1343.79L843.03 1344.1L842.82 1344.42L842.63 1344.75L671.35 1657.61L671.17 1657.95L671.01 1658.29L670.86 1658.64L670.73 1658.99L670.61 1659.35L670.51 1659.71L670.42 1660.06L670.35 1660.42L670.29 1660.78L670.25 1661.15L670.22 1661.51L670.2 1661.87L670.2 1662.23L670.21 1662.59L670.24 1662.95L670.28 1663.31L670.34 1663.66L670.4 1664.02L670.48 1664.36L670.58 1664.71L670.68 1665.05L670.8 1665.39L670.94 1665.72L671.08 1666.05L671.24 1666.37L671.41 1666.69L671.6 1667L671.79 1667.3L672 1667.6L672.22 1667.89L672.45 1668.17L672.7 1668.44L672.95 1668.71L673.22 1668.96L673.5 1669.21L673.79 1669.44L674.09 1669.67L674.4 1669.88L674.72 1670.09L675.05 1670.28L881.57 1783.34L881.91 1783.52L882.26 1783.68L882.6 1783.83L882.96 1783.96L883.31 1784.08L883.67 1784.18L884.03 1784.27L884.39 1784.34L884.75 1784.4L885.11 1784.44L885.47 1784.47L885.83 1784.49L886.19 1784.49L886.55 1784.48L886.91 1784.45L887.27 1784.41L887.62 1784.36L887.98 1784.29L888.33 1784.21L888.67 1784.11L889.01 1784.01L889.35 1783.89L889.68 1783.75L890.01 1783.61L890.34 1783.45L890.65 1783.28L890.96 1783.09L891.27 1782.9L891.56 1782.69L891.85 1782.47L892.13 1782.24L892.41 1782L892.67 1781.74L892.93 1781.47L893.17 1781.2L893.41 1780.91L893.63 1780.61L893.85 1780.29L894.05 1779.97L894.24 1779.64L1065.52 1466.78L1065.7 1466.44L1065.86 1466.1L1066.01 1465.75L1066.14 1465.4L1066.26 1465.04L1066.36 1464.69L1066.45 1464.33L1066.52 1463.97L1066.58 1463.61L1066.62 1463.24L1066.65 1462.88L1066.67 1462.52L1066.67 1462.16L1066.66 1461.8L1066.63 1461.44L1066.59 1461.08L1066.54 1460.73L1066.47 1460.38L1066.39 1460.03L1066.29 1459.68L1066.19 1459.34L1066.07 1459L1065.93 1458.67L1065.79 1458.34L1065.63 1458.02L1065.46 1457.7L1065.28 1457.39L1065.08 1457.09L1064.87 1456.79L1064.65 1456.5L1064.42 1456.22L1064.18 1455.95L1063.92 1455.68L1063.65 1455.43L1063.38 1455.18L1063.09 1454.95L1062.79 1454.72L1062.47 1454.51L1062.15 1454.3L1061.82 1454.11L855.3 1341.05L854.96 1340.87L854.62 1340.71L854.27 1340.56L853.92 1340.43L853.56 1340.31L853.21 1340.21L852.85 1340.12L852.49 1340.05L852.13 1339.99L851.76 1339.95L851.4 1339.92L851.04 1339.9L850.68 1339.9L850.32 1339.91L849.96 1339.94Z" id="bA3HqzAuS"/>
		<path d="M780.87 1768.7C774.95 1779.52 761.35 1783.5 750.52 1777.57C739.7 1771.64 735.72 1758.04 741.65 1747.22C747.57 1736.39 761.17 1732.41 772 1738.34C782.82 1744.27 786.8 1757.87 780.87 1768.7Z" id="b7nTshRz6Q"/>
	</defs>
	<g>
		<g>
			<use xlink:href="#cUyCrnv2r" opacity="1" fill="#142752" fill-opacity="1"/>
		</g>
		<g>
			<use xlink:href="#cCwGpy8OT" opacity="1" fill="#1c459f" fill-opacity="1"/>
		</g>
		<g>
			<g>
				<use xlink:href="#a7xnPvhk1" opacity="1" fill-opacity="0" stroke="#2f4e8f" stroke-width="5" stroke-opacity="1"/>
			</g>
		</g>
		<g>
			<use xlink:href="#a5cjAawgpq" opacity="1" fill="#142752" fill-opacity="1"/>
		</g>
		<g>
			<g>
				<use xlink:href="#b18EBI5Dl6" opacity="1" fill-opacity="0" stroke="#2f4e8f" stroke-width="5" stroke-opacity="1"/>
			</g>
		</g>
		<g>
			<use xlink:href="#acNUCHF5p" opacity="1" fill="#142752" fill-opacity="1"/>
		</g>
		<g>
			<g>
				<use xlink:href="#as8HGPbop" opacity="1" fill-opacity="0" stroke="#2f4e8f" stroke-width="5" stroke-opacity="1"/>
			</g>
		</g>
		<g>
			<use xlink:href="#b2YRDwIcmc" opacity="1" fill="#142752" fill-opacity="1"/>
		</g>
		<g>
			<g>
				<use xlink:href="#c3d6oQJui3" opacity="1" fill-opacity="0" stroke="#2f4e8f" stroke-width="5" stroke-opacity="1"/>
			</g>
		</g>
		<g>
			<use xlink:href="#a2HI54WU3h" opacity="1" fill="#142752" fill-opacity="1"/>
		</g>
		<g>
			<g>
				<use xlink:href="#a5HT7zsOn5" opacity="1" fill-opacity="0" stroke="#2f4e8f" stroke-width="5" stroke-opacity="1"/>
			</g>
		</g>
		<g>
			<use xlink:href="#a1W5NT8sHe" opacity="1" fill="#142752" fill-opacity="1"/>
		</g>
		<g>
			<use xlink:href="#c2CmeIa58m" opacity="1" fill="#142752" fill-opacity="1"/>
		</g>
		<g>
			<g>
				<use xlink:href="#f4RG2GKqKB" opacity="1" fill-opacity="0" stroke="#2f4e8f" stroke-width="5" stroke-opacity="1"/>
			</g>
		</g>
		<g>
			<g>
				<use xlink:href="#a2ZdjhK7v" opacity="1" fill-opacity="0" stroke="#2f4e8f" stroke-width="5" stroke-opacity="1"/>
			</g>
		</g>
		<g>
			<use xlink:href="#acwObFhK9" opacity="1" fill="#092970" fill-opacity="1"/>
		</g>
		<g>
			<g>
				<use xlink:href="#a2ni8T5UHd" opacity="1" fill-opacity="0" stroke="#2f4e8f" stroke-width="5" stroke-opacity="1"/>
			</g>
		</g>
		<g>
			<use xlink:href="#a7XEU1JZh" opacity="1" fill="#142752" fill-opacity="1"/>
		</g>
		<g>
			<g>
				<use xlink:href="#a2R9YqLY9O" opacity="1" fill-opacity="0" stroke="#2f4e8f" stroke-width="5" stroke-opacity="1"/>
			</g>
		</g>
		<g>
			<use xlink:href="#bA3HqzAuS" opacity="1" fill="#142752" fill-opacity="1"/>
		</g>
		<g>
			<g>
				<use xlink:href="#b7nTshRz6Q" opacity="1" fill-opacity="0" stroke="#2f4e8f" stroke-width="5" stroke-opacity="1"/>
			</g>
		</g>
	</g>
</svg>