<svg
	xmlns="http://www.w3.org/2000/svg"
	xmlns:xlink="http://www.w3.org/1999/xlink" version="1.1" preserveAspectRatio="xMidYMid meet" viewBox="0 0 2000 2000" width="2000" height="2000">
	<defs>
		<path d="M800.91 484.68L802.37 484.8L803.83 484.97L805.29 485.21L806.75 485.5L808.2 485.86L809.64 486.27L811.08 486.75L812.5 487.28L813.91 487.88L815.31 488.53L816.69 489.25L1026.8 604.29L1028.15 605.06L1029.46 605.88L1030.72 606.75L1031.94 607.66L1033.11 608.61L1034.24 609.61L1035.31 610.64L1036.35 611.71L1037.33 612.81L1038.27 613.95L1039.16 615.12L1040 616.32L1040.79 617.55L1041.53 618.8L1042.23 620.08L1042.87 621.39L1043.46 622.72L1043.99 624.06L1044.48 625.43L1044.91 626.81L1045.29 628.21L1045.62 629.62L1045.89 631.05L1046.11 632.48L1046.27 633.93L1046.38 635.38L1046.43 636.84L1046.43 638.3L1046.37 639.76L1046.25 641.23L1046.07 642.69L1045.83 644.15L1045.54 645.61L1045.19 647.06L1044.77 648.5L1044.3 649.94L1043.76 651.36L1043.17 652.77L1042.51 654.17L1041.79 655.55L847.16 1011.05L846.38 1012.4L845.56 1013.71L844.69 1014.97L843.78 1016.18L842.83 1017.36L841.84 1018.48L840.81 1019.56L839.74 1020.59L838.63 1021.58L837.5 1022.52L836.33 1023.41L835.13 1024.25L833.9 1025.04L832.64 1025.78L831.36 1026.47L830.06 1027.11L828.73 1027.7L827.38 1028.24L826.02 1028.73L824.63 1029.16L823.23 1029.54L821.82 1029.87L820.4 1030.14L818.96 1030.36L817.52 1030.52L816.07 1030.63L814.61 1030.68L813.15 1030.67L811.68 1030.61L810.22 1030.49L808.76 1030.32L807.29 1030.08L805.84 1029.79L804.39 1029.43L802.94 1029.02L801.51 1028.55L800.09 1028.01L798.68 1027.42L797.28 1026.76L795.9 1026.04L585.79 911L584.44 910.23L583.13 909.41L581.87 908.54L580.65 907.63L579.48 906.68L578.35 905.68L577.27 904.65L576.24 903.58L575.26 902.48L574.32 901.34L573.43 900.17L572.59 898.97L571.8 897.74L571.06 896.49L570.36 895.21L569.72 893.9L569.13 892.58L568.6 891.23L568.11 889.86L567.68 888.48L567.3 887.08L566.97 885.67L566.7 884.24L566.48 882.81L566.32 881.36L566.21 879.91L566.16 878.45L566.16 876.99L566.22 875.53L566.34 874.06L566.52 872.6L566.75 871.14L567.05 869.68L567.4 868.23L567.82 866.79L568.29 865.36L568.82 863.93L569.42 862.52L570.08 861.13L570.8 859.75L765.43 504.24L766.21 502.89L767.03 501.59L767.89 500.32L768.81 499.11L769.76 497.93L770.75 496.81L771.78 495.73L772.85 494.7L773.95 493.71L775.09 492.77L776.26 491.88L777.46 491.04L778.69 490.25L779.95 489.51L781.23 488.82L782.53 488.18L783.86 487.59L785.21 487.05L786.57 486.56L787.96 486.13L789.35 485.75L790.77 485.42L792.19 485.15L793.63 484.93L795.07 484.77L796.52 484.66L797.98 484.61L799.44 484.62L800.91 484.68ZM798.01 516.77L797.66 516.81L797.3 516.86L796.95 516.93L796.6 517.01L796.25 517.11L795.91 517.21L795.57 517.33L795.24 517.47L794.91 517.61L794.59 517.77L794.27 517.94L793.96 518.13L793.66 518.32L793.36 518.53L793.07 518.75L792.79 518.98L792.52 519.22L792.25 519.48L792 519.75L791.75 520.02L791.52 520.31L791.29 520.61L791.08 520.93L790.88 521.25L790.68 521.58L619.4 834.44L619.22 834.78L619.06 835.12L618.91 835.47L618.78 835.82L618.67 836.18L618.56 836.53L618.48 836.89L618.4 837.25L618.34 837.61L618.3 837.98L618.27 838.34L618.26 838.7L618.25 839.06L618.27 839.42L618.29 839.78L618.33 840.14L618.39 840.49L618.46 840.84L618.54 841.19L618.63 841.54L618.74 841.88L618.86 842.22L618.99 842.55L619.14 842.88L619.3 843.2L619.47 843.52L619.65 843.83L619.85 844.13L620.05 844.43L620.27 844.72L620.5 845L620.75 845.27L621 845.54L621.27 845.79L621.55 846.04L621.84 846.27L622.14 846.5L622.45 846.71L622.77 846.92L623.11 847.11L829.62 960.17L829.96 960.35L830.31 960.51L830.66 960.66L831.01 960.79L831.36 960.91L831.72 961.01L832.08 961.1L832.44 961.17L832.8 961.23L833.16 961.27L833.52 961.3L833.89 961.32L834.25 961.32L834.61 961.31L834.97 961.28L835.32 961.24L835.68 961.19L836.03 961.12L836.38 961.04L836.73 960.94L837.07 960.84L837.4 960.72L837.74 960.58L838.07 960.44L838.39 960.28L838.71 960.11L839.02 959.92L839.32 959.73L839.62 959.52L839.9 959.3L840.19 959.07L840.46 958.83L840.72 958.57L840.98 958.3L841.22 958.03L841.46 957.74L841.68 957.43L841.9 957.12L842.1 956.8L842.29 956.47L1013.58 643.61L1013.75 643.27L1013.92 642.93L1014.06 642.58L1014.2 642.23L1014.31 641.87L1014.42 641.52L1014.5 641.16L1014.58 640.8L1014.63 640.44L1014.68 640.07L1014.71 639.71L1014.72 639.35L1014.72 638.99L1014.71 638.63L1014.68 638.27L1014.64 637.91L1014.59 637.56L1014.52 637.2L1014.44 636.86L1014.35 636.51L1014.24 636.17L1014.12 635.83L1013.99 635.5L1013.84 635.17L1013.68 634.85L1013.51 634.53L1013.33 634.22L1013.13 633.92L1012.93 633.62L1012.71 633.33L1012.47 633.05L1012.23 632.78L1011.97 632.51L1011.71 632.26L1011.43 632.01L1011.14 631.78L1010.84 631.55L1010.53 631.34L1010.2 631.13L1009.87 630.94L803.36 517.88L803.02 517.7L802.67 517.54L802.32 517.39L801.97 517.26L801.62 517.14L801.26 517.04L800.9 516.95L800.54 516.88L800.18 516.82L799.82 516.78L799.45 516.75L799.09 516.73L798.73 516.73L798.37 516.74L798.01 516.77Z" id="b3ptB5hwia"/>
		<path d="M728.93 945.52C723 956.35 709.4 960.33 698.57 954.4C687.75 948.47 683.77 934.87 689.7 924.05C695.63 913.22 709.23 909.24 720.05 915.17C730.88 921.1 734.85 934.7 728.93 945.52Z" id="e4ssIdYw2g"/>
		<path d="M1041.04 45.89L1042.51 46.01L1043.97 46.19L1045.43 46.42L1046.89 46.72L1048.34 47.07L1049.78 47.48L1051.22 47.96L1052.64 48.49L1054.05 49.09L1055.45 49.75L1056.83 50.47L1266.94 165.5L1268.29 166.27L1269.6 167.1L1270.86 167.96L1272.08 168.87L1273.25 169.83L1274.37 170.82L1275.45 171.85L1276.49 172.92L1277.47 174.02L1278.41 175.16L1279.3 176.33L1280.14 177.53L1280.93 178.76L1281.67 180.01L1282.36 181.3L1283 182.6L1283.59 183.93L1284.13 185.28L1284.62 186.64L1285.05 188.02L1285.43 189.42L1285.76 190.84L1286.03 192.26L1286.25 193.7L1286.41 195.14L1286.52 196.59L1286.57 198.05L1286.57 199.51L1286.5 200.98L1286.39 202.44L1286.21 203.9L1285.97 205.36L1285.68 206.82L1285.33 208.27L1284.91 209.71L1284.44 211.15L1283.9 212.57L1283.31 213.98L1282.65 215.38L1281.93 216.76L1087.3 572.26L1086.52 573.61L1085.7 574.92L1084.83 576.18L1083.92 577.4L1082.97 578.57L1081.98 579.69L1080.94 580.77L1079.88 581.81L1078.77 582.79L1077.64 583.73L1076.47 584.62L1075.27 585.46L1074.04 586.25L1072.78 586.99L1071.5 587.68L1070.2 588.33L1068.87 588.91L1067.52 589.45L1066.16 589.94L1064.77 590.37L1063.37 590.75L1061.96 591.08L1060.54 591.35L1059.1 591.57L1057.66 591.73L1056.2 591.84L1054.75 591.89L1053.29 591.89L1051.82 591.83L1050.36 591.71L1048.89 591.53L1047.43 591.29L1045.98 591L1044.53 590.65L1043.08 590.23L1041.65 589.76L1040.23 589.22L1038.82 588.63L1037.42 587.97L1036.04 587.25L825.92 472.22L824.57 471.44L823.27 470.62L822.01 469.75L820.79 468.84L819.62 467.89L818.49 466.9L817.41 465.86L816.38 464.8L815.39 463.69L814.46 462.55L813.57 461.39L812.73 460.19L811.94 458.96L811.19 457.7L810.5 456.42L809.86 455.12L809.27 453.79L808.73 452.44L808.25 451.07L807.81 449.69L807.43 448.29L807.11 446.88L806.83 445.45L806.62 444.02L806.45 442.57L806.35 441.12L806.29 439.67L806.3 438.2L806.36 436.74L806.48 435.28L806.66 433.81L806.89 432.35L807.19 430.9L807.54 429.45L807.95 428L808.43 426.57L808.96 425.15L809.56 423.73L810.22 422.34L810.94 420.96L1005.57 65.45L1006.34 64.1L1007.17 62.8L1008.03 61.54L1008.94 60.32L1009.9 59.15L1010.89 58.02L1011.92 56.94L1012.99 55.91L1014.09 54.92L1015.23 53.99L1016.4 53.1L1017.6 52.26L1018.83 51.47L1020.08 50.72L1021.37 50.03L1022.67 49.39L1024 48.8L1025.34 48.26L1026.71 47.78L1028.09 47.34L1029.49 46.96L1030.91 46.64L1032.33 46.36L1033.77 46.15L1035.21 45.98L1036.66 45.88L1038.12 45.82L1039.58 45.83L1041.04 45.89ZM1038.15 77.98L1037.79 78.02L1037.44 78.08L1037.09 78.14L1036.74 78.23L1036.39 78.32L1036.05 78.43L1035.71 78.55L1035.38 78.68L1035.05 78.83L1034.73 78.98L1034.41 79.15L1034.1 79.34L1033.8 79.53L1033.5 79.74L1033.21 79.96L1032.93 80.19L1032.66 80.44L1032.39 80.69L1032.14 80.96L1031.89 81.24L1031.66 81.53L1031.43 81.83L1031.22 82.14L1031.01 82.46L1030.82 82.8L859.54 395.65L859.36 395.99L859.2 396.34L859.05 396.68L858.92 397.04L858.8 397.39L858.7 397.75L858.61 398.11L858.54 398.47L858.48 398.83L858.44 399.19L858.41 399.55L858.39 399.91L858.39 400.27L858.41 400.63L858.43 400.99L858.47 401.35L858.53 401.7L858.59 402.06L858.68 402.41L858.77 402.75L858.88 403.09L859 403.43L859.13 403.77L859.28 404.09L859.43 404.42L859.6 404.73L859.79 405.04L859.98 405.35L860.19 405.64L860.41 405.93L860.64 406.21L860.89 406.49L861.14 406.75L861.41 407.01L861.69 407.25L861.98 407.49L862.28 407.71L862.59 407.93L862.91 408.13L863.25 408.32L1069.76 521.38L1070.1 521.56L1070.45 521.72L1070.8 521.87L1071.15 522L1071.5 522.12L1071.86 522.22L1072.22 522.31L1072.58 522.38L1072.94 522.44L1073.3 522.49L1073.66 522.51L1074.02 522.53L1074.38 522.53L1074.75 522.52L1075.1 522.49L1075.46 522.45L1075.82 522.4L1076.17 522.33L1076.52 522.25L1076.86 522.16L1077.21 522.05L1077.54 521.93L1077.88 521.8L1078.2 521.65L1078.53 521.49L1078.84 521.32L1079.15 521.14L1079.46 520.94L1079.75 520.73L1080.04 520.51L1080.32 520.28L1080.6 520.04L1080.86 519.78L1081.12 519.52L1081.36 519.24L1081.6 518.95L1081.82 518.65L1082.04 518.34L1082.24 518.01L1082.43 517.68L1253.71 204.83L1253.89 204.48L1254.05 204.14L1254.2 203.79L1254.33 203.44L1254.45 203.08L1254.55 202.73L1254.64 202.37L1254.71 202.01L1254.77 201.65L1254.82 201.29L1254.85 200.92L1254.86 200.56L1254.86 200.2L1254.85 199.84L1254.82 199.48L1254.78 199.12L1254.73 198.77L1254.66 198.42L1254.58 198.07L1254.49 197.72L1254.38 197.38L1254.26 197.04L1254.13 196.71L1253.98 196.38L1253.82 196.06L1253.65 195.74L1253.47 195.43L1253.27 195.13L1253.06 194.83L1252.84 194.54L1252.61 194.26L1252.37 193.99L1252.11 193.72L1251.85 193.47L1251.57 193.22L1251.28 192.99L1250.98 192.76L1250.67 192.55L1250.34 192.35L1250.01 192.15L1043.49 79.09L1043.15 78.91L1042.81 78.75L1042.46 78.6L1042.11 78.47L1041.75 78.35L1041.4 78.25L1041.04 78.16L1040.68 78.09L1040.32 78.03L1039.96 77.99L1039.59 77.96L1039.23 77.94L1038.87 77.94L1038.51 77.96L1038.15 77.98Z" id="a1nKJvROur"/>
		<path d="M969.07 506.74C963.14 517.56 949.54 521.54 938.71 515.61C927.89 509.69 923.91 496.09 929.84 485.26C935.76 474.43 949.36 470.46 960.19 476.38C971.02 482.31 974.99 495.91 969.07 506.74Z" id="aveahKIN9"/>
		<path d="M361.59 589.2L363.06 589.32L364.52 589.49L365.98 589.73L367.44 590.02L368.89 590.38L370.33 590.79L371.76 591.27L373.19 591.8L374.6 592.4L375.99 593.05L377.37 593.77L587.49 708.81L588.84 709.58L590.14 710.4L591.41 711.27L592.62 712.18L593.79 713.14L594.92 714.13L596 715.16L597.03 716.23L598.02 717.33L598.96 718.47L599.84 719.64L600.69 720.84L601.48 722.07L602.22 723.32L602.91 724.6L603.55 725.91L604.14 727.24L604.68 728.58L605.16 729.95L605.6 731.33L605.98 732.73L606.3 734.14L606.58 735.57L606.8 737L606.96 738.45L607.07 739.9L607.12 741.36L607.11 742.82L607.05 744.28L606.93 745.75L606.76 747.21L606.52 748.67L606.23 750.13L605.87 751.58L605.46 753.02L604.98 754.46L604.45 755.88L603.85 757.29L603.2 758.69L602.48 760.07L407.84 1115.57L407.07 1116.92L406.25 1118.23L405.38 1119.49L404.47 1120.71L403.52 1121.88L402.52 1123L401.49 1124.08L400.42 1125.11L399.32 1126.1L398.18 1127.04L397.01 1127.93L395.81 1128.77L394.58 1129.56L393.33 1130.3L392.05 1130.99L390.74 1131.63L389.42 1132.22L388.07 1132.76L386.7 1133.25L385.32 1133.68L383.92 1134.06L382.51 1134.39L381.08 1134.66L379.65 1134.88L378.2 1135.04L376.75 1135.15L375.29 1135.2L373.83 1135.2L372.37 1135.13L370.9 1135.01L369.44 1134.84L367.98 1134.6L366.52 1134.31L365.07 1133.95L363.63 1133.54L362.2 1133.07L360.77 1132.53L359.36 1131.94L357.97 1131.28L356.59 1130.56L146.47 1015.52L145.12 1014.75L143.81 1013.93L142.55 1013.06L141.34 1012.15L140.16 1011.2L139.04 1010.2L137.96 1009.17L136.93 1008.1L135.94 1007L135 1005.86L134.11 1004.69L133.27 1003.49L132.48 1002.26L131.74 1001.01L131.05 999.73L130.41 998.42L129.82 997.1L129.28 995.75L128.79 994.38L128.36 993L127.98 991.6L127.65 990.19L127.38 988.76L127.16 987.33L127 985.88L126.89 984.43L126.84 982.97L126.85 981.51L126.91 980.05L127.03 978.58L127.2 977.12L127.44 975.66L127.73 974.2L128.09 972.75L128.5 971.31L128.97 969.88L129.51 968.45L130.1 967.04L130.76 965.65L131.48 964.27L326.12 608.76L326.89 607.41L327.71 606.11L328.58 604.84L329.49 603.63L330.44 602.46L331.44 601.33L332.47 600.25L333.54 599.22L334.64 598.23L335.78 597.29L336.95 596.41L338.15 595.56L339.38 594.77L340.63 594.03L341.91 593.34L343.22 592.7L344.54 592.11L345.89 591.57L347.26 591.09L348.64 590.65L350.04 590.27L351.45 589.95L352.88 589.67L354.31 589.45L355.76 589.29L357.21 589.18L358.67 589.13L360.13 589.14L361.59 589.2ZM358.7 621.29L358.34 621.33L357.99 621.38L357.63 621.45L357.28 621.53L356.94 621.63L356.6 621.73L356.26 621.85L355.93 621.99L355.6 622.13L355.27 622.29L354.96 622.46L354.65 622.65L354.34 622.84L354.05 623.05L353.76 623.27L353.48 623.5L353.2 623.74L352.94 624L352.68 624.27L352.44 624.55L352.2 624.83L351.98 625.14L351.76 625.45L351.56 625.77L351.37 626.1L180.09 938.96L179.91 939.3L179.75 939.64L179.6 939.99L179.47 940.34L179.35 940.7L179.25 941.06L179.16 941.41L179.09 941.77L179.03 942.13L178.99 942.5L178.96 942.86L178.94 943.22L178.94 943.58L178.95 943.94L178.98 944.3L179.02 944.66L179.07 945.01L179.14 945.37L179.22 945.71L179.32 946.06L179.42 946.4L179.54 946.74L179.68 947.07L179.82 947.4L179.98 947.72L180.15 948.04L180.33 948.35L180.53 948.65L180.74 948.95L180.96 949.24L181.19 949.52L181.43 949.79L181.69 950.06L181.96 950.31L182.23 950.56L182.52 950.79L182.82 951.02L183.14 951.23L183.46 951.44L183.79 951.63L390.31 1064.69L390.65 1064.87L390.99 1065.03L391.34 1065.18L391.69 1065.31L392.05 1065.43L392.4 1065.53L392.76 1065.62L393.12 1065.69L393.48 1065.75L393.85 1065.79L394.21 1065.82L394.57 1065.84L394.93 1065.84L395.29 1065.83L395.65 1065.8L396.01 1065.76L396.36 1065.71L396.71 1065.64L397.06 1065.56L397.41 1065.46L397.75 1065.36L398.09 1065.24L398.42 1065.1L398.75 1064.96L399.07 1064.8L399.39 1064.63L399.7 1064.44L400 1064.25L400.3 1064.04L400.59 1063.82L400.87 1063.59L401.14 1063.35L401.41 1063.09L401.66 1062.82L401.91 1062.55L402.14 1062.26L402.37 1061.96L402.58 1061.64L402.79 1061.32L402.98 1060.99L574.26 748.13L574.44 747.79L574.6 747.45L574.75 747.1L574.88 746.75L575 746.39L575.1 746.04L575.19 745.68L575.26 745.32L575.32 744.96L575.36 744.59L575.39 744.23L575.41 743.87L575.41 743.51L575.4 743.15L575.37 742.79L575.33 742.43L575.27 742.08L575.21 741.73L575.13 741.38L575.03 741.03L574.93 740.69L574.81 740.35L574.67 740.02L574.53 739.69L574.37 739.37L574.2 739.05L574.01 738.74L573.82 738.44L573.61 738.14L573.39 737.85L573.16 737.57L572.91 737.3L572.66 737.03L572.39 736.78L572.11 736.53L571.82 736.3L571.52 736.07L571.21 735.86L570.89 735.65L570.56 735.46L364.04 622.4L363.7 622.22L363.35 622.06L363.01 621.91L362.65 621.78L362.3 621.66L361.94 621.56L361.58 621.47L361.22 621.4L360.86 621.34L360.5 621.3L360.14 621.27L359.78 621.25L359.42 621.25L359.06 621.26L358.7 621.29Z" id="aMn5ZId3"/>
		<path d="M289.61 1050.05C283.69 1060.87 270.08 1064.85 259.26 1058.92C248.43 1052.99 244.46 1039.39 250.38 1028.57C256.31 1017.74 269.91 1013.77 280.74 1019.69C291.56 1025.62 295.54 1039.22 289.61 1050.05Z" id="a1qpjjd8TC"/>
		<path d="M601.73 150.41L603.19 150.53L604.66 150.71L606.12 150.94L607.57 151.24L609.03 151.59L610.47 152L611.9 152.48L613.33 153.01L614.74 153.61L616.13 154.27L617.51 154.99L827.63 270.02L828.98 270.8L830.28 271.62L831.54 272.48L832.76 273.4L833.93 274.35L835.06 275.34L836.14 276.37L837.17 277.44L838.16 278.54L839.09 279.68L839.98 280.85L840.82 282.05L841.62 283.28L842.36 284.54L843.05 285.82L843.69 287.12L844.28 288.45L844.82 289.8L845.3 291.16L845.74 292.55L846.12 293.94L846.44 295.36L846.72 296.78L846.93 298.22L847.1 299.66L847.2 301.11L847.26 302.57L847.25 304.03L847.19 305.5L847.07 306.96L846.89 308.42L846.66 309.88L846.36 311.34L846.01 312.79L845.6 314.23L845.12 315.67L844.59 317.09L843.99 318.5L843.33 319.9L842.61 321.28L647.98 676.78L647.21 678.13L646.38 679.44L645.52 680.7L644.61 681.92L643.65 683.09L642.66 684.22L641.63 685.29L640.56 686.33L639.46 687.31L638.32 688.25L637.15 689.14L635.95 689.98L634.72 690.77L633.47 691.51L632.19 692.2L630.88 692.85L629.55 693.44L628.21 693.97L626.84 694.46L625.46 694.89L624.06 695.27L622.65 695.6L621.22 695.87L619.78 696.09L618.34 696.25L616.89 696.36L615.43 696.41L613.97 696.41L612.51 696.35L611.04 696.23L609.58 696.05L608.12 695.81L606.66 695.52L605.21 695.17L603.77 694.75L602.33 694.28L600.91 693.74L599.5 693.15L598.1 692.49L596.72 691.77L386.61 576.74L385.26 575.96L383.95 575.14L382.69 574.27L381.47 573.36L380.3 572.41L379.18 571.42L378.1 570.38L377.06 569.32L376.08 568.21L375.14 567.08L374.25 565.91L373.41 564.71L372.62 563.48L371.88 562.22L371.19 560.94L370.55 559.64L369.96 558.31L369.42 556.96L368.93 555.6L368.5 554.21L368.12 552.81L367.79 551.4L367.52 549.98L367.3 548.54L367.14 547.1L367.03 545.64L366.98 544.19L366.98 542.73L367.05 541.26L367.17 539.8L367.34 538.33L367.58 536.87L367.87 535.42L368.23 533.97L368.64 532.52L369.11 531.09L369.65 529.67L370.24 528.26L370.9 526.86L371.62 525.48L566.25 169.98L567.03 168.62L567.85 167.32L568.72 166.06L569.63 164.84L570.58 163.67L571.57 162.54L572.61 161.46L573.67 160.43L574.78 159.44L575.92 158.51L577.09 157.62L578.29 156.78L579.51 155.99L580.77 155.24L582.05 154.55L583.35 153.91L584.68 153.32L586.03 152.78L587.4 152.3L588.78 151.86L590.18 151.48L591.59 151.16L593.02 150.89L594.45 150.67L595.9 150.5L597.35 150.4L598.8 150.34L600.27 150.35L601.73 150.41ZM598.84 182.5L598.48 182.54L598.12 182.6L597.77 182.66L597.42 182.75L597.08 182.84L596.73 182.95L596.4 183.07L596.06 183.2L595.74 183.35L595.41 183.5L595.1 183.68L594.79 183.86L594.48 184.05L594.19 184.26L593.9 184.48L593.62 184.71L593.34 184.96L593.08 185.21L592.82 185.48L592.58 185.76L592.34 186.05L592.12 186.35L591.9 186.66L591.7 186.98L591.51 187.32L420.23 500.17L420.05 500.51L419.89 500.86L419.74 501.2L419.61 501.56L419.49 501.91L419.39 502.27L419.3 502.63L419.23 502.99L419.17 503.35L419.12 503.71L419.09 504.07L419.08 504.43L419.08 504.79L419.09 505.15L419.12 505.51L419.16 505.87L419.21 506.23L419.28 506.58L419.36 506.93L419.45 507.27L419.56 507.61L419.68 507.95L419.81 508.29L419.96 508.61L420.12 508.94L420.29 509.25L420.47 509.56L420.67 509.87L420.88 510.16L421.1 510.45L421.33 510.73L421.57 511.01L421.83 511.27L422.09 511.53L422.37 511.77L422.66 512.01L422.96 512.23L423.27 512.45L423.6 512.65L423.93 512.84L630.45 625.9L630.79 626.08L631.13 626.25L631.48 626.39L631.83 626.52L632.19 626.64L632.54 626.74L632.9 626.83L633.26 626.9L633.62 626.96L633.98 627.01L634.35 627.04L634.71 627.05L635.07 627.05L635.43 627.04L635.79 627.01L636.15 626.97L636.5 626.92L636.85 626.85L637.2 626.77L637.55 626.68L637.89 626.57L638.23 626.45L638.56 626.32L638.89 626.17L639.21 626.01L639.53 625.84L639.84 625.66L640.14 625.46L640.44 625.25L640.73 625.03L641.01 624.8L641.28 624.56L641.55 624.3L641.8 624.04L642.05 623.76L642.28 623.47L642.51 623.17L642.72 622.86L642.93 622.53L643.12 622.2L814.4 309.35L814.58 309.01L814.74 308.66L814.89 308.31L815.02 307.96L815.14 307.6L815.24 307.25L815.33 306.89L815.4 306.53L815.46 306.17L815.5 305.81L815.53 305.44L815.55 305.08L815.55 304.72L815.53 304.36L815.51 304L815.47 303.65L815.41 303.29L815.35 302.94L815.26 302.59L815.17 302.24L815.06 301.9L814.94 301.56L814.81 301.23L814.66 300.9L814.51 300.58L814.34 300.26L814.15 299.95L813.96 299.65L813.75 299.35L813.53 299.06L813.3 298.78L813.05 298.51L812.8 298.24L812.53 297.99L812.25 297.74L811.96 297.51L811.66 297.28L811.35 297.07L811.03 296.87L810.69 296.67L604.18 183.61L603.84 183.43L603.49 183.27L603.14 183.12L602.79 182.99L602.44 182.87L602.08 182.77L601.72 182.68L601.36 182.61L601 182.55L600.64 182.51L600.28 182.48L599.92 182.46L599.56 182.46L599.19 182.48L598.84 182.5Z" id="d2UCtebrOZ"/>
		<path d="M529.75 611.26C523.82 622.08 510.22 626.06 499.4 620.13C488.57 614.21 484.59 600.61 490.52 589.78C496.45 578.95 510.05 574.98 520.87 580.9C531.7 586.83 535.68 600.43 529.75 611.26Z" id="d2xZlpl847"/>
		<path d="M560.77 928.43L562.23 928.55L563.7 928.72L565.16 928.96L566.61 929.25L568.06 929.61L569.51 930.02L570.94 930.5L572.36 931.03L573.77 931.63L575.17 932.28L576.55 933L786.66 1048.04L788.01 1048.81L789.32 1049.63L790.58 1050.5L791.8 1051.41L792.97 1052.36L794.1 1053.36L795.18 1054.39L796.21 1055.46L797.19 1056.56L798.13 1057.7L799.02 1058.87L799.86 1060.07L800.65 1061.3L801.4 1062.55L802.09 1063.83L802.73 1065.14L803.32 1066.47L803.86 1067.81L804.34 1069.18L804.77 1070.56L805.15 1071.96L805.48 1073.37L805.75 1074.8L805.97 1076.23L806.14 1077.68L806.24 1079.13L806.29 1080.59L806.29 1082.05L806.23 1083.51L806.11 1084.98L805.93 1086.44L805.7 1087.9L805.4 1089.36L805.05 1090.81L804.63 1092.25L804.16 1093.69L803.63 1095.11L803.03 1096.52L802.37 1097.92L801.65 1099.3L607.02 1454.8L606.24 1456.15L605.42 1457.46L604.56 1458.72L603.64 1459.93L602.69 1461.11L601.7 1462.23L600.67 1463.31L599.6 1464.34L598.5 1465.33L597.36 1466.27L596.19 1467.16L594.99 1468L593.76 1468.79L592.5 1469.53L591.22 1470.22L589.92 1470.86L588.59 1471.45L587.24 1471.99L585.88 1472.48L584.5 1472.91L583.1 1473.29L581.68 1473.62L580.26 1473.89L578.82 1474.11L577.38 1474.27L575.93 1474.38L574.47 1474.43L573.01 1474.42L571.54 1474.36L570.08 1474.24L568.62 1474.07L567.16 1473.83L565.7 1473.54L564.25 1473.18L562.81 1472.77L561.37 1472.3L559.95 1471.76L558.54 1471.17L557.14 1470.51L555.76 1469.79L345.65 1354.75L344.3 1353.98L342.99 1353.16L341.73 1352.29L340.51 1351.38L339.34 1350.43L338.22 1349.43L337.14 1348.4L336.1 1347.33L335.12 1346.23L334.18 1345.09L333.29 1343.92L332.45 1342.72L331.66 1341.49L330.92 1340.24L330.23 1338.96L329.58 1337.65L328.99 1336.33L328.46 1334.98L327.97 1333.61L327.54 1332.23L327.16 1330.83L326.83 1329.42L326.56 1327.99L326.34 1326.56L326.18 1325.11L326.07 1323.66L326.02 1322.2L326.02 1320.74L326.08 1319.28L326.2 1317.81L326.38 1316.35L326.62 1314.89L326.91 1313.43L327.26 1311.98L327.68 1310.54L328.15 1309.11L328.69 1307.68L329.28 1306.27L329.94 1304.88L330.66 1303.5L525.29 947.99L526.07 946.64L526.89 945.34L527.76 944.07L528.67 942.86L529.62 941.68L530.61 940.56L531.64 939.48L532.71 938.45L533.82 937.46L534.95 936.52L536.12 935.63L537.32 934.79L538.55 934L539.81 933.26L541.09 932.57L542.39 931.93L543.72 931.34L545.07 930.8L546.43 930.31L547.82 929.88L549.22 929.5L550.63 929.17L552.05 928.9L553.49 928.68L554.93 928.52L556.39 928.41L557.84 928.36L559.3 928.37L560.77 928.43ZM557.87 960.52L557.52 960.56L557.16 960.61L556.81 960.68L556.46 960.76L556.11 960.86L555.77 960.96L555.43 961.08L555.1 961.22L554.77 961.36L554.45 961.52L554.13 961.69L553.82 961.88L553.52 962.07L553.22 962.28L552.93 962.5L552.65 962.73L552.38 962.97L552.12 963.23L551.86 963.5L551.62 963.77L551.38 964.06L551.16 964.36L550.94 964.68L550.74 965L550.55 965.33L379.26 1278.19L379.09 1278.53L378.92 1278.87L378.78 1279.22L378.64 1279.57L378.53 1279.93L378.42 1280.28L378.34 1280.64L378.26 1281L378.21 1281.36L378.16 1281.73L378.13 1282.09L378.12 1282.45L378.12 1282.81L378.13 1283.17L378.16 1283.53L378.2 1283.89L378.25 1284.24L378.32 1284.59L378.4 1284.94L378.49 1285.29L378.6 1285.63L378.72 1285.97L378.85 1286.3L379 1286.63L379.16 1286.95L379.33 1287.27L379.51 1287.58L379.71 1287.88L379.91 1288.18L380.13 1288.47L380.37 1288.75L380.61 1289.02L380.86 1289.29L381.13 1289.54L381.41 1289.79L381.7 1290.02L382 1290.25L382.31 1290.46L382.64 1290.67L382.97 1290.86L589.48 1403.92L589.82 1404.1L590.17 1404.26L590.52 1404.41L590.87 1404.54L591.22 1404.66L591.58 1404.76L591.94 1404.85L592.3 1404.92L592.66 1404.98L593.02 1405.02L593.38 1405.05L593.75 1405.07L594.11 1405.07L594.47 1405.06L594.83 1405.03L595.18 1404.99L595.54 1404.94L595.89 1404.87L596.24 1404.79L596.59 1404.69L596.93 1404.59L597.27 1404.47L597.6 1404.33L597.93 1404.19L598.25 1404.03L598.57 1403.86L598.88 1403.67L599.18 1403.48L599.48 1403.27L599.77 1403.05L600.05 1402.82L600.32 1402.58L600.58 1402.32L600.84 1402.05L601.09 1401.78L601.32 1401.49L601.55 1401.18L601.76 1400.87L601.96 1400.55L602.16 1400.22L773.44 1087.36L773.62 1087.02L773.78 1086.68L773.93 1086.33L774.06 1085.98L774.17 1085.62L774.28 1085.27L774.36 1084.91L774.44 1084.55L774.49 1084.19L774.54 1083.82L774.57 1083.46L774.58 1083.1L774.58 1082.74L774.57 1082.38L774.55 1082.02L774.5 1081.66L774.45 1081.31L774.38 1080.95L774.3 1080.61L774.21 1080.26L774.1 1079.92L773.98 1079.58L773.85 1079.25L773.7 1078.92L773.54 1078.6L773.37 1078.28L773.19 1077.97L772.99 1077.67L772.79 1077.37L772.57 1077.08L772.33 1076.8L772.09 1076.53L771.84 1076.26L771.57 1076.01L771.29 1075.76L771 1075.53L770.7 1075.3L770.39 1075.09L770.07 1074.88L769.73 1074.69L563.22 961.63L562.88 961.45L562.53 961.29L562.18 961.14L561.83 961.01L561.48 960.89L561.12 960.79L560.76 960.7L560.4 960.63L560.04 960.57L559.68 960.53L559.32 960.5L558.95 960.48L558.59 960.48L558.23 960.49L557.87 960.52Z" id="l2dI21vF7q"/>
		<path d="M488.79 1389.27C482.86 1400.1 469.26 1404.08 458.44 1398.15C447.61 1392.22 443.63 1378.62 449.56 1367.8C455.49 1356.97 469.09 1352.99 479.91 1358.92C490.74 1364.85 494.72 1378.45 488.79 1389.27Z" id="cgmyo9o9X"/>
		<path d="M1690.52 964.42L1691.99 964.54L1693.45 964.72L1694.91 964.96L1696.37 965.25L1697.82 965.6L1699.26 966.02L1700.7 966.49L1702.12 967.03L1703.53 967.62L1704.93 968.28L1706.31 969L1916.42 1084.03L1917.77 1084.81L1919.08 1085.63L1920.34 1086.5L1921.56 1087.41L1922.73 1088.36L1923.85 1089.35L1924.93 1090.39L1925.97 1091.45L1926.95 1092.56L1927.89 1093.7L1928.78 1094.86L1929.62 1096.06L1930.41 1097.29L1931.15 1098.55L1931.84 1099.83L1932.48 1101.13L1933.07 1102.46L1933.61 1103.81L1934.1 1105.18L1934.53 1106.56L1934.91 1107.96L1935.24 1109.37L1935.51 1110.8L1935.73 1112.23L1935.89 1113.68L1936 1115.13L1936.05 1116.58L1936.05 1118.05L1935.98 1119.51L1935.87 1120.97L1935.69 1122.44L1935.45 1123.9L1935.16 1125.35L1934.8 1126.8L1934.39 1128.25L1933.92 1129.68L1933.38 1131.1L1932.79 1132.52L1932.13 1133.91L1931.41 1135.29L1736.78 1490.8L1736 1492.15L1735.18 1493.45L1734.31 1494.71L1733.4 1495.93L1732.45 1497.1L1731.46 1498.23L1730.42 1499.31L1729.36 1500.34L1728.25 1501.33L1727.11 1502.26L1725.95 1503.15L1724.75 1503.99L1723.52 1504.78L1722.26 1505.53L1720.98 1506.22L1719.68 1506.86L1718.35 1507.45L1717 1507.99L1715.63 1508.47L1714.25 1508.91L1712.85 1509.29L1711.44 1509.61L1710.01 1509.89L1708.58 1510.1L1707.13 1510.27L1705.68 1510.37L1704.23 1510.43L1702.76 1510.42L1701.3 1510.36L1699.84 1510.24L1698.37 1510.06L1696.91 1509.83L1695.46 1509.53L1694.01 1509.18L1692.56 1508.77L1691.13 1508.29L1689.71 1507.76L1688.29 1507.16L1686.9 1506.5L1685.52 1505.78L1475.4 1390.75L1474.05 1389.98L1472.75 1389.15L1471.49 1388.29L1470.27 1387.38L1469.1 1386.42L1467.97 1385.43L1466.89 1384.4L1465.86 1383.33L1464.87 1382.23L1463.94 1381.09L1463.05 1379.92L1462.21 1378.72L1461.41 1377.49L1460.67 1376.24L1459.98 1374.95L1459.34 1373.65L1458.75 1372.32L1458.21 1370.97L1457.73 1369.61L1457.29 1368.23L1456.91 1366.83L1456.59 1365.41L1456.31 1363.99L1456.1 1362.55L1455.93 1361.11L1455.83 1359.66L1455.77 1358.2L1455.78 1356.74L1455.84 1355.27L1455.96 1353.81L1456.14 1352.35L1456.37 1350.89L1456.67 1349.43L1457.02 1347.98L1457.43 1346.54L1457.91 1345.1L1458.44 1343.68L1459.04 1342.27L1459.7 1340.87L1460.42 1339.49L1655.05 983.99L1655.82 982.64L1656.65 981.33L1657.51 980.07L1658.42 978.85L1659.38 977.68L1660.37 976.56L1661.4 975.48L1662.47 974.44L1663.57 973.46L1664.71 972.52L1665.88 971.63L1667.08 970.79L1668.31 970L1669.56 969.26L1670.84 968.57L1672.15 967.92L1673.48 967.34L1674.82 966.8L1676.19 966.31L1677.57 965.88L1678.97 965.5L1680.38 965.17L1681.81 964.9L1683.25 964.68L1684.69 964.52L1686.14 964.41L1687.6 964.36L1689.06 964.36L1690.52 964.42ZM1687.63 996.52L1687.27 996.56L1686.92 996.61L1686.57 996.68L1686.22 996.76L1685.87 996.85L1685.53 996.96L1685.19 997.08L1684.86 997.21L1684.53 997.36L1684.21 997.52L1683.89 997.69L1683.58 997.87L1683.28 998.07L1682.98 998.28L1682.69 998.49L1682.41 998.73L1682.14 998.97L1681.87 999.23L1681.62 999.49L1681.37 999.77L1681.14 1000.06L1680.91 1000.36L1680.7 1000.67L1680.49 1001L1680.3 1001.33L1509.02 1314.18L1508.84 1314.52L1508.68 1314.87L1508.53 1315.22L1508.4 1315.57L1508.28 1315.92L1508.18 1316.28L1508.09 1316.64L1508.02 1317L1507.96 1317.36L1507.92 1317.72L1507.89 1318.08L1507.87 1318.45L1507.87 1318.81L1507.89 1319.17L1507.91 1319.53L1507.95 1319.88L1508.01 1320.24L1508.07 1320.59L1508.15 1320.94L1508.25 1321.29L1508.36 1321.63L1508.48 1321.97L1508.61 1322.3L1508.75 1322.63L1508.91 1322.95L1509.08 1323.27L1509.27 1323.58L1509.46 1323.88L1509.67 1324.18L1509.89 1324.47L1510.12 1324.75L1510.37 1325.02L1510.62 1325.28L1510.89 1325.54L1511.17 1325.78L1511.46 1326.02L1511.76 1326.25L1512.07 1326.46L1512.39 1326.66L1512.73 1326.85L1719.24 1439.92L1719.58 1440.1L1719.93 1440.26L1720.27 1440.41L1720.63 1440.54L1720.98 1440.65L1721.34 1440.76L1721.7 1440.84L1722.06 1440.92L1722.42 1440.98L1722.78 1441.02L1723.14 1441.05L1723.5 1441.06L1723.86 1441.07L1724.22 1441.05L1724.58 1441.03L1724.94 1440.99L1725.3 1440.93L1725.65 1440.86L1726 1440.78L1726.34 1440.69L1726.68 1440.58L1727.02 1440.46L1727.36 1440.33L1727.68 1440.18L1728.01 1440.03L1728.32 1439.85L1728.63 1439.67L1728.94 1439.48L1729.23 1439.27L1729.52 1439.05L1729.8 1438.82L1730.08 1438.57L1730.34 1438.32L1730.6 1438.05L1730.84 1437.77L1731.08 1437.48L1731.3 1437.18L1731.52 1436.87L1731.72 1436.55L1731.91 1436.21L1903.19 1123.36L1903.37 1123.02L1903.53 1122.67L1903.68 1122.32L1903.81 1121.97L1903.93 1121.62L1904.03 1121.26L1904.12 1120.9L1904.19 1120.54L1904.25 1120.18L1904.3 1119.82L1904.32 1119.46L1904.34 1119.1L1904.34 1118.73L1904.33 1118.37L1904.3 1118.02L1904.26 1117.66L1904.21 1117.3L1904.14 1116.95L1904.06 1116.6L1903.97 1116.26L1903.86 1115.91L1903.74 1115.58L1903.61 1115.24L1903.46 1114.92L1903.3 1114.59L1903.13 1114.28L1902.95 1113.97L1902.75 1113.66L1902.54 1113.37L1902.32 1113.08L1902.09 1112.8L1901.85 1112.52L1901.59 1112.26L1901.33 1112L1901.05 1111.76L1900.76 1111.52L1900.46 1111.3L1900.14 1111.08L1899.82 1110.88L1899.49 1110.69L1692.97 997.62L1692.63 997.45L1692.29 997.28L1691.94 997.14L1691.59 997L1691.23 996.89L1690.88 996.79L1690.52 996.7L1690.16 996.63L1689.8 996.57L1689.43 996.52L1689.07 996.49L1688.71 996.48L1688.35 996.48L1687.99 996.49L1687.63 996.52Z" id="c67XbvMrex"/>
		<path d="M1618.55 1425.27C1612.62 1436.1 1599.02 1440.07 1588.19 1434.15C1577.37 1428.22 1573.39 1414.62 1579.32 1403.79C1585.24 1392.97 1598.84 1388.99 1609.67 1394.92C1620.49 1400.84 1624.47 1414.45 1618.55 1425.27Z" id="i1YwwolHI2"/>
		<path d="M1858.68 986.48C1852.76 997.31 1839.16 1001.29 1828.33 995.36C1817.51 989.43 1813.53 975.83 1819.45 965.01C1825.38 954.18 1838.98 950.2 1849.81 956.13C1860.63 962.06 1864.61 975.66 1858.68 986.48Z" id="e1FxPvkcgh"/>
		<path d="M1251.21 1068.94L1252.67 1069.06L1254.14 1069.24L1255.6 1069.48L1257.05 1069.77L1258.5 1070.12L1259.95 1070.54L1261.38 1071.01L1262.8 1071.55L1264.21 1072.14L1265.61 1072.8L1266.99 1073.52L1477.11 1188.55L1478.46 1189.33L1479.76 1190.15L1481.02 1191.02L1482.24 1191.93L1483.41 1192.88L1484.54 1193.87L1485.62 1194.91L1486.65 1195.97L1487.64 1197.08L1488.57 1198.22L1489.46 1199.39L1490.3 1200.59L1491.09 1201.81L1491.84 1203.07L1492.53 1204.35L1493.17 1205.66L1493.76 1206.98L1494.3 1208.33L1494.78 1209.7L1495.22 1211.08L1495.6 1212.48L1495.92 1213.89L1496.2 1215.32L1496.41 1216.75L1496.58 1218.2L1496.68 1219.65L1496.74 1221.1L1496.73 1222.57L1496.67 1224.03L1496.55 1225.49L1496.37 1226.96L1496.14 1228.42L1495.84 1229.87L1495.49 1231.33L1495.08 1232.77L1494.6 1234.2L1494.07 1235.63L1493.47 1237.04L1492.81 1238.43L1492.09 1239.81L1297.46 1595.32L1296.69 1596.67L1295.86 1597.97L1295 1599.23L1294.09 1600.45L1293.13 1601.62L1292.14 1602.75L1291.11 1603.83L1290.04 1604.86L1288.94 1605.85L1287.8 1606.78L1286.63 1607.67L1285.43 1608.51L1284.2 1609.31L1282.95 1610.05L1281.67 1610.74L1280.36 1611.38L1279.03 1611.97L1277.69 1612.51L1276.32 1612.99L1274.94 1613.43L1273.54 1613.81L1272.12 1614.13L1270.7 1614.41L1269.26 1614.62L1267.82 1614.79L1266.37 1614.89L1264.91 1614.95L1263.45 1614.94L1261.99 1614.88L1260.52 1614.76L1259.06 1614.58L1257.6 1614.35L1256.14 1614.05L1254.69 1613.7L1253.25 1613.29L1251.81 1612.81L1250.39 1612.28L1248.98 1611.68L1247.58 1611.02L1246.2 1610.3L1036.09 1495.27L1034.74 1494.5L1033.43 1493.67L1032.17 1492.81L1030.95 1491.9L1029.78 1490.94L1028.66 1489.95L1027.58 1488.92L1026.54 1487.85L1025.56 1486.75L1024.62 1485.61L1023.73 1484.44L1022.89 1483.24L1022.1 1482.01L1021.36 1480.76L1020.67 1479.47L1020.03 1478.17L1019.44 1476.84L1018.9 1475.5L1018.41 1474.13L1017.98 1472.75L1017.6 1471.35L1017.27 1469.93L1017 1468.51L1016.78 1467.07L1016.62 1465.63L1016.51 1464.18L1016.46 1462.72L1016.46 1461.26L1016.53 1459.8L1016.64 1458.33L1016.82 1456.87L1017.06 1455.41L1017.35 1453.95L1017.71 1452.5L1018.12 1451.06L1018.59 1449.62L1019.13 1448.2L1019.72 1446.79L1020.38 1445.39L1021.1 1444.01L1215.73 1088.51L1216.51 1087.16L1217.33 1085.85L1218.2 1084.59L1219.11 1083.37L1220.06 1082.2L1221.05 1081.08L1222.09 1080L1223.15 1078.96L1224.26 1077.98L1225.4 1077.04L1226.56 1076.15L1227.76 1075.31L1228.99 1074.52L1230.25 1073.78L1231.53 1073.09L1232.83 1072.45L1234.16 1071.86L1235.51 1071.32L1236.87 1070.83L1238.26 1070.4L1239.66 1070.02L1241.07 1069.69L1242.49 1069.42L1243.93 1069.2L1245.37 1069.04L1246.83 1068.93L1248.28 1068.88L1249.75 1068.88L1251.21 1068.94ZM1248.32 1101.04L1247.96 1101.08L1247.6 1101.13L1247.25 1101.2L1246.9 1101.28L1246.56 1101.37L1246.21 1101.48L1245.88 1101.6L1245.54 1101.73L1245.22 1101.88L1244.89 1102.04L1244.58 1102.21L1244.27 1102.39L1243.96 1102.59L1243.67 1102.8L1243.38 1103.02L1243.09 1103.25L1242.82 1103.49L1242.56 1103.75L1242.3 1104.01L1242.06 1104.29L1241.82 1104.58L1241.6 1104.88L1241.38 1105.19L1241.18 1105.52L1240.99 1105.85L1069.71 1418.7L1069.53 1419.04L1069.36 1419.39L1069.22 1419.74L1069.09 1420.09L1068.97 1420.44L1068.87 1420.8L1068.78 1421.16L1068.71 1421.52L1068.65 1421.88L1068.6 1422.24L1068.57 1422.61L1068.56 1422.97L1068.56 1423.33L1068.57 1423.69L1068.6 1424.05L1068.64 1424.4L1068.69 1424.76L1068.76 1425.11L1068.84 1425.46L1068.93 1425.81L1069.04 1426.15L1069.16 1426.49L1069.29 1426.82L1069.44 1427.15L1069.6 1427.47L1069.77 1427.79L1069.95 1428.1L1070.15 1428.4L1070.36 1428.7L1070.58 1428.99L1070.81 1429.27L1071.05 1429.54L1071.31 1429.8L1071.57 1430.06L1071.85 1430.31L1072.14 1430.54L1072.44 1430.77L1072.75 1430.98L1073.08 1431.18L1073.41 1431.38L1279.92 1544.44L1280.27 1544.62L1280.61 1544.78L1280.96 1544.93L1281.31 1545.06L1281.67 1545.18L1282.02 1545.28L1282.38 1545.37L1282.74 1545.44L1283.1 1545.5L1283.46 1545.54L1283.83 1545.57L1284.19 1545.58L1284.55 1545.59L1284.91 1545.57L1285.27 1545.55L1285.63 1545.51L1285.98 1545.45L1286.33 1545.38L1286.68 1545.3L1287.03 1545.21L1287.37 1545.1L1287.71 1544.98L1288.04 1544.85L1288.37 1544.7L1288.69 1544.55L1289.01 1544.37L1289.32 1544.19L1289.62 1544L1289.92 1543.79L1290.21 1543.57L1290.49 1543.34L1290.76 1543.09L1291.03 1542.84L1291.28 1542.57L1291.53 1542.29L1291.76 1542L1291.99 1541.7L1292.2 1541.39L1292.4 1541.07L1292.6 1540.73L1463.88 1227.88L1464.06 1227.54L1464.22 1227.19L1464.37 1226.85L1464.5 1226.49L1464.62 1226.14L1464.72 1225.78L1464.81 1225.42L1464.88 1225.06L1464.94 1224.7L1464.98 1224.34L1465.01 1223.98L1465.02 1223.62L1465.03 1223.26L1465.01 1222.9L1464.99 1222.54L1464.95 1222.18L1464.89 1221.82L1464.83 1221.47L1464.74 1221.12L1464.65 1220.78L1464.54 1220.43L1464.42 1220.1L1464.29 1219.76L1464.14 1219.44L1463.99 1219.11L1463.81 1218.8L1463.63 1218.49L1463.44 1218.18L1463.23 1217.89L1463.01 1217.6L1462.78 1217.32L1462.53 1217.04L1462.28 1216.78L1462.01 1216.52L1461.73 1216.28L1461.44 1216.04L1461.14 1215.82L1460.83 1215.6L1460.51 1215.4L1460.17 1215.21L1253.66 1102.15L1253.32 1101.97L1252.97 1101.8L1252.62 1101.66L1252.27 1101.53L1251.92 1101.41L1251.56 1101.31L1251.2 1101.22L1250.84 1101.15L1250.48 1101.09L1250.12 1101.04L1249.76 1101.01L1249.4 1101L1249.03 1101L1248.67 1101.01L1248.32 1101.04Z" id="c4smtytzUy"/>
		<path d="M1179.23 1529.79C1173.3 1540.62 1159.7 1544.59 1148.88 1538.67C1138.05 1532.74 1134.07 1519.14 1140 1508.31C1145.93 1497.49 1159.53 1493.51 1170.35 1499.44C1181.18 1505.37 1185.16 1518.97 1179.23 1529.79Z" id="d3cxD905wl"/>
		<path d="M1491.35 630.16L1492.81 630.28L1494.28 630.45L1495.74 630.69L1497.19 630.98L1498.64 631.34L1500.09 631.75L1501.52 632.22L1502.94 632.76L1504.35 633.35L1505.75 634.01L1507.13 634.73L1717.24 749.77L1718.59 750.54L1719.9 751.36L1721.16 752.23L1722.38 753.14L1723.55 754.09L1724.68 755.09L1725.76 756.12L1726.79 757.19L1727.77 758.29L1728.71 759.43L1729.6 760.6L1730.44 761.8L1731.23 763.03L1731.97 764.28L1732.67 765.56L1733.31 766.87L1733.9 768.19L1734.44 769.54L1734.92 770.91L1735.35 772.29L1735.73 773.69L1736.06 775.1L1736.33 776.53L1736.55 777.96L1736.72 779.41L1736.82 780.86L1736.87 782.32L1736.87 783.78L1736.81 785.24L1736.69 786.71L1736.51 788.17L1736.28 789.63L1735.98 791.09L1735.63 792.54L1735.21 793.98L1734.74 795.41L1734.21 796.84L1733.61 798.25L1732.95 799.64L1732.23 801.02L1537.6 1156.53L1536.82 1157.88L1536 1159.19L1535.14 1160.45L1534.22 1161.66L1533.27 1162.84L1532.28 1163.96L1531.25 1165.04L1530.18 1166.07L1529.08 1167.06L1527.94 1168L1526.77 1168.89L1525.57 1169.73L1524.34 1170.52L1523.08 1171.26L1521.8 1171.95L1520.5 1172.59L1519.17 1173.18L1517.82 1173.72L1516.46 1174.21L1515.08 1174.64L1513.68 1175.02L1512.26 1175.35L1510.84 1175.62L1509.4 1175.84L1507.96 1176L1506.51 1176.11L1505.05 1176.16L1503.59 1176.15L1502.12 1176.09L1500.66 1175.97L1499.2 1175.8L1497.74 1175.56L1496.28 1175.27L1494.83 1174.91L1493.39 1174.5L1491.95 1174.03L1490.53 1173.49L1489.12 1172.9L1487.72 1172.24L1486.34 1171.52L1276.23 1056.48L1274.88 1055.71L1273.57 1054.89L1272.31 1054.02L1271.09 1053.11L1269.92 1052.16L1268.79 1051.16L1267.72 1050.13L1266.68 1049.06L1265.7 1047.96L1264.76 1046.82L1263.87 1045.65L1263.03 1044.45L1262.24 1043.22L1261.5 1041.97L1260.81 1040.69L1260.16 1039.38L1259.57 1038.06L1259.04 1036.71L1258.55 1035.34L1258.12 1033.96L1257.74 1032.56L1257.41 1031.15L1257.14 1029.72L1256.92 1028.29L1256.76 1026.84L1256.65 1025.39L1256.6 1023.93L1256.6 1022.47L1256.66 1021.01L1256.78 1019.54L1256.96 1018.08L1257.2 1016.62L1257.49 1015.16L1257.84 1013.71L1258.26 1012.27L1258.73 1010.84L1259.27 1009.41L1259.86 1008L1260.52 1006.61L1261.24 1005.23L1455.87 649.72L1456.65 648.37L1457.47 647.06L1458.34 645.8L1459.25 644.59L1460.2 643.41L1461.19 642.29L1462.22 641.21L1463.29 640.18L1464.4 639.19L1465.53 638.25L1466.7 637.36L1467.9 636.52L1469.13 635.73L1470.39 634.99L1471.67 634.3L1472.97 633.66L1474.3 633.07L1475.65 632.53L1477.01 632.04L1478.4 631.61L1479.8 631.23L1481.21 630.9L1482.63 630.63L1484.07 630.41L1485.51 630.25L1486.97 630.14L1488.42 630.09L1489.88 630.1L1491.35 630.16ZM1488.45 662.25L1488.1 662.29L1487.74 662.34L1487.39 662.41L1487.04 662.49L1486.69 662.59L1486.35 662.69L1486.01 662.81L1485.68 662.95L1485.35 663.09L1485.03 663.25L1484.71 663.42L1484.4 663.6L1484.1 663.8L1483.8 664.01L1483.51 664.23L1483.23 664.46L1482.96 664.7L1482.7 664.96L1482.44 665.23L1482.2 665.5L1481.96 665.79L1481.74 666.09L1481.52 666.41L1481.32 666.73L1481.13 667.06L1309.84 979.92L1309.67 980.26L1309.5 980.6L1309.36 980.95L1309.22 981.3L1309.11 981.66L1309 982.01L1308.92 982.37L1308.84 982.73L1308.79 983.09L1308.74 983.46L1308.71 983.82L1308.7 984.18L1308.7 984.54L1308.71 984.9L1308.74 985.26L1308.78 985.62L1308.83 985.97L1308.9 986.32L1308.98 986.67L1309.07 987.02L1309.18 987.36L1309.3 987.7L1309.43 988.03L1309.58 988.36L1309.74 988.68L1309.91 989L1310.09 989.31L1310.29 989.61L1310.49 989.91L1310.71 990.2L1310.95 990.48L1311.19 990.75L1311.44 991.02L1311.71 991.27L1311.99 991.52L1312.28 991.75L1312.58 991.98L1312.89 992.19L1313.22 992.4L1313.55 992.59L1520.06 1105.65L1520.4 1105.83L1520.75 1105.99L1521.1 1106.14L1521.45 1106.27L1521.8 1106.39L1522.16 1106.49L1522.52 1106.58L1522.88 1106.65L1523.24 1106.71L1523.6 1106.75L1523.96 1106.78L1524.33 1106.8L1524.69 1106.8L1525.05 1106.79L1525.41 1106.76L1525.76 1106.72L1526.12 1106.66L1526.47 1106.6L1526.82 1106.52L1527.17 1106.42L1527.51 1106.32L1527.85 1106.2L1528.18 1106.06L1528.51 1105.92L1528.83 1105.76L1529.15 1105.59L1529.46 1105.4L1529.76 1105.21L1530.06 1105L1530.35 1104.78L1530.63 1104.55L1530.9 1104.31L1531.16 1104.05L1531.42 1103.78L1531.67 1103.5L1531.9 1103.21L1532.13 1102.91L1532.34 1102.6L1532.54 1102.28L1532.73 1101.95L1704.02 789.09L1704.2 788.75L1704.36 788.41L1704.5 788.06L1704.64 787.71L1704.75 787.35L1704.86 786.99L1704.94 786.64L1705.02 786.28L1705.07 785.91L1705.12 785.55L1705.15 785.19L1705.16 784.83L1705.16 784.47L1705.15 784.11L1705.13 783.75L1705.08 783.39L1705.03 783.04L1704.96 782.68L1704.88 782.34L1704.79 781.99L1704.68 781.65L1704.56 781.31L1704.43 780.98L1704.28 780.65L1704.12 780.33L1703.95 780.01L1703.77 779.7L1703.57 779.4L1703.37 779.1L1703.15 778.81L1702.91 778.53L1702.67 778.26L1702.42 777.99L1702.15 777.74L1701.87 777.49L1701.58 777.26L1701.28 777.03L1700.97 776.82L1700.65 776.61L1700.31 776.42L1493.8 663.36L1493.46 663.18L1493.11 663.02L1492.76 662.87L1492.41 662.74L1492.06 662.62L1491.7 662.52L1491.34 662.43L1490.98 662.36L1490.62 662.3L1490.26 662.26L1489.9 662.23L1489.53 662.21L1489.17 662.21L1488.81 662.22L1488.45 662.25Z" id="c8iBHzBcb"/>
		<path d="M1419.37 1091C1413.44 1101.83 1399.84 1105.81 1389.02 1099.88C1378.19 1093.95 1374.21 1080.35 1380.14 1069.53C1386.07 1058.7 1399.67 1054.72 1410.49 1060.65C1421.32 1066.58 1425.3 1080.18 1419.37 1091Z" id="a1lxTzPZwl"/>
		<path d="M1041.04 757.71L1042.51 757.83L1043.97 758.01L1045.43 758.24L1046.89 758.54L1048.34 758.89L1049.78 759.31L1051.22 759.78L1052.64 760.31L1054.05 760.91L1055.45 761.57L1056.83 762.29L1266.94 877.32L1268.29 878.1L1269.6 878.92L1270.86 879.79L1272.08 880.7L1273.25 881.65L1274.37 882.64L1275.45 883.67L1276.49 884.74L1277.47 885.85L1278.41 886.98L1279.3 888.15L1280.14 889.35L1280.93 890.58L1281.67 891.84L1282.36 893.12L1283 894.42L1283.59 895.75L1284.13 897.1L1284.62 898.46L1285.05 899.85L1285.43 901.24L1285.76 902.66L1286.03 904.08L1286.25 905.52L1286.41 906.96L1286.52 908.41L1286.57 909.87L1286.57 911.33L1286.5 912.8L1286.39 914.26L1286.21 915.72L1285.97 917.19L1285.68 918.64L1285.33 920.09L1284.91 921.54L1284.44 922.97L1283.9 924.39L1283.31 925.8L1282.65 927.2L1281.93 928.58L1087.3 1284.08L1086.52 1285.43L1085.7 1286.74L1084.83 1288L1083.92 1289.22L1082.97 1290.39L1081.98 1291.52L1080.94 1292.6L1079.88 1293.63L1078.77 1294.61L1077.64 1295.55L1076.47 1296.44L1075.27 1297.28L1074.04 1298.07L1072.78 1298.81L1071.5 1299.51L1070.2 1300.15L1068.87 1300.74L1067.52 1301.27L1066.16 1301.76L1064.77 1302.19L1063.37 1302.57L1061.96 1302.9L1060.54 1303.17L1059.1 1303.39L1057.66 1303.55L1056.2 1303.66L1054.75 1303.71L1053.29 1303.71L1051.82 1303.65L1050.36 1303.53L1048.89 1303.35L1047.43 1303.12L1045.98 1302.82L1044.53 1302.47L1043.08 1302.05L1041.65 1301.58L1040.23 1301.05L1038.82 1300.45L1037.42 1299.79L1036.04 1299.07L825.92 1184.04L824.57 1183.26L823.27 1182.44L822.01 1181.57L820.79 1180.66L819.62 1179.71L818.49 1178.72L817.41 1177.69L816.38 1176.62L815.39 1175.51L814.46 1174.38L813.57 1173.21L812.73 1172.01L811.94 1170.78L811.19 1169.52L810.5 1168.24L809.86 1166.94L809.27 1165.61L808.73 1164.26L808.25 1162.9L807.81 1161.51L807.43 1160.11L807.11 1158.7L806.83 1157.28L806.62 1155.84L806.45 1154.4L806.35 1152.94L806.29 1151.49L806.3 1150.03L806.36 1148.56L806.48 1147.1L806.66 1145.63L806.89 1144.17L807.19 1142.72L807.54 1141.27L807.95 1139.82L808.43 1138.39L808.96 1136.97L809.56 1135.56L810.22 1134.16L810.94 1132.78L1005.57 777.28L1006.34 775.93L1007.17 774.62L1008.03 773.36L1008.94 772.14L1009.9 770.97L1010.89 769.84L1011.92 768.76L1012.99 767.73L1014.09 766.75L1015.23 765.81L1016.4 764.92L1017.6 764.08L1018.83 763.29L1020.08 762.54L1021.37 761.85L1022.67 761.21L1024 760.62L1025.34 760.08L1026.71 759.6L1028.09 759.17L1029.49 758.79L1030.91 758.46L1032.33 758.19L1033.77 757.97L1035.21 757.8L1036.66 757.7L1038.12 757.65L1039.58 757.65L1041.04 757.71ZM1038.15 789.8L1037.79 789.84L1037.44 789.9L1037.09 789.97L1036.74 790.05L1036.39 790.14L1036.05 790.25L1035.71 790.37L1035.38 790.5L1035.05 790.65L1034.73 790.81L1034.41 790.98L1034.1 791.16L1033.8 791.35L1033.5 791.56L1033.21 791.78L1032.93 792.01L1032.66 792.26L1032.39 792.51L1032.14 792.78L1031.89 793.06L1031.66 793.35L1031.43 793.65L1031.22 793.96L1031.01 794.28L1030.82 794.62L859.54 1107.47L859.36 1107.81L859.2 1108.16L859.05 1108.51L858.92 1108.86L858.8 1109.21L858.7 1109.57L858.61 1109.93L858.54 1110.29L858.48 1110.65L858.44 1111.01L858.41 1111.37L858.39 1111.73L858.39 1112.1L858.41 1112.46L858.43 1112.81L858.47 1113.17L858.53 1113.53L858.59 1113.88L858.68 1114.23L858.77 1114.57L858.88 1114.92L859 1115.25L859.13 1115.59L859.28 1115.91L859.43 1116.24L859.6 1116.55L859.79 1116.86L859.98 1117.17L860.19 1117.46L860.41 1117.75L860.64 1118.03L860.89 1118.31L861.14 1118.57L861.41 1118.83L861.69 1119.07L861.98 1119.31L862.28 1119.53L862.59 1119.75L862.91 1119.95L863.25 1120.14L1069.76 1233.21L1070.1 1233.38L1070.45 1233.55L1070.8 1233.69L1071.15 1233.83L1071.5 1233.94L1071.86 1234.04L1072.22 1234.13L1072.58 1234.21L1072.94 1234.26L1073.3 1234.31L1073.66 1234.34L1074.02 1234.35L1074.38 1234.35L1074.75 1234.34L1075.1 1234.31L1075.46 1234.27L1075.82 1234.22L1076.17 1234.15L1076.52 1234.07L1076.86 1233.98L1077.21 1233.87L1077.54 1233.75L1077.88 1233.62L1078.2 1233.47L1078.53 1233.31L1078.84 1233.14L1079.15 1232.96L1079.46 1232.76L1079.75 1232.55L1080.04 1232.34L1080.32 1232.1L1080.6 1231.86L1080.86 1231.6L1081.12 1231.34L1081.36 1231.06L1081.6 1230.77L1081.82 1230.47L1082.04 1230.16L1082.24 1229.83L1082.43 1229.5L1253.71 916.65L1253.89 916.31L1254.05 915.96L1254.2 915.61L1254.33 915.26L1254.45 914.91L1254.55 914.55L1254.64 914.19L1254.71 913.83L1254.77 913.47L1254.82 913.11L1254.85 912.75L1254.86 912.38L1254.86 912.02L1254.85 911.66L1254.82 911.3L1254.78 910.95L1254.73 910.59L1254.66 910.24L1254.58 909.89L1254.49 909.54L1254.38 909.2L1254.26 908.86L1254.13 908.53L1253.98 908.2L1253.82 907.88L1253.65 907.56L1253.47 907.25L1253.27 906.95L1253.06 906.65L1252.84 906.36L1252.61 906.08L1252.37 905.81L1252.11 905.55L1251.85 905.29L1251.57 905.05L1251.28 904.81L1250.98 904.58L1250.67 904.37L1250.34 904.17L1250.01 903.98L1043.49 790.91L1043.15 790.73L1042.81 790.57L1042.46 790.42L1042.11 790.29L1041.75 790.18L1041.4 790.07L1041.04 789.99L1040.68 789.91L1040.32 789.85L1039.96 789.81L1039.59 789.78L1039.23 789.77L1038.87 789.76L1038.51 789.78L1038.15 789.8Z" id="b185U3W8h2"/>
		<path d="M969.07 1218.56C963.14 1229.38 949.54 1233.36 938.71 1227.43C927.89 1221.51 923.91 1207.91 929.84 1197.08C935.76 1186.26 949.36 1182.28 960.19 1188.21C971.02 1194.13 974.99 1207.73 969.07 1218.56Z" id="atsfCAdvE"/>
		<path d="M1281.18 318.92L1282.65 319.04L1284.11 319.22L1285.57 319.46L1287.03 319.75L1288.48 320.1L1289.92 320.52L1291.36 320.99L1292.78 321.53L1294.19 322.12L1295.59 322.78L1296.97 323.5L1507.08 438.53L1508.43 439.31L1509.74 440.13L1511 441L1512.21 441.91L1513.39 442.86L1514.51 443.85L1515.59 444.89L1516.62 445.95L1517.61 447.06L1518.55 448.2L1519.44 449.37L1520.28 450.56L1521.07 451.79L1521.81 453.05L1522.5 454.33L1523.14 455.63L1523.73 456.96L1524.27 458.31L1524.76 459.68L1525.19 461.06L1525.57 462.46L1525.9 463.87L1526.17 465.3L1526.39 466.73L1526.55 468.18L1526.66 469.63L1526.71 471.08L1526.71 472.55L1526.64 474.01L1526.52 475.47L1526.35 476.94L1526.11 478.4L1525.82 479.85L1525.46 481.31L1525.05 482.75L1524.58 484.18L1524.04 485.6L1523.45 487.02L1522.79 488.41L1522.07 489.79L1327.44 845.3L1326.66 846.65L1325.84 847.95L1324.97 849.21L1324.06 850.43L1323.11 851.6L1322.11 852.73L1321.08 853.81L1320.01 854.84L1318.91 855.83L1317.77 856.76L1316.6 857.65L1315.4 858.49L1314.18 859.29L1312.92 860.03L1311.64 860.72L1310.33 861.36L1309.01 861.95L1307.66 862.49L1306.29 862.97L1304.91 863.41L1303.51 863.79L1302.1 864.11L1300.67 864.39L1299.24 864.6L1297.79 864.77L1296.34 864.87L1294.88 864.93L1293.42 864.92L1291.96 864.86L1290.5 864.74L1289.03 864.56L1287.57 864.33L1286.11 864.03L1284.66 863.68L1283.22 863.27L1281.79 862.79L1280.36 862.26L1278.95 861.66L1277.56 861L1276.18 860.28L1066.06 745.25L1064.71 744.48L1063.41 743.65L1062.15 742.79L1060.93 741.88L1059.76 740.92L1058.63 739.93L1057.55 738.9L1056.52 737.83L1055.53 736.73L1054.6 735.59L1053.71 734.42L1052.87 733.22L1052.07 731.99L1051.33 730.74L1050.64 729.45L1050 728.15L1049.41 726.82L1048.87 725.48L1048.39 724.11L1047.95 722.73L1047.57 721.33L1047.25 719.91L1046.97 718.49L1046.76 717.05L1046.59 715.61L1046.48 714.16L1046.43 712.7L1046.44 711.24L1046.5 709.77L1046.62 708.31L1046.8 706.85L1047.03 705.39L1047.33 703.93L1047.68 702.48L1048.09 701.04L1048.57 699.6L1049.1 698.18L1049.7 696.77L1050.35 695.37L1051.07 693.99L1245.71 338.49L1246.48 337.14L1247.3 335.83L1248.17 334.57L1249.08 333.35L1250.04 332.18L1251.03 331.06L1252.06 329.98L1253.13 328.94L1254.23 327.96L1255.37 327.02L1256.54 326.13L1257.74 325.29L1258.97 324.5L1260.22 323.76L1261.5 323.07L1262.81 322.43L1264.14 321.84L1265.48 321.3L1266.85 320.81L1268.23 320.38L1269.63 320L1271.04 319.67L1272.47 319.4L1273.9 319.18L1275.35 319.02L1276.8 318.91L1278.26 318.86L1279.72 318.86L1281.18 318.92ZM1278.29 351.02L1277.93 351.06L1277.58 351.11L1277.23 351.18L1276.88 351.26L1276.53 351.35L1276.19 351.46L1275.85 351.58L1275.52 351.71L1275.19 351.86L1274.87 352.02L1274.55 352.19L1274.24 352.37L1273.94 352.57L1273.64 352.78L1273.35 353L1273.07 353.23L1272.8 353.47L1272.53 353.73L1272.28 353.99L1272.03 354.27L1271.8 354.56L1271.57 354.86L1271.36 355.17L1271.15 355.5L1270.96 355.83L1099.68 668.68L1099.5 669.02L1099.34 669.37L1099.19 669.72L1099.06 670.07L1098.94 670.42L1098.84 670.78L1098.75 671.14L1098.68 671.5L1098.62 671.86L1098.58 672.22L1098.55 672.58L1098.53 672.95L1098.53 673.31L1098.54 673.67L1098.57 674.03L1098.61 674.38L1098.67 674.74L1098.73 675.09L1098.81 675.44L1098.91 675.79L1099.01 676.13L1099.13 676.47L1099.27 676.8L1099.41 677.13L1099.57 677.45L1099.74 677.77L1099.93 678.08L1100.12 678.38L1100.33 678.68L1100.55 678.97L1100.78 679.25L1101.03 679.52L1101.28 679.78L1101.55 680.04L1101.83 680.28L1102.12 680.52L1102.42 680.75L1102.73 680.96L1103.05 681.16L1103.38 681.35L1309.9 794.42L1310.24 794.6L1310.59 794.76L1310.93 794.91L1311.29 795.04L1311.64 795.16L1312 795.26L1312.36 795.34L1312.72 795.42L1313.08 795.48L1313.44 795.52L1313.8 795.55L1314.16 795.56L1314.52 795.57L1314.88 795.55L1315.24 795.53L1315.6 795.49L1315.95 795.43L1316.31 795.36L1316.66 795.28L1317 795.19L1317.34 795.08L1317.68 794.96L1318.01 794.83L1318.34 794.68L1318.67 794.53L1318.98 794.35L1319.29 794.17L1319.6 793.98L1319.89 793.77L1320.18 793.55L1320.46 793.32L1320.74 793.07L1321 792.82L1321.26 792.55L1321.5 792.27L1321.74 791.98L1321.96 791.68L1322.18 791.37L1322.38 791.05L1322.57 790.71L1493.85 477.86L1494.03 477.52L1494.19 477.17L1494.34 476.82L1494.47 476.47L1494.59 476.12L1494.69 475.76L1494.78 475.4L1494.85 475.04L1494.91 474.68L1494.95 474.32L1494.98 473.96L1495 473.6L1495 473.24L1494.99 472.87L1494.96 472.52L1494.92 472.16L1494.87 471.8L1494.8 471.45L1494.72 471.1L1494.62 470.76L1494.52 470.41L1494.4 470.08L1494.26 469.74L1494.12 469.42L1493.96 469.09L1493.79 468.78L1493.61 468.47L1493.41 468.16L1493.2 467.87L1492.98 467.58L1492.75 467.3L1492.51 467.02L1492.25 466.76L1491.98 466.5L1491.71 466.26L1491.42 466.02L1491.12 465.8L1490.8 465.58L1490.48 465.38L1490.15 465.19L1283.63 352.12L1283.29 351.95L1282.95 351.78L1282.6 351.64L1282.25 351.5L1281.89 351.39L1281.54 351.29L1281.18 351.2L1280.82 351.13L1280.46 351.07L1280.09 351.02L1279.73 350.99L1279.37 350.98L1279.01 350.98L1278.65 350.99L1278.29 351.02Z" id="b1tIr8odw5"/>
		<path d="M1209.2 779.77C1203.28 790.6 1189.68 794.57 1178.85 788.65C1168.03 782.72 1164.05 769.12 1169.98 758.29C1175.9 747.47 1189.5 743.49 1200.33 749.42C1211.15 755.34 1215.13 768.95 1209.2 779.77Z" id="b6ckffbvQ"/>
		<path d="M1450.39 1408.17L1451.85 1408.29L1453.31 1408.47L1454.77 1408.71L1456.23 1409L1457.68 1409.35L1459.12 1409.77L1460.56 1410.24L1461.98 1410.78L1463.39 1411.37L1464.79 1412.03L1466.17 1412.75L1676.28 1527.78L1677.63 1528.56L1678.94 1529.38L1680.2 1530.25L1681.42 1531.16L1682.59 1532.11L1683.71 1533.1L1684.79 1534.14L1685.83 1535.2L1686.81 1536.31L1687.75 1537.45L1688.64 1538.61L1689.48 1539.81L1690.27 1541.04L1691.01 1542.3L1691.7 1543.58L1692.35 1544.88L1692.94 1546.21L1693.47 1547.56L1693.96 1548.93L1694.39 1550.31L1694.77 1551.71L1695.1 1553.12L1695.37 1554.55L1695.59 1555.98L1695.75 1557.43L1695.86 1558.88L1695.91 1560.33L1695.91 1561.8L1695.85 1563.26L1695.73 1564.72L1695.55 1566.19L1695.31 1567.65L1695.02 1569.1L1694.67 1570.55L1694.25 1572L1693.78 1573.43L1693.24 1574.85L1692.65 1576.27L1691.99 1577.66L1691.27 1579.04L1496.64 1934.55L1495.86 1935.9L1495.04 1937.2L1494.17 1938.46L1493.26 1939.68L1492.31 1940.85L1491.32 1941.98L1490.29 1943.06L1489.22 1944.09L1488.11 1945.08L1486.98 1946.01L1485.81 1946.9L1484.61 1947.74L1483.38 1948.53L1482.12 1949.28L1480.84 1949.97L1479.54 1950.61L1478.21 1951.2L1476.86 1951.74L1475.5 1952.22L1474.11 1952.66L1472.71 1953.04L1471.3 1953.36L1469.88 1953.64L1468.44 1953.85L1467 1954.02L1465.54 1954.12L1464.09 1954.18L1462.63 1954.17L1461.16 1954.11L1459.7 1953.99L1458.23 1953.81L1456.77 1953.58L1455.32 1953.28L1453.87 1952.93L1452.42 1952.52L1450.99 1952.04L1449.57 1951.51L1448.16 1950.91L1446.76 1950.25L1445.38 1949.53L1235.27 1834.5L1233.92 1833.73L1232.61 1832.9L1231.35 1832.04L1230.13 1831.13L1228.96 1830.17L1227.83 1829.18L1226.75 1828.15L1225.72 1827.08L1224.74 1825.98L1223.8 1824.84L1222.91 1823.67L1222.07 1822.47L1221.28 1821.24L1220.53 1819.99L1219.84 1818.7L1219.2 1817.4L1218.61 1816.07L1218.07 1814.72L1217.59 1813.36L1217.16 1811.98L1216.78 1810.58L1216.45 1809.16L1216.18 1807.74L1215.96 1806.3L1215.79 1804.86L1215.69 1803.41L1215.64 1801.95L1215.64 1800.49L1215.7 1799.02L1215.82 1797.56L1216 1796.1L1216.23 1794.64L1216.53 1793.18L1216.88 1791.73L1217.3 1790.29L1217.77 1788.85L1218.3 1787.43L1218.9 1786.02L1219.56 1784.62L1220.28 1783.24L1414.91 1427.74L1415.69 1426.39L1416.51 1425.08L1417.37 1423.82L1418.28 1422.6L1419.24 1421.43L1420.23 1420.31L1421.26 1419.23L1422.33 1418.19L1423.43 1417.21L1424.57 1416.27L1425.74 1415.38L1426.94 1414.54L1428.17 1413.75L1429.43 1413.01L1430.71 1412.32L1432.01 1411.67L1433.34 1411.09L1434.69 1410.55L1436.05 1410.06L1437.43 1409.63L1438.83 1409.25L1440.25 1408.92L1441.67 1408.65L1443.11 1408.43L1444.55 1408.27L1446 1408.16L1447.46 1408.11L1448.92 1408.11L1450.39 1408.17ZM1447.49 1440.27L1447.13 1440.31L1446.78 1440.36L1446.43 1440.43L1446.08 1440.51L1445.73 1440.6L1445.39 1440.71L1445.05 1440.83L1444.72 1440.96L1444.39 1441.11L1444.07 1441.27L1443.75 1441.44L1443.44 1441.62L1443.14 1441.82L1442.84 1442.03L1442.55 1442.24L1442.27 1442.48L1442 1442.72L1441.73 1442.98L1441.48 1443.24L1441.23 1443.52L1441 1443.81L1440.77 1444.11L1440.56 1444.42L1440.36 1444.75L1440.16 1445.08L1268.88 1757.93L1268.7 1758.27L1268.54 1758.62L1268.39 1758.97L1268.26 1759.32L1268.14 1759.67L1268.04 1760.03L1267.96 1760.39L1267.88 1760.75L1267.82 1761.11L1267.78 1761.47L1267.75 1761.83L1267.74 1762.2L1267.73 1762.56L1267.75 1762.92L1267.77 1763.28L1267.81 1763.63L1267.87 1763.99L1267.94 1764.34L1268.02 1764.69L1268.11 1765.04L1268.22 1765.38L1268.34 1765.72L1268.47 1766.05L1268.62 1766.38L1268.77 1766.7L1268.95 1767.02L1269.13 1767.33L1269.32 1767.63L1269.53 1767.93L1269.75 1768.22L1269.98 1768.5L1270.23 1768.77L1270.48 1769.03L1270.75 1769.29L1271.03 1769.53L1271.32 1769.77L1271.62 1770L1271.93 1770.21L1272.25 1770.41L1272.59 1770.6L1479.1 1883.67L1479.44 1883.85L1479.79 1884.01L1480.14 1884.16L1480.49 1884.29L1480.84 1884.4L1481.2 1884.51L1481.56 1884.59L1481.92 1884.67L1482.28 1884.73L1482.64 1884.77L1483 1884.8L1483.36 1884.81L1483.73 1884.82L1484.09 1884.8L1484.45 1884.78L1484.8 1884.74L1485.16 1884.68L1485.51 1884.61L1485.86 1884.53L1486.2 1884.44L1486.55 1884.33L1486.88 1884.21L1487.22 1884.08L1487.55 1883.93L1487.87 1883.78L1488.18 1883.6L1488.49 1883.42L1488.8 1883.23L1489.1 1883.02L1489.38 1882.8L1489.67 1882.57L1489.94 1882.32L1490.2 1882.07L1490.46 1881.8L1490.7 1881.52L1490.94 1881.23L1491.16 1880.93L1491.38 1880.62L1491.58 1880.3L1491.77 1879.96L1663.06 1567.11L1663.23 1566.77L1663.4 1566.42L1663.54 1566.07L1663.68 1565.72L1663.79 1565.37L1663.89 1565.01L1663.98 1564.65L1664.05 1564.29L1664.11 1563.93L1664.16 1563.57L1664.19 1563.21L1664.2 1562.85L1664.2 1562.48L1664.19 1562.12L1664.16 1561.77L1664.12 1561.41L1664.07 1561.05L1664 1560.7L1663.92 1560.35L1663.83 1560.01L1663.72 1559.66L1663.6 1559.33L1663.47 1558.99L1663.32 1558.67L1663.16 1558.34L1662.99 1558.03L1662.81 1557.72L1662.61 1557.41L1662.4 1557.12L1662.18 1556.83L1661.95 1556.55L1661.71 1556.27L1661.45 1556.01L1661.19 1555.75L1660.91 1555.51L1660.62 1555.27L1660.32 1555.05L1660.01 1554.83L1659.68 1554.63L1659.35 1554.44L1452.84 1441.37L1452.49 1441.2L1452.15 1441.03L1451.8 1440.89L1451.45 1440.75L1451.09 1440.64L1450.74 1440.54L1450.38 1440.45L1450.02 1440.38L1449.66 1440.32L1449.3 1440.27L1448.93 1440.24L1448.57 1440.23L1448.21 1440.23L1447.85 1440.24L1447.49 1440.27Z" id="alIKtBkMM"/>
		<path d="M1378.41 1869.02C1372.48 1879.85 1358.88 1883.82 1348.05 1877.9C1337.23 1871.97 1333.25 1858.37 1339.18 1847.54C1345.1 1836.72 1358.71 1832.74 1369.53 1838.67C1380.36 1844.59 1384.33 1858.2 1378.41 1869.02Z" id="arBUWJ2Ck"/>
		<path d="M800.91 1201.46L802.37 1201.58L803.83 1201.76L805.29 1201.99L806.75 1202.29L808.2 1202.64L809.64 1203.06L811.08 1203.53L812.5 1204.06L813.91 1204.66L815.31 1205.32L816.69 1206.04L1026.8 1321.07L1028.15 1321.85L1029.46 1322.67L1030.72 1323.54L1031.94 1324.45L1033.11 1325.4L1034.24 1326.39L1035.31 1327.42L1036.35 1328.49L1037.33 1329.6L1038.27 1330.73L1039.16 1331.9L1040 1333.1L1040.79 1334.33L1041.53 1335.59L1042.23 1336.87L1042.87 1338.17L1043.46 1339.5L1043.99 1340.85L1044.48 1342.21L1044.91 1343.6L1045.29 1344.99L1045.62 1346.41L1045.89 1347.83L1046.11 1349.27L1046.27 1350.71L1046.38 1352.16L1046.43 1353.62L1046.43 1355.08L1046.37 1356.55L1046.25 1358.01L1046.07 1359.47L1045.83 1360.94L1045.54 1362.39L1045.19 1363.84L1044.77 1365.29L1044.3 1366.72L1043.76 1368.14L1043.17 1369.55L1042.51 1370.95L1041.79 1372.33L847.16 1727.83L846.38 1729.18L845.56 1730.49L844.69 1731.75L843.78 1732.97L842.83 1734.14L841.84 1735.27L840.81 1736.35L839.74 1737.38L838.63 1738.36L837.5 1739.3L836.33 1740.19L835.13 1741.03L833.9 1741.82L832.64 1742.56L831.36 1743.26L830.06 1743.9L828.73 1744.49L827.38 1745.02L826.02 1745.51L824.63 1745.94L823.23 1746.32L821.82 1746.65L820.4 1746.92L818.96 1747.14L817.52 1747.3L816.07 1747.41L814.61 1747.46L813.15 1747.46L811.68 1747.4L810.22 1747.28L808.76 1747.1L807.29 1746.87L805.84 1746.57L804.39 1746.22L802.94 1745.8L801.51 1745.33L800.09 1744.8L798.68 1744.2L797.28 1743.54L795.9 1742.82L585.79 1627.79L584.44 1627.01L583.13 1626.19L581.87 1625.32L580.65 1624.41L579.48 1623.46L578.35 1622.47L577.27 1621.44L576.24 1620.37L575.26 1619.26L574.32 1618.13L573.43 1616.96L572.59 1615.76L571.8 1614.53L571.06 1613.27L570.36 1611.99L569.72 1610.69L569.13 1609.36L568.6 1608.01L568.11 1606.65L567.68 1605.26L567.3 1603.86L566.97 1602.45L566.7 1601.03L566.48 1599.59L566.32 1598.15L566.21 1596.69L566.16 1595.24L566.16 1593.78L566.22 1592.31L566.34 1590.85L566.52 1589.38L566.75 1587.92L567.05 1586.47L567.4 1585.02L567.82 1583.57L568.29 1582.14L568.82 1580.72L569.42 1579.31L570.08 1577.91L570.8 1576.53L765.43 1221.03L766.21 1219.68L767.03 1218.37L767.89 1217.11L768.81 1215.89L769.76 1214.72L770.75 1213.59L771.78 1212.51L772.85 1211.48L773.95 1210.5L775.09 1209.56L776.26 1208.67L777.46 1207.83L778.69 1207.04L779.95 1206.29L781.23 1205.6L782.53 1204.96L783.86 1204.37L785.21 1203.83L786.57 1203.35L787.96 1202.92L789.35 1202.54L790.77 1202.21L792.19 1201.94L793.63 1201.72L795.07 1201.55L796.52 1201.45L797.98 1201.4L799.44 1201.4L800.91 1201.46ZM798.01 1233.55L797.66 1233.59L797.3 1233.65L796.95 1233.72L796.6 1233.8L796.25 1233.89L795.91 1234L795.57 1234.12L795.24 1234.25L794.91 1234.4L794.59 1234.56L794.27 1234.73L793.96 1234.91L793.66 1235.1L793.36 1235.31L793.07 1235.53L792.79 1235.76L792.52 1236.01L792.25 1236.26L792 1236.53L791.75 1236.81L791.52 1237.1L791.29 1237.4L791.08 1237.71L790.88 1238.03L790.68 1238.37L619.4 1551.22L619.22 1551.56L619.06 1551.91L618.91 1552.26L618.78 1552.61L618.67 1552.96L618.56 1553.32L618.48 1553.68L618.4 1554.04L618.34 1554.4L618.3 1554.76L618.27 1555.12L618.26 1555.48L618.25 1555.85L618.27 1556.21L618.29 1556.56L618.33 1556.92L618.39 1557.28L618.46 1557.63L618.54 1557.98L618.63 1558.32L618.74 1558.67L618.86 1559L618.99 1559.34L619.14 1559.66L619.3 1559.99L619.47 1560.3L619.65 1560.61L619.85 1560.92L620.05 1561.21L620.27 1561.5L620.5 1561.78L620.75 1562.06L621 1562.32L621.27 1562.58L621.55 1562.82L621.84 1563.06L622.14 1563.28L622.45 1563.5L622.77 1563.7L623.11 1563.89L829.62 1676.96L829.96 1677.13L830.31 1677.3L830.66 1677.44L831.01 1677.58L831.36 1677.69L831.72 1677.79L832.08 1677.88L832.44 1677.96L832.8 1678.01L833.16 1678.06L833.52 1678.09L833.89 1678.1L834.25 1678.1L834.61 1678.09L834.97 1678.06L835.32 1678.02L835.68 1677.97L836.03 1677.9L836.38 1677.82L836.73 1677.73L837.07 1677.62L837.4 1677.5L837.74 1677.37L838.07 1677.22L838.39 1677.06L838.71 1676.89L839.02 1676.71L839.32 1676.51L839.62 1676.3L839.9 1676.09L840.19 1675.85L840.46 1675.61L840.72 1675.35L840.98 1675.09L841.22 1674.81L841.46 1674.52L841.68 1674.22L841.9 1673.91L842.1 1673.58L842.29 1673.25L1013.58 1360.4L1013.75 1360.06L1013.92 1359.71L1014.06 1359.36L1014.2 1359.01L1014.31 1358.66L1014.42 1358.3L1014.5 1357.94L1014.58 1357.58L1014.63 1357.22L1014.68 1356.86L1014.71 1356.5L1014.72 1356.13L1014.72 1355.77L1014.71 1355.41L1014.68 1355.05L1014.64 1354.7L1014.59 1354.34L1014.52 1353.99L1014.44 1353.64L1014.35 1353.29L1014.24 1352.95L1014.12 1352.61L1013.99 1352.28L1013.84 1351.95L1013.68 1351.63L1013.51 1351.31L1013.33 1351L1013.13 1350.7L1012.93 1350.4L1012.71 1350.11L1012.47 1349.83L1012.23 1349.56L1011.97 1349.3L1011.71 1349.04L1011.43 1348.8L1011.14 1348.56L1010.84 1348.33L1010.53 1348.12L1010.2 1347.92L1009.87 1347.73L803.36 1234.66L803.02 1234.48L802.67 1234.32L802.32 1234.17L801.97 1234.04L801.62 1233.93L801.26 1233.82L800.9 1233.74L800.54 1233.66L800.18 1233.6L799.82 1233.56L799.45 1233.53L799.09 1233.52L798.73 1233.51L798.37 1233.53L798.01 1233.55Z" id="brhBvphb1"/>
		<path d="M728.93 1662.31C723 1673.13 709.4 1677.11 698.57 1671.18C687.75 1665.26 683.77 1651.66 689.7 1640.83C695.63 1630.01 709.23 1626.03 720.05 1631.96C730.88 1637.88 734.85 1651.48 728.93 1662.31Z" id="dOP3VAWvP"/>
	</defs>
	<g>
		<g>
			<use xlink:href="#b3ptB5hwia" opacity="1" fill="#142752" fill-opacity="1"/>
		</g>
		<g>
			<g>
				<use xlink:href="#e4ssIdYw2g" opacity="1" fill-opacity="0" stroke="#2f4e8f" stroke-width="5" stroke-opacity="1"/>
			</g>
		</g>
		<g>
			<use xlink:href="#a1nKJvROur" opacity="1" fill="#142752" fill-opacity="1"/>
		</g>
		<g>
			<g>
				<use xlink:href="#aveahKIN9" opacity="1" fill-opacity="0" stroke="#2f4e8f" stroke-width="5" stroke-opacity="1"/>
			</g>
		</g>
		<g>
			<use xlink:href="#aMn5ZId3" opacity="1" fill="#142752" fill-opacity="1"/>
		</g>
		<g>
			<g>
				<use xlink:href="#a1qpjjd8TC" opacity="1" fill-opacity="0" stroke="#2f4e8f" stroke-width="5" stroke-opacity="1"/>
			</g>
		</g>
		<g>
			<use xlink:href="#d2UCtebrOZ" opacity="1" fill="#142752" fill-opacity="1"/>
		</g>
		<g>
			<g>
				<use xlink:href="#d2xZlpl847" opacity="1" fill-opacity="0" stroke="#2f4e8f" stroke-width="5" stroke-opacity="1"/>
			</g>
		</g>
		<g>
			<use xlink:href="#l2dI21vF7q" opacity="1" fill="#142752" fill-opacity="1"/>
		</g>
		<g>
			<g>
				<use xlink:href="#cgmyo9o9X" opacity="1" fill-opacity="0" stroke="#2f4e8f" stroke-width="5" stroke-opacity="1"/>
			</g>
		</g>
		<g>
			<use xlink:href="#c67XbvMrex" opacity="1" fill="#142752" fill-opacity="1"/>
		</g>
		<g>
			<g>
				<use xlink:href="#i1YwwolHI2" opacity="1" fill-opacity="0" stroke="#2f4e8f" stroke-width="5" stroke-opacity="1"/>
			</g>
		</g>
		<g>
			<g>
				<use xlink:href="#e1FxPvkcgh" opacity="1" fill-opacity="0" stroke="#2f4e8f" stroke-width="5" stroke-opacity="1"/>
			</g>
		</g>
		<g>
			<use xlink:href="#c4smtytzUy" opacity="1" fill="#142752" fill-opacity="1"/>
		</g>
		<g>
			<g>
				<use xlink:href="#d3cxD905wl" opacity="1" fill-opacity="0" stroke="#2f4e8f" stroke-width="5" stroke-opacity="1"/>
			</g>
		</g>
		<g>
			<use xlink:href="#c8iBHzBcb" opacity="1" fill="#142752" fill-opacity="1"/>
		</g>
		<g>
			<g>
				<use xlink:href="#a1lxTzPZwl" opacity="1" fill-opacity="0" stroke="#2f4e8f" stroke-width="5" stroke-opacity="1"/>
			</g>
		</g>
		<g>
			<use xlink:href="#b185U3W8h2" opacity="1" fill="#092970" fill-opacity="1"/>
		</g>
		<g>
			<g>
				<use xlink:href="#atsfCAdvE" opacity="1" fill-opacity="0" stroke="#2f4e8f" stroke-width="5" stroke-opacity="1"/>
			</g>
		</g>
		<g>
			<use xlink:href="#b1tIr8odw5" opacity="1" fill="#142752" fill-opacity="1"/>
		</g>
		<g>
			<g>
				<use xlink:href="#b6ckffbvQ" opacity="1" fill-opacity="0" stroke="#2f4e8f" stroke-width="5" stroke-opacity="1"/>
			</g>
		</g>
		<g>
			<use xlink:href="#alIKtBkMM" opacity="1" fill="#142752" fill-opacity="1"/>
		</g>
		<g>
			<g>
				<use xlink:href="#arBUWJ2Ck" opacity="1" fill-opacity="0" stroke="#2f4e8f" stroke-width="5" stroke-opacity="1"/>
			</g>
		</g>
		<g>
			<use xlink:href="#brhBvphb1" opacity="1" fill="#142752" fill-opacity="1"/>
		</g>
		<g>
			<g>
				<use xlink:href="#dOP3VAWvP" opacity="1" fill-opacity="0" stroke="#2f4e8f" stroke-width="5" stroke-opacity="1"/>
			</g>
		</g>
	</g>
</svg>